<svg width="1728" height="846" viewBox="0 0 1728 846" fill="none" xmlns="http://www.w3.org/2000/svg">
<g clip-path="url(#clip0_250_20943)">
<rect width="1728" height="846" fill="#718C69"/>
<path d="M1631.28 678.647L1631.65 678.324L1631.65 678.324L1631.28 678.647ZM1595.28 448.963L1595.71 449.231L1595.71 449.231L1595.28 448.963ZM1627.47 400.029L1627.92 400.245V400.245L1627.47 400.029ZM1640.78 308.992L1641.28 309.036L1641.28 309.036L1640.78 308.992ZM1677.97 227.508L1678.25 227.928L1678.25 227.928L1677.97 227.508ZM1713.82 206.819L1714.16 207.184L1714.16 207.184L1713.82 206.819ZM1742.24 156.593L1742.64 156.903L1742.64 156.903L1742.24 156.593ZM1785.74 123.476L1785.42 123.089L1785.42 123.089L1785.74 123.476ZM1734.85 771.871L1734.62 772.313C1733.14 771.542 1730.54 769.645 1727.14 766.94C1723.73 764.223 1719.48 760.66 1714.68 756.525C1705.09 748.255 1693.28 737.688 1681.57 727.008C1658.17 705.662 1635.12 683.819 1630.9 678.97L1631.28 678.647L1631.65 678.324C1635.82 683.116 1658.82 704.91 1682.24 726.277C1693.95 736.954 1705.75 747.514 1715.33 755.775C1720.13 759.905 1724.36 763.459 1727.76 766.164C1731.17 768.881 1733.69 770.712 1735.07 771.429L1734.85 771.871ZM1631.28 678.647L1630.9 678.97C1603.26 647.188 1582.43 609.241 1574.68 568.459L1575.18 568.374L1575.67 568.289C1583.37 608.861 1604.11 646.648 1631.65 678.324L1631.28 678.647ZM1575.18 568.374L1574.68 568.459C1566.94 527.677 1572.93 484.035 1594.86 448.696L1595.28 448.963L1595.71 449.231C1573.93 484.334 1567.96 527.718 1575.67 568.289L1575.18 568.374ZM1595.28 448.963L1594.86 448.696C1600.02 440.377 1606.03 432.535 1611.74 424.6C1617.47 416.654 1622.92 408.601 1627.01 399.813L1627.47 400.029L1627.92 400.245C1623.79 409.121 1618.29 417.236 1612.56 425.191C1606.82 433.157 1600.85 440.95 1595.71 449.231L1595.28 448.963ZM1627.47 400.029L1627.01 399.813C1633.51 385.865 1636.29 370.867 1637.7 355.488C1638.41 347.799 1638.78 340.021 1639.11 332.234C1639.44 324.451 1639.73 316.656 1640.28 308.949L1640.78 308.992L1641.28 309.036C1640.73 316.724 1640.44 324.501 1640.11 332.293C1639.78 340.08 1639.41 347.88 1638.7 355.596C1637.28 371.027 1634.49 386.152 1627.92 400.245L1627.47 400.029ZM1640.78 308.992L1640.28 308.949C1642.47 278.13 1651.13 244.333 1677.69 227.089L1677.97 227.508L1678.25 227.928C1652.1 244.903 1643.47 278.269 1641.28 309.036L1640.78 308.992ZM1677.97 227.508L1677.69 227.089C1683.52 223.304 1690.03 220.466 1696.26 217.426C1702.52 214.375 1708.53 211.111 1713.47 206.453L1713.82 206.819L1714.16 207.184C1709.11 211.95 1702.99 215.267 1696.72 218.324C1690.43 221.39 1684.01 224.186 1678.25 227.928L1677.97 227.508ZM1713.82 206.819L1713.47 206.453C1720.48 199.839 1724.57 191.196 1728.41 182.224C1732.23 173.281 1735.82 163.996 1741.84 156.282L1742.24 156.593L1742.64 156.903C1736.71 164.492 1733.18 173.63 1729.33 182.628C1725.49 191.599 1721.34 200.416 1714.16 207.184L1713.82 206.819ZM1742.24 156.593L1741.84 156.282C1747.48 149.061 1754.88 143.648 1762.61 138.603C1770.35 133.545 1778.39 128.871 1785.42 123.089L1785.74 123.476L1786.06 123.863C1778.98 129.691 1770.85 134.421 1763.17 139.441C1755.46 144.475 1748.17 149.815 1742.64 156.903L1742.24 156.593ZM1785.74 123.476L1785.42 123.089C1801.81 109.615 1812.45 89.779 1814.45 68.9659L1814.95 69.0217L1815.45 69.0775C1813.42 90.1558 1802.65 110.228 1786.06 123.863L1785.74 123.476Z" fill="#8FA589"/>
<path d="M1658.77 679.732L1658.4 680.057L1658.4 680.057L1658.77 679.732ZM1625.12 480.229L1625.56 480.484L1625.56 480.484L1625.12 480.229ZM1634.67 465.449L1635.08 465.743L1635.08 465.743L1634.67 465.449ZM1654.34 437L1654.78 437.241L1654.78 437.242L1654.34 437ZM1659.78 424.622L1659.3 424.45L1659.3 424.449L1659.78 424.622ZM1667.69 367.106L1667.19 367.074V367.074L1667.69 367.106ZM1668.27 356.375L1667.77 356.335L1667.77 356.335L1668.27 356.375ZM1678.3 309.727L1677.84 309.518L1677.84 309.518L1678.3 309.727ZM1699.87 282.598L1700.17 283.008L1700.17 283.008L1699.87 282.598ZM1731.3 263.222L1731.65 263.586L1731.65 263.587L1731.3 263.222ZM1758.22 219.428L1758.61 219.755L1758.61 219.755L1758.22 219.428ZM1774.19 206.315L1774.46 206.738L1774.46 206.738L1774.19 206.315ZM1798.04 191.507L1797.73 191.105L1797.73 191.104L1798.04 191.507ZM1788.97 792.169L1788.75 792.609C1787.45 791.929 1784.56 789.776 1780.52 786.568C1776.46 783.344 1771.2 779.018 1765.15 773.95C1753.05 763.814 1737.77 750.703 1722.57 737.496C1707.38 724.289 1692.26 710.984 1680.48 700.458C1674.6 695.195 1669.54 690.626 1665.73 687.111C1661.93 683.605 1659.34 681.126 1658.4 680.057L1658.77 679.732L1659.15 679.407C1660.04 680.426 1662.59 682.863 1666.4 686.383C1670.21 689.893 1675.26 694.458 1681.15 699.72C1692.92 710.242 1708.03 723.544 1723.22 736.749C1738.42 749.954 1753.69 763.06 1765.79 773.19C1771.84 778.256 1777.09 782.576 1781.14 785.791C1785.2 789.023 1788.01 791.103 1789.2 791.728L1788.97 792.169ZM1658.77 679.732L1658.4 680.057C1634.23 652.529 1615.94 619.627 1608.86 584.237L1609.35 584.147L1609.84 584.057C1616.88 619.24 1635.07 651.986 1659.15 679.407L1658.77 679.732ZM1609.35 584.147L1608.86 584.237C1601.77 548.844 1606.66 511.09 1624.69 479.975L1625.12 480.229L1625.56 480.484C1607.66 511.372 1602.79 548.878 1609.84 584.057L1609.35 584.147ZM1625.12 480.229L1624.69 479.975C1627.62 474.915 1630.81 469.976 1634.26 465.155L1634.67 465.449L1635.08 465.743C1631.65 470.54 1628.47 475.452 1625.56 480.484L1625.12 480.229ZM1634.67 465.449L1634.26 465.155C1641.1 455.595 1648.5 446.77 1653.9 436.758L1654.34 437L1654.78 437.242C1649.35 447.326 1641.86 456.265 1635.08 465.743L1634.67 465.449ZM1654.34 437L1653.9 436.759C1656.04 432.767 1657.82 428.668 1659.3 424.45L1659.78 424.622L1660.25 424.793C1658.75 429.057 1656.95 433.202 1654.78 437.241L1654.34 437ZM1659.78 424.622L1659.3 424.449C1665.57 406.671 1666.26 386.728 1667.19 367.074L1667.69 367.106L1668.19 367.137C1667.27 386.747 1666.58 406.851 1660.25 424.794L1659.78 424.622ZM1667.69 367.106L1667.19 367.074C1667.36 363.483 1667.54 359.902 1667.77 356.335L1668.27 356.375L1668.77 356.415C1668.54 359.973 1668.36 363.548 1668.19 367.137L1667.69 367.106ZM1668.27 356.375L1667.77 356.335C1668.79 340.523 1671.42 323.91 1677.84 309.518L1678.3 309.727L1678.76 309.936C1672.41 324.175 1669.79 340.654 1668.77 356.415L1668.27 356.375ZM1678.3 309.727L1677.84 309.518C1682.68 298.687 1689.69 289.133 1699.58 282.189L1699.87 282.598L1700.17 283.008C1690.45 289.831 1683.54 299.231 1678.76 309.936L1678.3 309.727ZM1699.87 282.598L1699.58 282.189C1704.64 278.635 1710.29 275.889 1715.75 272.999C1721.23 270.099 1726.52 267.046 1730.95 262.857L1731.3 263.222L1731.65 263.587C1727.11 267.873 1721.72 270.978 1716.23 273.882C1710.73 276.796 1705.16 279.5 1700.17 283.008L1699.87 282.598ZM1731.3 263.222L1730.95 262.857C1737.24 256.908 1741.15 249.318 1744.89 241.513C1748.62 233.732 1752.2 225.724 1757.84 219.102L1758.22 219.428L1758.61 219.755C1753.07 226.258 1749.55 234.129 1745.79 241.955C1742.05 249.756 1738.08 257.5 1731.65 263.586L1731.3 263.222ZM1758.22 219.428L1757.84 219.102C1762.36 213.79 1767.97 209.636 1773.92 205.892L1774.19 206.315L1774.46 206.738C1768.55 210.461 1763.03 214.552 1758.61 219.755L1758.22 219.428ZM1774.19 206.315L1773.92 205.892C1777.87 203.398 1781.99 201.067 1786.03 198.684C1790.07 196.296 1794.04 193.849 1797.73 191.105L1798.04 191.507L1798.34 191.908C1794.61 194.684 1790.6 197.153 1786.55 199.545C1782.49 201.941 1778.4 204.254 1774.46 206.738L1774.19 206.315ZM1798.04 191.507L1797.73 191.104C1812.84 179.901 1823.13 163.359 1825.89 145.161L1826.38 145.243L1826.88 145.325C1824.08 163.795 1813.64 180.56 1798.34 191.909L1798.04 191.507Z" fill="#8FA589"/>
<path d="M1686.4 680.797L1686.77 680.469L1686.77 680.469L1686.4 680.797ZM1643.59 599.906L1644.08 599.81V599.81L1643.59 599.906ZM1655.05 511.488L1655.49 511.726V511.726L1655.05 511.488ZM1662.98 498.184L1663.39 498.474L1663.39 498.474L1662.98 498.184ZM1681.33 473.966L1681.75 474.239L1681.75 474.239L1681.33 473.966ZM1686.82 463.612L1686.36 463.41L1686.36 463.408L1686.82 463.612ZM1695.41 413.27L1695.91 413.301L1695.91 413.302L1695.41 413.27ZM1695.88 403.756L1695.38 403.72L1695.38 403.72L1695.88 403.756ZM1703.83 362.286L1703.36 362.091L1703.36 362.09L1703.83 362.286ZM1721.93 337.69L1722.24 338.086L1722.24 338.086L1721.93 337.69ZM1748.96 319.626L1749.31 319.99L1749.31 319.99L1748.96 319.626ZM1774.41 282.266L1774.77 282.613L1774.77 282.613L1774.41 282.266ZM1788.99 271.425L1789.24 271.859L1789.24 271.86L1788.99 271.425ZM1810.57 259.54L1810.29 259.121L1810.3 259.12L1810.57 259.54ZM1806.28 778.901L1806.05 779.34C1804.95 778.753 1802.35 776.877 1798.67 774.077C1794.97 771.263 1790.14 767.483 1784.57 763.053C1773.43 754.194 1759.29 742.732 1745.22 731.19C1731.16 719.649 1717.16 708.027 1706.28 698.848C1700.84 694.259 1696.18 690.28 1692.68 687.227C1689.2 684.185 1686.84 682.037 1686.03 681.125L1686.4 680.797L1686.77 680.469C1687.53 681.321 1689.83 683.421 1693.34 686.481C1696.83 689.528 1701.48 693.503 1706.92 698.091C1717.79 707.265 1731.79 718.884 1745.85 730.424C1759.92 741.963 1774.05 753.422 1785.19 762.277C1790.76 766.705 1795.58 770.48 1799.27 773.287C1802.98 776.109 1805.5 777.923 1806.51 778.462L1806.28 778.901ZM1686.4 680.797L1686.03 681.125C1665.29 657.854 1649.54 629.998 1643.1 600.003L1643.59 599.906L1644.08 599.81C1650.48 629.602 1666.13 657.304 1686.77 680.469L1686.4 680.797ZM1643.59 599.906L1643.1 600.003C1636.67 570.004 1640.44 538.1 1654.61 511.25L1655.05 511.488L1655.49 511.726C1641.44 538.36 1637.69 570.026 1644.08 599.81L1643.59 599.906ZM1655.05 511.488L1654.61 511.25C1657 506.719 1659.55 502.212 1662.57 497.894L1662.98 498.184L1663.39 498.474C1660.41 502.743 1657.88 507.21 1655.49 511.726L1655.05 511.488ZM1662.98 498.184L1662.57 497.894C1665.55 493.625 1668.81 489.649 1671.98 485.71C1675.16 481.765 1678.25 477.856 1680.91 473.693L1681.33 473.966L1681.75 474.239C1679.06 478.451 1675.95 482.398 1672.77 486.342C1669.59 490.293 1666.35 494.238 1663.39 498.474L1662.98 498.184ZM1681.33 473.966L1680.91 473.693C1683.02 470.383 1684.83 466.967 1686.36 463.41L1686.82 463.612L1687.28 463.815C1685.73 467.422 1683.9 470.884 1681.75 474.239L1681.33 473.966ZM1686.82 463.612L1686.36 463.408C1692.88 448.392 1694.07 430.646 1694.91 413.238L1695.41 413.27L1695.91 413.302C1695.07 430.688 1693.88 448.612 1687.28 463.817L1686.82 463.612ZM1695.41 413.27L1694.91 413.238C1695.06 410.057 1695.21 406.881 1695.38 403.72L1695.88 403.756L1696.38 403.792C1696.21 406.948 1696.06 410.119 1695.91 413.301L1695.41 413.27ZM1695.88 403.756L1695.38 403.72C1696.18 389.689 1698.09 374.998 1703.36 362.091L1703.83 362.286L1704.29 362.48C1699.08 375.236 1697.18 389.797 1696.38 403.792L1695.88 403.756ZM1703.83 362.286L1703.36 362.09C1707.34 352.404 1713.24 343.767 1721.62 337.293L1721.93 337.69L1722.24 338.086C1714.02 344.436 1708.21 352.921 1704.29 362.481L1703.83 362.286ZM1721.93 337.69L1721.62 337.294C1725.91 333.971 1730.72 331.317 1735.4 328.576C1740.1 325.827 1744.69 322.984 1748.62 319.261L1748.96 319.626L1749.31 319.99C1745.3 323.796 1740.62 326.688 1735.92 329.439C1731.2 332.199 1726.47 334.813 1722.24 338.086L1721.93 337.69ZM1748.96 319.626L1748.62 319.261C1754.19 313.976 1757.92 307.437 1761.57 300.797C1765.21 294.178 1768.78 287.449 1774.04 281.92L1774.41 282.266L1774.77 282.613C1769.62 288.031 1766.11 294.637 1762.45 301.288C1758.8 307.919 1755.01 314.586 1749.31 319.99L1748.96 319.626ZM1774.41 282.266L1774.04 281.92C1778.25 277.486 1783.36 274.041 1788.74 270.99L1788.99 271.425L1789.24 271.86C1783.9 274.889 1778.89 278.279 1774.77 282.613L1774.41 282.266ZM1788.99 271.425L1788.74 270.991C1792.31 268.959 1796.02 267.082 1799.67 265.173C1803.33 263.26 1806.93 261.311 1810.29 259.121L1810.57 259.54L1810.85 259.96C1807.44 262.176 1803.81 264.143 1800.15 266.058C1796.48 267.977 1792.8 269.839 1789.24 271.859L1788.99 271.425ZM1810.57 259.54L1810.3 259.12C1824.14 250.182 1834.09 236.932 1837.59 221.353L1838.08 221.47L1838.57 221.586C1835.01 237.444 1824.88 250.9 1810.85 259.96L1810.57 259.54Z" fill="#8FA589"/>
<path d="M1714.01 681.866L1714.37 681.534L1714.37 681.534L1714.01 681.866ZM1677.83 615.669L1678.32 615.563V615.563L1677.83 615.669ZM1684.96 542.751L1684.5 542.536V542.536L1684.96 542.751ZM1691.27 530.923L1691.68 531.208L1691.68 531.208L1691.27 530.923ZM1708.3 510.934L1707.9 510.621L1707.9 510.621L1708.3 510.934ZM1713.84 502.607L1714.28 502.852L1714.28 502.852L1713.84 502.607ZM1723.11 459.437L1722.61 459.404L1722.61 459.404L1723.11 459.437ZM1723.48 451.141L1723.98 451.172L1723.98 451.172L1723.48 451.141ZM1729.34 414.848L1728.86 414.672L1728.87 414.671L1729.34 414.848ZM1743.97 392.784L1744.31 393.161L1744.31 393.162L1743.97 392.784ZM1766.6 376.033L1766.95 376.396L1766.95 376.397L1766.6 376.033ZM1790.57 345.107L1790.92 345.478L1790.92 345.478L1790.57 345.107ZM1803.77 336.536L1804 336.984L1804 336.984L1803.77 336.536ZM1823.08 327.575L1822.84 327.134L1822.84 327.134L1823.08 327.575ZM1824.52 768.732L1824.28 769.169C1823.38 768.676 1821.05 767.027 1817.71 764.551C1814.34 762.061 1809.91 758.706 1804.77 754.77C1794.5 746.898 1781.39 736.696 1768.33 726.433C1755.28 716.17 1742.27 705.845 1732.2 697.724C1727.17 693.664 1722.87 690.154 1719.66 687.478C1716.47 684.816 1714.32 682.951 1713.64 682.198L1714.01 681.866L1714.37 681.534C1715 682.222 1717.07 684.033 1720.29 686.717C1723.49 689.388 1727.79 692.894 1732.82 696.953C1742.89 705.069 1755.89 715.392 1768.94 725.654C1782 735.915 1795.1 746.114 1805.38 753.982C1810.51 757.917 1814.94 761.268 1818.3 763.753C1821.67 766.25 1823.93 767.845 1824.75 768.296L1824.52 768.732ZM1714.01 681.866L1713.64 682.198C1696.34 663.183 1683.13 640.374 1677.34 615.776L1677.83 615.669L1678.32 615.563C1684.06 639.966 1697.18 662.625 1714.37 681.534L1714.01 681.866ZM1677.83 615.669L1677.34 615.776C1671.55 591.17 1674.13 565.064 1684.5 542.536L1684.96 542.751L1685.42 542.965C1675.14 565.292 1672.58 591.172 1678.32 615.563L1677.83 615.669ZM1684.96 542.751L1684.5 542.536C1686.35 538.53 1688.26 534.452 1690.85 530.639L1691.27 530.923L1691.68 531.208C1689.15 534.946 1687.26 538.954 1685.42 542.965L1684.96 542.751ZM1691.27 530.923L1690.85 530.639C1693.41 526.863 1696.37 523.518 1699.33 520.291C1702.3 517.057 1705.27 513.952 1707.9 510.621L1708.3 510.934L1708.69 511.247C1706.03 514.614 1703.02 517.758 1700.07 520.972C1697.11 524.193 1694.2 527.494 1691.68 531.208L1691.27 530.923ZM1708.3 510.934L1707.9 510.621C1709.98 507.992 1711.81 505.256 1713.4 502.362L1713.84 502.607L1714.28 502.852C1712.67 505.796 1710.81 508.577 1708.69 511.247L1708.3 510.934ZM1713.84 502.607L1713.4 502.362C1720.13 490.088 1721.87 474.563 1722.61 459.404L1723.11 459.437L1723.61 459.469C1722.87 474.633 1721.13 490.363 1714.28 502.852L1713.84 502.607ZM1723.11 459.437L1722.61 459.404C1722.74 456.63 1722.86 453.87 1722.98 451.109L1723.48 451.141L1723.98 451.172C1723.86 453.922 1723.74 456.696 1723.61 459.469L1723.11 459.437ZM1723.48 451.141L1722.98 451.11C1723.55 438.86 1724.74 426.092 1728.86 414.672L1729.34 414.848L1729.81 415.024C1725.73 426.297 1724.55 438.938 1723.98 451.172L1723.48 451.141ZM1729.34 414.848L1728.87 414.671C1731.97 406.126 1736.78 398.411 1743.64 392.407L1743.97 392.784L1744.31 393.162C1737.59 399.04 1732.87 406.607 1729.81 415.025L1729.34 414.848ZM1743.97 392.784L1743.64 392.408C1747.15 389.316 1751.11 386.753 1755.03 384.16C1758.95 381.56 1762.83 378.926 1766.26 375.669L1766.6 376.033L1766.95 376.397C1763.46 379.72 1759.51 382.396 1755.59 384.994C1751.66 387.6 1747.76 390.122 1744.31 393.161L1743.97 392.784ZM1766.6 376.033L1766.26 375.669C1771.12 371.044 1774.67 365.555 1778.23 360.079C1781.79 354.62 1785.35 349.17 1790.23 344.736L1790.57 345.107L1790.92 345.478C1786.14 349.815 1782.64 355.157 1779.08 360.632C1775.52 366.091 1771.91 371.679 1766.95 376.396L1766.6 376.033ZM1790.57 345.107L1790.23 344.736C1794.14 341.183 1798.74 338.445 1803.54 336.087L1803.77 336.536L1804 336.984C1799.23 339.321 1794.72 342.011 1790.92 345.478L1790.57 345.107ZM1803.77 336.536L1803.54 336.087C1806.73 334.518 1810.04 333.092 1813.3 331.655C1816.56 330.215 1819.79 328.764 1822.84 327.134L1823.08 327.575L1823.33 328.016C1820.24 329.664 1816.98 331.129 1813.72 332.569C1810.45 334.01 1807.17 335.426 1804 336.984L1803.77 336.536ZM1823.08 327.575L1822.84 327.134C1835.41 320.43 1845.04 310.494 1849.27 297.535L1849.75 297.696L1850.23 297.858C1845.89 311.109 1836.07 321.221 1823.33 328.016L1823.08 327.575Z" fill="#8FA589"/>
<path d="M1741.58 682.937L1741.22 683.275L1741.22 683.275L1741.58 682.937ZM1712.04 631.433L1711.56 631.554L1711.56 631.554L1712.04 631.433ZM1714.85 574.011L1715.32 574.189L1715.32 574.19L1714.85 574.011ZM1719.53 563.661L1719.95 563.937L1719.95 563.937L1719.53 563.661ZM1735.24 547.9L1735.59 548.263L1735.59 548.263L1735.24 547.9ZM1740.83 541.599L1741.24 541.897L1741.24 541.898L1740.83 541.599ZM1750.78 505.601L1751.28 505.634L1751.28 505.634L1750.78 505.601ZM1751.06 498.522L1751.56 498.546L1751.56 498.546L1751.06 498.522ZM1754.81 467.409L1754.33 467.259L1754.33 467.258L1754.81 467.409ZM1765.98 447.877L1766.34 448.225L1766.34 448.226L1765.98 447.877ZM1784.2 432.439L1784.55 432.802L1784.55 432.802L1784.2 432.439ZM1806.69 407.946L1807 408.348L1807 408.348L1806.69 407.946ZM1818.5 401.647L1818.69 402.111L1818.69 402.111L1818.5 401.647ZM1835.54 395.61L1835.73 396.074L1835.73 396.074L1835.54 395.61ZM1849.19 765.641L1848.95 766.074C1848.24 765.673 1846.09 764.14 1842.9 761.794C1839.69 759.436 1835.41 756.23 1830.4 752.455C1820.38 744.907 1807.49 735.082 1794.64 725.214C1781.79 715.345 1768.97 705.432 1759.1 697.706C1754.17 693.844 1749.97 690.527 1746.88 688.035C1745.33 686.79 1744.06 685.749 1743.1 684.949C1742.16 684.157 1741.51 683.581 1741.22 683.275L1741.58 682.937L1741.95 682.6C1742.18 682.852 1742.79 683.387 1743.74 684.19C1744.69 684.983 1745.96 686.019 1747.5 687.263C1750.59 689.75 1754.78 693.064 1759.71 696.925C1769.58 704.649 1782.39 714.56 1795.24 724.427C1808.09 734.294 1820.98 744.117 1830.99 751.663C1836 755.436 1840.29 758.639 1843.49 760.994C1846.7 763.362 1848.79 764.846 1849.43 765.208L1849.19 765.641ZM1741.58 682.937L1741.22 683.275C1727.37 668.517 1716.7 650.755 1711.56 631.554L1712.04 631.433L1712.53 631.312C1717.62 650.328 1728.2 667.945 1741.95 682.6L1741.58 682.937ZM1712.04 631.433L1711.56 631.554C1706.42 612.343 1707.71 591.959 1714.38 573.832L1714.85 574.011L1715.32 574.19C1708.72 592.137 1707.44 612.311 1712.53 631.312L1712.04 631.433ZM1714.85 574.011L1714.38 573.832C1715.66 570.338 1716.95 566.699 1719.11 563.384L1719.53 563.661L1719.95 563.937C1717.87 567.142 1716.61 570.669 1715.32 574.189L1714.85 574.011ZM1719.53 563.661L1719.11 563.384C1721.25 560.096 1723.9 557.378 1726.65 554.863C1729.44 552.321 1732.26 550.053 1734.89 547.537L1735.24 547.9L1735.59 548.263C1732.97 550.765 1730.04 553.139 1727.34 555.604C1724.61 558.096 1722.03 560.749 1719.95 563.937L1719.53 563.661ZM1735.24 547.9L1734.89 547.537C1736.94 545.582 1738.79 543.53 1740.43 541.3L1740.83 541.599L1741.24 541.898C1739.57 544.181 1737.67 546.275 1735.59 548.263L1735.24 547.9ZM1740.83 541.599L1740.43 541.3C1747.39 531.786 1749.63 518.477 1750.28 505.568L1750.78 505.601L1751.28 505.634C1750.63 518.579 1748.38 532.138 1741.24 541.897L1740.83 541.599ZM1750.78 505.601L1750.28 505.568C1750.4 503.209 1750.48 500.85 1750.56 498.497L1751.06 498.522L1751.56 498.546C1751.48 500.9 1751.4 503.266 1751.28 505.634L1750.78 505.601ZM1751.06 498.522L1750.56 498.498C1750.89 488.036 1751.36 477.187 1754.33 467.259L1754.81 467.409L1755.29 467.559C1752.36 477.346 1751.89 488.071 1751.56 498.546L1751.06 498.522ZM1754.81 467.409L1754.33 467.258C1756.57 459.857 1760.27 453.063 1765.61 447.528L1765.98 447.877L1766.34 448.226C1761.12 453.634 1757.49 460.286 1755.29 467.56L1754.81 467.409ZM1765.98 447.877L1765.61 447.529C1768.36 444.668 1771.47 442.197 1774.6 439.751C1777.75 437.298 1780.93 434.871 1783.85 432.076L1784.2 432.439L1784.55 432.802C1781.58 435.638 1778.36 438.098 1775.23 440.541C1772.09 442.989 1769.03 445.421 1766.34 448.225L1765.98 447.877ZM1784.2 432.439L1783.85 432.076C1788.01 428.105 1791.38 423.664 1794.86 419.35C1798.33 415.048 1801.89 410.881 1806.39 407.544L1806.69 407.946L1807 408.348C1802.61 411.605 1799.11 415.686 1795.65 419.983C1792.19 424.267 1788.76 428.775 1784.55 432.802L1784.2 432.439ZM1806.69 407.946L1806.39 407.544C1809.98 404.873 1814.07 402.846 1818.31 401.182L1818.5 401.647L1818.69 402.111C1814.5 403.756 1810.5 405.746 1807 408.348L1806.69 407.946ZM1818.5 401.647L1818.31 401.182C1821.12 400.076 1824.02 399.103 1826.89 398.139C1829.77 397.175 1832.62 396.22 1835.35 395.145L1835.54 395.61L1835.73 396.074C1832.97 397.16 1830.09 398.123 1827.22 399.086C1824.35 400.051 1821.47 401.016 1818.69 402.111L1818.5 401.647ZM1835.54 395.61L1835.35 395.145C1846.67 390.696 1855.94 384.041 1860.91 373.701L1861.36 373.923L1861.82 374.145C1856.7 384.786 1847.19 391.573 1835.73 396.074L1835.54 395.61Z" fill="#8FA589"/>
<path d="M1769.21 684.001L1769.56 683.653L1769.56 683.653L1769.21 684.001ZM1746.29 647.194L1746.76 647.047L1746.76 647.047L1746.29 647.194ZM1744.75 605.272L1745.24 605.392L1745.24 605.393L1744.75 605.272ZM1747.81 596.399L1748.24 596.665L1748.24 596.665L1747.81 596.399ZM1762.22 584.867L1762.49 585.289L1762.49 585.289L1762.22 584.867ZM1767.87 580.593L1768.21 580.959L1768.21 580.959L1767.87 580.593ZM1778.5 551.766L1778 551.732L1778 551.732L1778.5 551.766ZM1778.68 545.903L1779.18 545.918L1779.18 545.918L1778.68 545.903ZM1780.34 519.969L1779.85 519.856L1779.85 519.855L1780.34 519.969ZM1788.03 502.971L1788.44 503.274L1788.43 503.275L1788.03 502.971ZM1801.86 488.846L1801.51 488.484L1801.51 488.484L1801.86 488.846ZM1822.9 470.787L1823.14 471.226L1823.14 471.226L1822.9 470.787ZM1833.33 466.759L1833.47 467.241L1833.47 467.241L1833.33 466.759ZM1848.12 463.645L1848 463.157L1848 463.157L1848.12 463.645ZM1851.63 746.193L1851.38 746.619C1850.87 746.313 1849.24 745.155 1846.82 743.384C1844.38 741.604 1841.1 739.185 1837.27 736.339C1829.61 730.646 1819.72 723.242 1809.85 715.812C1799.99 708.381 1790.14 700.924 1782.57 695.125C1778.78 692.226 1775.56 689.74 1773.19 687.88C1770.83 686.034 1769.27 684.775 1768.85 684.349L1769.21 684.001L1769.56 683.653C1769.92 684.021 1771.41 685.228 1773.8 687.1C1776.17 688.956 1779.38 691.439 1783.17 694.337C1790.74 700.134 1800.58 707.589 1810.45 715.019C1820.31 722.449 1830.2 729.851 1837.86 735.542C1841.69 738.388 1844.96 740.804 1847.4 742.582C1849.85 744.37 1851.43 745.491 1851.89 745.767L1851.63 746.193ZM1769.21 684.001L1768.85 684.349C1758.44 673.85 1750.3 661.136 1745.81 647.34L1746.29 647.194L1746.76 647.047C1751.2 660.677 1759.25 673.256 1769.56 683.653L1769.21 684.001ZM1746.29 647.194L1745.81 647.34C1741.31 633.533 1741.1 618.785 1744.26 605.152L1744.75 605.272L1745.24 605.393C1742.12 618.868 1742.33 633.431 1746.76 647.047L1746.29 647.194ZM1744.75 605.272L1744.26 605.152C1744.96 602.15 1745.65 598.956 1747.38 596.134L1747.81 596.399L1748.24 596.665C1746.61 599.326 1745.95 602.352 1745.24 605.392L1744.75 605.272ZM1747.81 596.399L1747.38 596.134C1749.11 593.325 1751.46 591.229 1754.02 589.425C1756.55 587.636 1759.37 586.085 1761.94 584.446L1762.22 584.867L1762.49 585.289C1759.84 586.981 1757.13 588.464 1754.61 590.243C1752.11 592.007 1749.87 594.012 1748.24 596.665L1747.81 596.399ZM1762.22 584.867L1761.94 584.446C1763.96 583.161 1765.85 581.796 1767.52 580.227L1767.87 580.593L1768.21 580.959C1766.48 582.585 1764.54 583.986 1762.49 585.289L1762.22 584.867ZM1767.87 580.593L1767.52 580.227C1774.72 573.475 1777.45 562.387 1778 551.732L1778.5 551.766L1779 551.801C1778.44 562.531 1775.69 573.942 1768.21 580.959L1767.87 580.593ZM1778.5 551.766L1778 551.732C1778.11 549.786 1778.15 547.837 1778.18 545.888L1778.68 545.903L1779.18 545.918C1779.15 547.874 1779.11 549.837 1779 551.801L1778.5 551.766ZM1778.68 545.903L1778.18 545.889C1778.28 537.223 1778.03 528.291 1779.85 519.856L1780.34 519.969L1780.83 520.082C1779.04 528.393 1779.29 537.189 1779.18 545.918L1778.68 545.903ZM1780.34 519.969L1779.85 519.855C1781.22 513.596 1783.82 507.727 1787.63 502.667L1788.03 502.971L1788.43 503.275C1784.71 508.215 1782.17 513.953 1780.83 520.083L1780.34 519.969ZM1788.03 502.971L1787.63 502.668C1791.56 497.429 1796.67 493.138 1801.51 488.484L1801.86 488.846L1802.22 489.208C1797.31 493.925 1792.3 498.119 1788.44 503.274L1788.03 502.971ZM1801.86 488.846L1801.51 488.484C1808.39 481.878 1814.45 474.805 1822.65 470.348L1822.9 470.787L1823.14 471.226C1815.09 475.6 1809.18 482.512 1802.22 489.208L1801.86 488.846ZM1822.9 470.787L1822.65 470.348C1825.93 468.562 1829.51 467.245 1833.2 466.276L1833.33 466.759L1833.47 467.241C1829.84 468.194 1826.34 469.485 1823.14 471.226L1822.9 470.787ZM1833.33 466.759L1833.2 466.276C1838.03 464.996 1843.19 464.198 1848 463.157L1848.12 463.645L1848.23 464.133C1843.33 465.194 1838.28 465.966 1833.47 467.241L1833.33 466.759ZM1848.12 463.645L1848 463.157C1858.11 460.972 1867.02 457.576 1872.72 449.85L1873.12 450.15L1873.53 450.45C1867.62 458.475 1858.39 461.935 1848.23 464.133L1848.12 463.645Z" fill="#8FA589"/>
<path d="M1269.59 776.698C1243.61 761.184 1215.39 742.793 1208.35 714.291C1202.59 690.966 1212.81 666.744 1210.46 642.91C1208.2 620.013 1194.64 599.542 1188.5 577.271C1179.94 546.18 1186.47 512.554 1201.83 484.211C1228.17 435.584 1281.04 401.3 1338.06 395.862C1358.36 393.927 1379.28 395.362 1398.74 389.652C1413.34 385.371 1426.31 377.29 1440.18 371.21C1466.12 359.828 1495.47 355.553 1523.92 359.009C1531.84 359.97 1539.98 361.637 1546.41 366.211C1558.2 374.582 1561.2 390.729 1558.17 404.393C1555.13 418.057 1547.3 430.159 1540.95 442.702C1515.38 493.252 1513.75 552.403 1522.53 608.274C1525.26 625.618 1529 643.043 1536.9 658.907C1547.56 680.287 1565.15 697.677 1582.44 714.645C1589.89 721.964 1593.52 731.656 1592.74 741.803C1591.96 751.95 1587.04 761.354 1581.21 769.802C1558.49 802.69 1519.85 824.905 1478.76 828.707C1461.89 830.268 1444.84 828.883 1428 826.748C1374.18 819.932 1315.83 804.311 1269.59 776.698Z" stroke="#8FA589" stroke-miterlimit="10"/>
<path d="M1503.57 644.445C1511.34 661.757 1524.12 676.529 1536.96 690.894C1542.47 697.05 1545.14 704.959 1544.49 713.226C1543.84 721.512 1540.07 729.241 1535.59 736.238C1518.11 763.724 1488.29 782.965 1455.23 787.217C1441.73 788.914 1427.9 788.236 1413.98 786.779C1371.75 780.731 1325.81 768.738 1289.35 746.942C1268.73 734.609 1246.65 719.786 1240.8 697.231C1236.01 678.77 1243.41 659.542 1241.68 640.603C1240.04 621.88 1230.44 605.119 1226.59 587.051C1221.19 561.885 1227.44 534.894 1239.77 511.694C1260.36 473.198 1300.3 445.177 1344.48 439.411C1360.2 437.368 1376.4 437.974 1391.5 433.329C1402.9 429.782 1413.1 423.48 1423.95 418.76C1444.43 409.872 1467.41 406.724 1489.65 409.673C1495.83 410.494 1502.18 411.864 1507.24 415.437C1516.49 421.966 1519.13 434.389 1517.21 444.999C1515.28 455.591 1509.72 465.054 1505.25 474.884C1487.15 514.388 1486.56 560.817 1493.07 604.669C1495.09 618.296 1497.94 631.917 1503.57 644.445Z" stroke="#8FA589" stroke-miterlimit="10"/>
<path d="M1470.22 629.983C1475.1 643.265 1483.07 655.36 1491.48 667.14C1495.04 672.125 1496.77 678.259 1496.24 684.646C1495.71 691.074 1493.07 697.116 1489.97 702.674C1477.65 724.718 1456.74 741.105 1431.68 745.726C1421.57 747.593 1410.95 747.588 1399.95 746.807C1369.3 741.531 1335.77 733.164 1309.09 717.186C1293.81 708.034 1277.88 696.779 1273.21 680.171C1269.38 666.577 1273.93 652.342 1272.88 638.295C1271.78 623.75 1266.21 610.698 1264.65 596.832C1262.41 577.591 1268.31 557.204 1277.67 539.178C1292.42 510.761 1319.53 489.057 1350.89 482.959C1362.03 480.809 1373.51 480.626 1384.23 477.007C1392.47 474.225 1399.87 469.668 1407.71 466.309C1422.72 459.912 1439.35 457.893 1455.36 460.337C1459.82 461.016 1464.37 462.093 1468.06 464.665C1474.77 469.35 1477.07 478.05 1476.25 485.605C1475.44 493.125 1472.16 499.958 1469.53 507.065C1459 535.555 1459.36 569.228 1463.61 601.063C1464.93 610.972 1466.86 620.815 1470.22 629.983Z" stroke="#8FA589" stroke-miterlimit="10"/>
<path d="M1436.87 615.518C1438.78 624.847 1442.05 634.149 1446 643.383C1447.62 647.179 1448.39 651.556 1447.99 656.065C1447.58 660.632 1446.09 664.999 1444.34 669.106C1437.26 685.755 1425.17 699.166 1408.13 704.233C1401.39 706.237 1393.99 706.935 1385.91 706.833C1366.85 702.326 1345.71 697.588 1328.81 687.427C1318.89 681.454 1309.1 673.769 1305.61 663.108C1302.75 654.382 1304.49 645.136 1304.06 635.988C1303.57 625.616 1302 616.276 1302.7 606.612C1303.66 593.297 1309.22 579.539 1315.56 566.661C1324.55 548.374 1338.75 532.935 1357.28 526.508C1363.85 524.248 1370.61 523.245 1376.96 520.684C1382.02 518.642 1386.64 515.858 1391.47 513.86C1401 509.956 1411.28 509.065 1421.08 511.002C1423.81 511.539 1426.57 512.321 1428.88 513.89C1433.05 516.733 1435 521.704 1435.29 526.209C1435.59 530.653 1434.58 534.85 1433.82 539.243C1430.78 556.673 1432.14 577.639 1434.13 597.454C1434.75 603.646 1435.69 609.766 1436.87 615.518Z" stroke="#8FA589" stroke-miterlimit="10"/>
<path d="M1371.93 666.857C1364.43 663.121 1355.69 662.01 1348.55 657.668C1340.21 652.594 1334.96 643.121 1335.24 633.681C1335.68 619.091 1347.81 607.661 1353.43 594.151C1356.8 586.047 1357.98 576.822 1363.7 570.067C1386.26 543.447 1410.36 578.298 1403.6 601.057C1397 623.293 1405.35 663.147 1371.93 666.857Z" stroke="#8FA589" stroke-miterlimit="10"/>
<path d="M1578.9 130.578C1565.91 122.04 1550.36 117.868 1536.77 110.244C1523.18 102.621 1510.87 89.4603 1512.1 74.5248C1512.44 70.3776 1513.82 66.1865 1512.79 62.1303C1511.02 55.1674 1502.99 51.4414 1495.64 50.0578C1477.44 46.6324 1458.88 51.5659 1440.39 52.3558C1421.91 53.1456 1400.49 47.8124 1392.53 31.7579C1389.06 24.7464 1388.44 16.1842 1382.7 10.6859C1372.19 0.617533 1353.92 8.63016 1344.58 19.5194C1331.3 34.9957 1325.03 54.9136 1313.41 71.5716C1297.09 94.9647 1271.2 110.646 1252.47 132.315C1231.12 157.015 1219.79 189.468 1221.28 221.652C1222.77 253.837 1237.08 285.453 1260.65 308.684C1275.72 323.533 1294.15 334.836 1312.83 345.258C1319.49 348.976 1326.51 352.689 1334.17 353.211C1340.94 353.672 1347.56 351.594 1353.92 349.398C1373.13 342.758 1391.81 334.771 1409.78 325.52C1419.97 320.271 1430.14 314.54 1441.49 312.234C1453.32 309.832 1465.61 311.311 1477.68 312.388C1510.78 315.34 1547.12 314.238 1572.64 294.178C1616.62 259.609 1631.58 165.212 1578.9 130.578Z" stroke="#8FA589" stroke-miterlimit="10"/>
<path d="M1525.64 263.273C1559.84 239.728 1571.51 172.253 1535.64 144.789C1526.85 138.058 1516.2 134.292 1506.79 128.267C1497.35 122.181 1488.69 112.476 1488.93 101.72C1489 98.7156 1489.78 95.6802 1488.87 92.7748C1487.17 87.3922 1481 84.3251 1475.28 82.914C1463.64 80.0389 1451.51 81.4343 1439.38 82.5981C1436.72 82.8511 1434.11 83.0807 1431.53 83.259C1416.28 84.3183 1401.12 82.6589 1394.75 73.986C1391.93 70.1498 1390.83 65.5875 1386.52 62.457C1378.67 56.7452 1366.52 61.9254 1359.81 69.5252C1350.27 80.3308 1345.31 94.0024 1336.76 105.449C1331.1 113.029 1324.01 119.445 1316.68 125.666C1308.46 132.64 1299.91 139.383 1292.71 147.26C1277.17 164.254 1268.6 186.521 1268.42 208.928C1268.23 231.789 1276.91 255.195 1293.84 272.275C1304.83 283.425 1318.9 291.393 1332.96 298.237C1337.95 300.681 1343.16 303.07 1348.8 303.308C1353.78 303.518 1358.66 302.017 1363.37 300.438C1369.06 298.524 1374.7 296.465 1380.28 294.295C1388.63 291.049 1396.85 287.559 1404.89 283.813C1412.51 280.268 1420.11 276.443 1428.5 274.93C1437.25 273.354 1446.3 274.39 1455.22 275.167C1479.66 277.299 1506.18 276.669 1525.64 263.273Z" stroke="#8FA589" stroke-miterlimit="10"/>
<path d="M1478.63 232.369C1503.18 219.905 1511.43 179.356 1492.39 159.001C1487.79 154.092 1482.03 150.744 1476.82 146.291C1471.52 141.765 1466.52 135.488 1465.78 128.918C1465.57 127.054 1465.73 125.179 1464.96 123.423C1463.29 119.617 1459.01 117.213 1454.94 115.774C1446.63 112.84 1437.57 112.796 1428.54 113.586C1426.5 113.763 1424.55 113.955 1422.68 114.166C1410.66 115.527 1401.89 117.639 1396.97 116.215C1394.87 115.608 1393.69 114.351 1390.35 114.228C1386.09 111.774 1379.12 115.22 1375.04 119.53C1369.24 125.665 1365.6 133.089 1360.13 139.325C1356.5 143.453 1352.15 146.968 1347.68 150.372C1342.66 154.193 1337.46 157.897 1332.96 162.203C1323.24 171.489 1317.36 183.611 1315.56 196.204C1313.63 209.791 1316.79 224.91 1327.03 235.868C1333.97 243.296 1343.66 247.923 1353.09 251.218C1356.41 252.376 1359.81 253.452 1363.44 253.407C1366.63 253.367 1369.77 252.445 1372.82 251.478C1376.52 250.311 1380.18 249.068 1383.83 247.817C1389.29 245.944 1394.69 244.052 1400.01 242.108C1405.05 240.265 1410.08 238.351 1415.52 237.629C1421.19 236.876 1427.01 237.471 1432.77 237.95C1448.54 239.258 1465.31 239.141 1478.63 232.369Z" stroke="#8FA589" stroke-miterlimit="10"/>
<path d="M1431.63 201.456C1416.91 202.322 1401.91 198.519 1387.48 201.34C1382.77 202.263 1378.18 203.887 1373.37 204.2C1368.56 204.513 1363.22 203.21 1360.39 199.459C1356.78 194.68 1358.67 187.675 1362.91 183.472C1367.16 179.27 1373.13 177.163 1378.85 175.054C1384.56 172.945 1390.47 170.529 1394.28 165.961C1402.7 155.84 1401.66 145.672 1417.76 144.542C1426.62 143.921 1435.55 147.526 1441.1 154.04C1452.67 167.629 1454.9 200.086 1431.63 201.456Z" stroke="#8FA589" stroke-miterlimit="10"/>
<path d="M1200.69 408.366C1185.52 421.354 1169.23 433.137 1152.04 443.56C1145.3 447.644 1138.16 451.61 1130.21 452.468C1111.58 454.48 1096.02 439.475 1083.69 425.773C1062.82 402.585 1041.95 379.395 1021.09 356.207C1010.08 343.973 998.697 331.057 994.927 315.348C991.039 299.14 995.502 280.867 986.516 266.6C982.71 260.559 976.85 255.953 972.566 250.211C957.765 230.364 965.057 202.83 975.899 180.992C980.382 171.959 986.87 162.126 997.246 160.885C1008.48 159.544 1018 169.142 1023.15 178.878C1028.29 188.614 1031.54 199.769 1039.99 207.095C1055.98 220.963 1080.71 214.326 1102.14 215.271C1129.79 216.492 1155.2 232.017 1173.67 251.964C1192.83 272.653 1215.83 302.527 1228.61 327.504C1244.12 357.819 1223.84 388.54 1200.69 408.366Z" stroke="#8FA589" stroke-miterlimit="10"/>
<path d="M1160.29 381.652C1151.22 387.952 1142.1 394.176 1132.37 398.998C1128.56 400.889 1124.57 402.781 1120.2 402.828C1109.18 402.951 1100.69 393.094 1093.75 384.371C1082.05 369.701 1069.92 355.194 1057.41 340.953C1050.81 333.44 1043.83 325.687 1040.74 316.574C1037.66 307.5 1038.86 297.381 1033.59 289.049C1031.35 285.502 1028.15 282.635 1025.82 279.18C1017.76 267.239 1021.63 251.19 1028 238.36C1030.95 232.441 1035.12 226.46 1041.38 225.007C1048.26 223.41 1054.52 227.603 1058.65 232.24C1062.77 236.856 1066.01 242.493 1071.85 246.47C1082.78 253.915 1098.05 251.895 1111.13 254.169C1120.07 255.726 1128.4 259.545 1135.62 264.663C1142.12 269.275 1148.11 275.212 1153.19 281.833C1164.21 296.169 1176.58 315.889 1182.53 332.398C1189.61 352.018 1176.74 370.233 1160.29 381.652Z" stroke="#8FA589" stroke-miterlimit="10"/>
<path d="M1119.91 354.944C1116.59 355.443 1112.97 355.085 1110.22 353.194C1106.8 350.847 1105.38 346.72 1103.84 342.971C1099.97 333.57 1094.05 324.937 1086.58 317.797C1084.49 315.803 1082.26 313.893 1080.7 311.494C1077.67 306.815 1077.67 300.65 1080.13 295.726C1089.7 276.615 1119.63 286.885 1128.19 301.791C1136.9 316.954 1145.06 351.156 1119.91 354.944Z" stroke="#8FA589" stroke-miterlimit="10"/>
<path d="M350.501 -202.362L350.024 -202.189L350.024 -202.189L350.501 -202.362ZM296.794 24.8707L296.492 24.4821V24.4821L296.794 24.8707ZM248.323 60.1375L247.976 59.7875L247.976 59.7875L248.323 60.1375ZM201.413 141.106L200.96 140.901V140.901L201.413 141.106ZM135.937 205.241L135.832 204.758L135.832 204.758L135.937 205.241ZM94.7765 212.815L94.5855 212.361L94.5856 212.361L94.7765 212.815ZM49.3111 250.534L49.0528 250.115L49.0529 250.115L49.3111 250.534ZM-3.678 267.234L-3.51871 267.701L-3.51872 267.701L-3.678 267.234ZM289.64 -323.936L290.021 -324.271C291.108 -323.058 292.805 -320.422 294.933 -316.765C297.07 -313.093 299.666 -308.35 302.556 -302.891C308.335 -291.971 315.296 -278.169 322.122 -264.293C335.765 -236.559 348.9 -208.473 350.978 -202.535L350.501 -202.362L350.024 -202.189C347.971 -208.058 334.87 -236.079 321.213 -263.84C314.389 -277.712 307.433 -291.504 301.66 -302.413C298.773 -307.867 296.184 -312.597 294.056 -316.253C291.918 -319.925 290.269 -322.474 289.258 -323.602L289.64 -323.936ZM350.501 -202.362L350.978 -202.535C364.598 -163.619 369.559 -121.168 361.282 -80.3762L360.788 -80.4606L360.294 -80.545C368.529 -121.131 363.599 -163.403 350.024 -202.189L350.501 -202.362ZM360.788 -80.4606L361.282 -80.3762C353.005 -39.5847 330.884 -0.640987 297.096 25.2593L296.794 24.8707L296.492 24.4821C330.055 -1.24615 352.059 -39.9593 360.294 -80.545L360.788 -80.4606ZM296.794 24.8707L297.096 25.2593C289.143 31.356 280.587 36.7279 272.264 42.2821C263.929 47.8439 255.811 53.5979 248.67 60.4874L248.323 60.1375L247.976 59.7875C255.187 52.8299 263.37 47.0333 271.715 41.4649C280.071 35.889 288.575 30.551 296.492 24.4821L296.794 24.8707ZM248.323 60.1375L248.67 60.4874C237.338 71.4217 229.07 84.5706 221.917 98.5233C218.341 105.499 215.046 112.67 211.785 119.863C208.526 127.052 205.299 134.266 201.866 141.311L201.413 141.106L200.96 140.901C204.385 133.872 207.604 126.676 210.867 119.479C214.128 112.286 217.432 105.095 221.021 98.0953C228.198 84.0959 236.526 70.8345 247.976 59.7875L248.323 60.1375ZM201.413 141.106L201.866 141.311C188.136 169.482 167.266 198.315 136.042 205.723L135.937 205.241L135.832 204.758C166.565 197.466 187.251 169.03 200.96 140.901L201.413 141.106ZM135.937 205.241L136.042 205.723C129.19 207.35 122.065 207.863 115.115 208.657C108.144 209.453 101.325 210.531 94.9674 213.269L94.7765 212.815L94.5856 212.361C101.092 209.559 108.04 208.468 115.027 207.67C122.035 206.87 129.059 206.366 135.832 204.758L135.937 205.241ZM94.7765 212.815L94.9675 213.269C85.9406 217.156 78.8659 223.914 71.8958 231.06C64.9481 238.184 58.0948 245.707 49.5694 250.953L49.3111 250.534L49.0529 250.115C57.4405 244.954 64.1879 237.551 71.1787 230.383C78.1471 223.238 85.3485 216.339 94.5855 212.361L94.7765 212.815ZM49.3111 250.534L49.5694 250.953C41.5893 255.863 32.6553 258.496 23.5645 260.679C14.4495 262.868 5.20809 264.599 -3.51871 267.701L-3.678 267.234L-3.8373 266.768C4.95886 263.641 14.3058 261.887 23.3516 259.715C32.4215 257.537 41.2206 254.934 49.0528 250.115L49.3111 250.534ZM-3.678 267.234L-3.51872 267.701C-23.8561 274.929 -41.2705 290.018 -51.0355 308.873L-51.4829 308.657L-51.9303 308.441C-42.0435 289.351 -24.4211 274.084 -3.8373 266.768L-3.678 267.234Z" fill="#8FA589"/>
<path d="M324.005 -212.414L324.481 -212.59L324.481 -212.59L324.005 -212.414ZM279.626 -14.2509L279.311 -14.6302L279.311 -14.6302L279.626 -14.2509ZM265.148 -3.54265L264.872 -3.9503L264.872 -3.95029L265.148 -3.54265ZM236.086 16.6429L235.759 16.2742L235.76 16.2735L236.086 16.6429ZM226.34 26.4557L226.721 26.77L226.721 26.7707L226.34 26.4557ZM197.179 77.7738L197.637 77.9679V77.9679L197.179 77.7738ZM192.573 87.6444L193.027 87.8462L193.027 87.8463L192.573 87.6444ZM165.562 128.073L165.915 128.417L165.915 128.418L165.562 128.073ZM135.229 146.392L135.106 145.914L135.106 145.914L135.229 146.392ZM98.6802 154.191L98.4885 153.738L98.4886 153.738L98.6802 154.191ZM57.0588 186.371L56.8186 185.941L56.8187 185.941L57.0588 186.371ZM37.2497 193.398L37.1509 192.914L37.1512 192.914L37.2497 193.398ZM9.47485 199.415L9.61105 199.889L9.6103 199.889L9.47485 199.415ZM245.655 -360.798L246.038 -361.13C246.52 -360.587 247.226 -359.57 248.118 -358.168C249.016 -356.757 250.117 -354.931 251.391 -352.751C253.94 -348.389 257.186 -342.598 260.887 -335.849C268.289 -322.352 277.516 -305.018 286.629 -287.62C295.743 -270.223 304.744 -252.76 311.695 -239.005C315.171 -232.127 318.135 -226.175 320.344 -221.622C322.547 -217.081 324.014 -213.902 324.481 -212.59L324.005 -212.414L323.529 -212.239C323.084 -213.49 321.645 -216.614 319.433 -221.174C317.227 -225.721 314.266 -231.668 310.791 -238.543C303.842 -252.293 294.843 -269.752 285.731 -287.146C276.619 -304.541 267.396 -321.869 259.998 -335.359C256.298 -342.104 253.057 -347.887 250.515 -352.238C249.244 -354.414 248.149 -356.228 247.261 -357.624C246.366 -359.03 245.696 -359.986 245.272 -360.465L245.655 -360.798ZM324.005 -212.414L324.481 -212.59C336.506 -178.803 341.018 -141.922 334.184 -106.403L333.689 -106.483L333.195 -106.562C339.989 -141.878 335.508 -178.582 323.529 -212.239L324.005 -212.414ZM333.689 -106.483L334.184 -106.403C327.35 -70.8817 308.488 -37.0986 279.94 -13.8717L279.626 -14.2509L279.311 -14.6302C307.652 -37.6886 326.4 -71.2496 333.195 -106.562L333.689 -106.483ZM279.626 -14.2509L279.94 -13.8717C275.298 -10.0944 270.457 -6.51807 265.424 -3.13501L265.148 -3.54265L264.872 -3.95029C269.879 -7.31619 274.695 -10.8736 279.311 -14.6302L279.626 -14.2509ZM265.148 -3.54265L265.424 -3.13504C255.446 3.57283 245.223 9.40515 236.412 17.0124L236.086 16.6429L235.76 16.2735C244.635 8.61171 254.98 2.69963 264.872 -3.9503L265.148 -3.54265ZM236.086 16.6429L236.413 17.0116C232.91 20.0494 229.695 23.3026 226.721 26.77L226.34 26.4557L225.96 26.1413C228.965 22.6366 232.216 19.3468 235.759 16.2742L236.086 16.6429ZM226.34 26.4557L226.721 26.7707C214.155 41.3735 205.95 59.8461 197.637 77.9679L197.179 77.7738L196.721 77.5797C205.015 59.4977 213.279 40.8766 225.96 26.1407L226.34 26.4557ZM197.179 77.7738L197.637 77.9679C196.119 81.2792 194.593 84.5777 193.027 87.8462L192.573 87.6444L192.119 87.4426C193.68 84.1819 195.203 80.8895 196.721 77.5797L197.179 77.7738ZM192.573 87.6444L193.027 87.8463C186.081 102.334 177.337 117.041 165.915 128.417L165.562 128.073L165.209 127.729C176.51 116.473 185.194 101.885 192.119 87.4425L192.573 87.6444ZM165.562 128.073L165.915 128.418C157.313 136.975 147.181 143.623 135.352 146.87L135.229 146.392L135.106 145.914C146.725 142.724 156.706 136.189 165.209 127.729L165.562 128.073ZM135.229 146.392L135.352 146.87C129.306 148.534 123.008 149.242 116.84 150.152C110.653 151.064 104.577 152.18 98.8718 154.645L98.6802 154.191L98.4886 153.738C104.328 151.214 110.52 150.084 116.718 149.17C122.935 148.253 129.139 147.556 135.106 145.914L135.229 146.392ZM98.6802 154.191L98.8719 154.645C90.7707 158.147 84.2663 163.976 77.8284 170.06C71.4113 176.124 65.0511 182.453 57.2988 186.801L57.0588 186.371L56.8187 185.941C64.432 181.671 70.6871 175.452 77.1416 169.353C83.5754 163.273 90.199 157.321 98.4885 153.738L98.6802 154.191ZM57.0588 186.371L57.2989 186.801C51.0821 190.29 44.2891 192.332 37.3482 193.882L37.2497 193.398L37.1512 192.914C44.0502 191.373 50.7304 189.358 56.8186 185.941L57.0588 186.371ZM37.2497 193.398L37.3485 193.882C32.7295 194.917 28.0147 195.742 23.3591 196.645C18.6952 197.549 14.0775 198.533 9.61105 199.889L9.47485 199.415L9.33864 198.941C13.8581 197.569 18.5185 196.577 23.1908 195.671C27.8715 194.763 32.5511 193.944 37.1509 192.914L37.2497 193.398ZM9.47485 199.415L9.6103 199.889C-8.67294 205.41 -24.5104 217.524 -33.9726 233.68L-34.4071 233.441L-34.8416 233.201C-25.2411 216.809 -9.1834 204.534 9.33939 198.941L9.47485 199.415Z" fill="#8FA589"/>
<path d="M297.905 -222.465L297.43 -222.286L297.43 -222.286L297.905 -222.465ZM306.981 -132.5L306.485 -132.573V-132.573L306.981 -132.5ZM262.782 -53.3751L262.453 -53.7417L262.453 -53.7417L262.782 -53.3751ZM250.365 -43.5164L250.085 -43.921L250.085 -43.921L250.365 -43.5164ZM224.125 -26.8613L223.828 -27.2537L223.828 -27.2538L224.125 -26.8613ZM215.098 -18.9632L215.456 -18.6239L215.454 -18.6225L215.098 -18.9632ZM188.013 25.4069L187.555 25.2126L187.555 25.2125L188.013 25.4069ZM183.959 34.1695L184.415 34.3677L184.415 34.3678L183.959 34.1695ZM160.841 70.4336L161.205 70.7665L161.204 70.767L160.841 70.4336ZM134.684 87.5235L134.538 87.0525L134.539 87.0523L134.684 87.5235ZM102.713 95.5452L102.521 95.0918V95.0918L102.713 95.5452ZM64.8932 122.182L64.6772 121.739L64.6775 121.739L64.8932 122.182ZM47.2294 127.537L47.1532 127.049L47.1538 127.049L47.2294 127.537ZM22.6659 131.562L22.7713 132.044L22.7698 132.045L22.6659 131.562ZM223.743 -353.994L224.128 -354.324C224.925 -353.411 226.631 -350.794 228.988 -346.955C231.356 -343.097 234.406 -337.96 237.903 -331.969C244.897 -319.986 253.681 -304.576 262.372 -289.114C271.063 -273.652 279.663 -258.136 286.287 -245.942C289.6 -239.845 292.419 -234.577 294.51 -230.561C296.593 -226.56 297.971 -223.767 298.379 -222.644L297.905 -222.465L297.43 -222.286C297.048 -223.336 295.706 -226.064 293.611 -230.089C291.524 -234.098 288.707 -239.361 285.396 -245.455C278.774 -257.644 270.177 -273.156 261.487 -288.615C252.798 -304.074 244.017 -319.48 237.026 -331.456C233.531 -337.445 230.485 -342.575 228.122 -346.424C225.747 -350.294 224.088 -352.827 223.357 -353.664L223.743 -353.994ZM297.905 -222.465L298.379 -222.644C308.815 -193.985 312.878 -162.673 307.477 -132.428L306.981 -132.5L306.485 -132.573C311.85 -162.619 307.819 -193.757 297.43 -222.286L297.905 -222.465ZM306.981 -132.5L307.477 -132.428C302.075 -102.178 286.468 -73.5089 263.112 -53.0085L262.782 -53.3751L262.453 -53.7417C285.623 -74.0786 301.121 -102.536 306.485 -132.573L306.981 -132.5ZM262.782 -53.3751L263.112 -53.0085C259.17 -49.5486 255.089 -46.1643 250.646 -43.1119L250.365 -43.5164L250.085 -43.921C254.479 -46.9396 258.524 -50.2931 262.453 -53.7417L262.782 -53.3751ZM250.365 -43.5164L250.646 -43.1119C246.254 -40.0928 241.713 -37.4408 237.272 -34.7935C232.825 -32.1423 228.473 -29.4944 224.423 -26.4688L224.125 -26.8613L223.828 -27.2538C227.927 -30.3156 232.321 -32.9881 236.768 -35.6391C241.222 -38.294 245.727 -40.9257 250.085 -43.921L250.365 -43.5164ZM224.125 -26.8613L224.423 -26.4688C221.202 -24.0622 218.226 -21.456 215.456 -18.6239L215.098 -18.9632L214.74 -19.3025C217.548 -22.1733 220.565 -24.8151 223.828 -27.2537L224.125 -26.8613ZM215.098 -18.9632L215.454 -18.6225C203.697 -6.69243 195.852 9.55382 188.471 25.6014L188.013 25.4069L187.555 25.2125C194.927 9.18546 202.838 -7.22556 214.741 -19.3039L215.098 -18.9632ZM188.013 25.4069L188.471 25.6013C187.123 28.5339 185.779 31.463 184.415 34.3677L183.959 34.1695L183.503 33.9713C184.865 31.0713 186.206 28.1466 187.555 25.2126L188.013 25.4069ZM183.959 34.1695L184.415 34.3678C178.354 47.2618 171.002 60.405 161.205 70.7665L160.841 70.4336L160.476 70.1006C170.161 59.859 177.457 46.8329 183.503 33.9712L183.959 34.1695ZM160.841 70.4336L161.204 70.767C153.838 78.5383 145.074 84.6887 134.829 87.9948L134.684 87.5235L134.539 87.0523C144.585 83.8104 153.205 77.7719 160.477 70.1001L160.841 70.4336ZM134.684 87.5235L134.829 87.9946C129.584 89.6962 124.108 90.5987 118.716 91.6234C113.307 92.6512 107.966 93.8039 102.905 95.9986L102.713 95.5452L102.521 95.0918C107.697 92.8471 113.137 91.6776 118.551 90.6488C123.982 89.6169 129.373 88.7283 134.538 87.0525L134.684 87.5235ZM102.713 95.5452L102.905 95.9986C95.7184 99.1153 89.7753 104.017 83.8617 109.038C77.9668 114.044 72.0937 119.175 65.1089 122.624L64.8932 122.182L64.6775 121.739C71.523 118.359 77.2925 113.324 83.2163 108.294C89.1214 103.28 95.173 98.2783 102.521 95.0918L102.713 95.5452ZM64.8932 122.182L65.1092 122.624C59.5124 125.392 53.4596 126.939 47.305 128.026L47.2294 127.537L47.1538 127.049C53.2635 125.97 59.2071 124.445 64.6772 121.739L64.8932 122.182ZM47.2294 127.537L47.3056 128.025C43.2159 128.752 39.0521 129.287 34.9367 129.873C30.8143 130.461 26.7321 131.102 22.7713 132.044L22.6659 131.562L22.5605 131.08C26.5702 130.126 30.6918 129.479 34.8195 128.891C38.9542 128.302 43.0868 127.772 47.1532 127.049L47.2294 127.537ZM22.6659 131.562L22.7698 132.045C6.51849 135.859 -7.7589 144.999 -16.9218 158.455L-17.3377 158.186L-17.7535 157.917C-8.42877 144.224 6.08477 134.947 22.562 131.079L22.6659 131.562Z" fill="#8FA589"/>
<path d="M271.773 -232.518L271.3 -232.334L271.3 -232.334L271.773 -232.518ZM280.244 -158.52L279.746 -158.583V-158.583L280.244 -158.52ZM245.923 -92.4996L246.271 -92.1513V-92.1513L245.923 -92.4996ZM235.57 -83.4899L235.284 -83.8903L235.284 -83.8905L235.57 -83.4899ZM212.153 -70.3632L212.408 -69.9426L212.408 -69.9426L212.153 -70.3632ZM203.842 -64.382L203.519 -64.7537L203.519 -64.7538L203.842 -64.382ZM178.835 -26.9599L179.292 -26.765L179.292 -26.765L178.835 -26.9599ZM175.333 -19.3054L174.875 -19.499L174.875 -19.4992L175.333 -19.3054ZM156.111 12.7944L156.489 13.1123L156.489 13.1129L156.111 12.7944ZM134.132 28.6559L133.957 28.1954L133.958 28.195L134.132 28.6559ZM106.742 36.9001L106.549 36.4471L106.549 36.4471L106.742 36.9001ZM72.724 57.9933L72.5412 57.536L72.5416 57.5359L72.724 57.9933ZM57.2064 61.6785L57.1602 61.1858L57.1609 61.1857L57.2064 61.6785ZM35.8583 63.7123L35.9209 64.2028L35.9208 64.2028L35.8583 63.7123ZM202.086 -350.407L202.475 -350.733C203.125 -349.974 204.661 -347.661 206.829 -344.235C209.009 -340.792 211.853 -336.185 215.132 -330.8C221.69 -320.03 229.995 -306.142 238.228 -292.214C246.461 -278.286 254.623 -264.316 260.894 -253.381C264.03 -247.914 266.693 -243.205 268.658 -239.638C270.612 -236.089 271.896 -233.633 272.246 -232.701L271.773 -232.518L271.3 -232.334C270.98 -233.185 269.74 -235.568 267.769 -239.146C265.809 -242.706 263.148 -247.41 260.014 -252.875C253.745 -263.804 245.586 -277.771 237.354 -291.697C229.123 -305.622 220.82 -319.507 214.264 -330.272C210.986 -335.655 208.146 -340.257 205.97 -343.693C203.783 -347.148 202.292 -349.387 201.697 -350.081L202.086 -350.407ZM271.773 -232.518L272.246 -232.701C281.093 -209.17 284.706 -183.427 280.742 -158.456L280.244 -158.52L279.746 -158.583C283.68 -183.36 280.098 -208.932 271.3 -232.334L271.773 -232.518ZM280.244 -158.52L280.742 -158.456C276.777 -133.478 264.463 -109.854 246.271 -92.1513L245.923 -92.4996L245.574 -92.8479C263.605 -110.394 275.815 -133.818 279.746 -158.583L280.244 -158.52ZM245.923 -92.4996L246.271 -92.1513C243.036 -89.0027 239.708 -85.8113 235.856 -83.0893L235.57 -83.4899L235.284 -83.8905C239.06 -86.5591 242.335 -89.6959 245.574 -92.8479L245.923 -92.4996ZM235.57 -83.4899L235.856 -83.0894C232.042 -80.393 228.028 -78.2304 224.049 -76.182C220.061 -74.1287 216.122 -72.1961 212.408 -69.9426L212.153 -70.3632L211.897 -70.7838C215.652 -73.0621 219.64 -75.0189 223.602 -77.059C227.574 -79.1039 231.534 -81.2388 235.284 -83.8903L235.57 -83.4899ZM212.153 -70.3632L212.408 -69.9426C209.476 -68.1632 206.739 -66.2006 204.165 -64.0103L203.842 -64.382L203.519 -64.7538C206.137 -66.9818 208.92 -68.9768 211.897 -70.7838L212.153 -70.3632ZM203.842 -64.382L204.165 -64.0103C193.251 -54.7201 185.738 -40.7342 179.292 -26.765L178.835 -26.9599L178.377 -27.1548C184.825 -41.1282 192.415 -55.3024 203.519 -64.7537L203.842 -64.382ZM178.835 -26.9599L179.292 -26.765C178.112 -24.2089 176.959 -21.6575 175.791 -19.1115L175.333 -19.3054L174.875 -19.4992C176.039 -22.0362 177.198 -24.5996 178.377 -27.1548L178.835 -26.9599ZM175.333 -19.3054L175.791 -19.1118C170.616 -7.81205 164.66 3.76565 156.489 13.1123L156.111 12.7944L155.734 12.4765C163.801 3.24911 169.706 -8.21328 174.875 -19.499L175.333 -19.3054ZM156.111 12.7944L156.489 13.1129C150.359 20.1001 142.963 25.7494 134.305 29.1169L134.132 28.6559L133.958 28.195C142.432 24.899 149.694 19.3611 155.734 12.4759L156.111 12.7944ZM134.132 28.6559L134.307 29.1165C129.864 30.856 125.211 31.9531 120.592 33.0943C115.959 34.2386 111.353 35.4286 106.934 37.3532L106.742 36.9001L106.549 36.4471C111.058 34.4831 115.743 33.2753 120.372 32.1318C125.014 30.9852 129.592 29.9045 133.957 28.1954L134.132 28.6559ZM106.742 36.9001L106.934 37.3532C100.66 40.0866 95.2765 44.0624 89.8853 48.0215C84.5101 51.9687 79.1244 55.9015 72.9065 58.4508L72.724 57.9933L72.5416 57.5359C78.6218 55.043 83.9074 51.1899 89.2977 47.2315C94.672 43.2849 100.148 39.2352 106.549 36.4471L106.742 36.9001ZM72.724 57.9933L72.9069 58.4506C67.9299 60.4958 62.6168 61.5461 57.2518 62.1714L57.2064 61.6785L57.1609 61.1857C62.4771 60.5661 67.6866 59.5309 72.5412 57.536L72.724 57.9933ZM57.2064 61.6785L57.2525 62.1713C53.6926 62.5915 50.0803 62.8389 46.5052 63.1112C42.9244 63.3839 39.3773 63.6819 35.9209 64.2028L35.8583 63.7123L35.7956 63.2217C39.2932 62.6945 42.8737 62.3943 46.4553 62.1215C50.0425 61.8483 53.6271 61.6029 57.1602 61.1858L57.2064 61.6785ZM35.8583 63.7123L35.9208 64.2028C21.6986 66.3441 8.98141 72.4852 0.123236 83.2414L-0.264431 82.9351L-0.652106 82.629C8.40327 71.6334 21.3769 65.3926 35.7957 63.2217L35.8583 63.7123Z" fill="#8FA589"/>
<path d="M245.557 -242.569L246.027 -242.76L246.027 -242.76L245.557 -242.569ZM253.425 -184.539L253.925 -184.49L253.925 -184.49L253.425 -184.539ZM228.994 -131.621L228.618 -131.941L228.618 -131.941L228.994 -131.621ZM220.709 -123.46L220.415 -123.855L220.415 -123.855L220.709 -123.46ZM200.121 -113.861L199.927 -114.313L199.927 -114.314L200.121 -113.861ZM192.531 -109.796L192.26 -110.207L192.26 -110.207L192.531 -109.796ZM169.607 -79.3217L169.149 -79.5171L169.149 -79.5172L169.607 -79.3217ZM166.66 -72.7751L166.198 -72.9624L166.199 -72.9627L166.66 -72.7751ZM151.343 -44.8404L151.738 -44.5438L151.738 -44.5429L151.343 -44.8404ZM133.548 -30.2066L133.334 -30.65L133.335 -30.6506L133.548 -30.2066ZM110.745 -21.7389L110.552 -22.1915L110.552 -22.1915L110.745 -21.7389ZM80.5384 -6.18837L80.4026 -6.66233L80.4031 -6.66249L80.5384 -6.18837ZM67.1714 -4.17459L67.1666 -4.67051L67.1676 -4.67055L67.1714 -4.17459ZM49.0444 -4.13146L49.0401 -4.62742L49.0401 -4.62741L49.0444 -4.13146ZM177.012 -355.589L177.406 -355.909C177.91 -355.3 179.327 -353.153 181.398 -349.902C183.48 -346.634 186.247 -342.214 189.464 -337.025C195.899 -326.646 204.142 -313.184 212.334 -299.694C220.525 -286.203 228.665 -272.683 234.896 -262.187C238.011 -256.939 240.649 -252.445 242.578 -249.089C243.542 -247.41 244.33 -246.015 244.912 -244.95C245.488 -243.897 245.877 -243.141 246.027 -242.76L245.557 -242.569L245.087 -242.378C244.962 -242.693 244.605 -243.394 244.022 -244.461C243.445 -245.517 242.66 -246.906 241.698 -248.581C239.772 -251.932 237.136 -256.421 234.022 -261.668C227.794 -272.161 219.655 -285.678 211.465 -299.167C203.275 -312.656 195.033 -326.114 188.6 -336.49C185.383 -341.678 182.619 -346.095 180.54 -349.358C178.45 -352.639 177.074 -354.718 176.618 -355.269L177.012 -355.589ZM245.557 -242.569L246.027 -242.76C253.284 -224.357 256.448 -204.186 253.925 -184.49L253.425 -184.539L252.925 -184.587C255.424 -204.097 252.292 -224.104 245.086 -242.378L245.557 -242.569ZM253.425 -184.539L253.925 -184.49C251.399 -164.784 242.455 -146.098 229.37 -131.301L228.994 -131.621L228.618 -131.941C241.575 -146.593 250.426 -165.092 252.925 -184.587L253.425 -184.539ZM228.994 -131.621L229.37 -131.301C226.848 -128.448 224.266 -125.461 221.003 -123.065L220.709 -123.46L220.415 -123.855C223.571 -126.172 226.078 -129.066 228.618 -131.941L228.994 -131.621ZM220.709 -123.46L221.003 -123.065C217.766 -120.687 214.272 -119.011 210.754 -117.562C207.199 -116.097 203.72 -114.899 200.315 -113.408L200.121 -113.861L199.927 -114.314C203.314 -115.796 206.941 -117.055 210.388 -118.476C213.872 -119.912 217.277 -121.549 220.415 -123.855L220.709 -123.46ZM200.121 -113.861L200.315 -113.408C197.67 -112.25 195.167 -110.938 192.802 -109.385L192.531 -109.796L192.26 -110.207C194.682 -111.796 197.238 -113.136 199.927 -114.313L200.121 -113.861ZM192.531 -109.796L192.802 -109.386C182.714 -102.759 175.574 -91.0175 170.064 -79.1261L169.607 -79.3217L169.149 -79.5172C174.674 -91.4395 181.914 -103.411 192.26 -110.207L192.531 -109.796ZM169.607 -79.3217L170.064 -79.1262C169.058 -76.9538 168.086 -74.7685 167.12 -72.5875L166.66 -72.7751L166.199 -72.9627C167.164 -75.1439 168.139 -77.3362 169.149 -79.5171L169.607 -79.3217ZM166.66 -72.7751L167.121 -72.5878C162.834 -62.8888 158.274 -52.8719 151.738 -44.5438L151.343 -44.8404L150.948 -45.137C157.392 -53.349 161.906 -63.2505 166.198 -72.9624L166.66 -72.7751ZM151.343 -44.8404L151.738 -44.5429C146.848 -38.3412 140.827 -33.1911 133.76 -29.7626L133.548 -30.2066L133.335 -30.6506C140.24 -34.0005 146.142 -39.0412 150.948 -45.1379L151.343 -44.8404ZM133.548 -30.2066L133.761 -29.7632C130.123 -27.9855 126.295 -26.6933 122.448 -25.4341C118.592 -24.1716 114.719 -22.943 110.939 -21.2864L110.745 -21.7389L110.552 -22.1915C114.388 -23.8728 118.315 -25.1182 122.155 -26.3751C126.004 -27.6353 129.769 -28.9079 133.334 -30.65L133.548 -30.2066ZM110.745 -21.7389L110.939 -21.2865C105.57 -18.9331 100.746 -15.8819 95.8742 -12.9832C91.0165 -10.0929 86.121 -7.3607 80.6738 -5.71426L80.5384 -6.18837L80.4031 -6.66249C85.7184 -8.26907 90.5194 -10.9422 95.3711 -13.829C100.209 -16.7074 105.107 -19.8049 110.552 -22.1915L110.745 -21.7389ZM80.5384 -6.18837L80.6743 -5.71442C76.3206 -4.39361 71.7536 -3.83909 67.1752 -3.67863L67.1714 -4.17459L67.1676 -4.67055C71.6909 -4.82909 76.1626 -5.37603 80.4026 -6.66233L80.5384 -6.18837ZM67.1714 -4.17459L67.1762 -3.67867C64.1472 -3.56657 61.0852 -3.60938 58.0503 -3.65312C55.0108 -3.69689 51.9991 -3.74157 49.0487 -3.63552L49.0444 -4.13146L49.0401 -4.62741C52.0209 -4.73457 55.0589 -4.6893 58.0932 -4.64556C61.1322 -4.60179 64.1681 -4.55956 67.1666 -4.67051L67.1714 -4.17459ZM49.0444 -4.13146L49.0487 -3.63551C36.8415 -3.19602 25.6995 -0.0131702 17.1543 8.04498L16.8113 7.69111L16.4683 7.33721C25.262 -0.955223 36.6855 -4.1826 49.0401 -4.62742L49.0444 -4.13146Z" fill="#8FA589"/>
<path d="M155.084 754.487C149.002 734.995 144.45 715.012 141.486 694.802C140.325 686.884 139.428 678.645 141.677 671.043C146.949 653.22 166.602 645.661 183.83 640.468C212.988 631.678 242.147 622.889 271.304 614.099C286.688 609.462 302.837 604.785 318.632 608.256C334.93 611.838 349.928 623.92 366.397 622.014C373.37 621.207 379.817 617.901 386.7 616.528C410.488 611.786 432.87 630.507 448.691 649.953C455.236 657.996 461.747 668.213 458.92 678.191C455.861 688.99 443.451 693.44 432.589 693.842C421.727 694.244 410.293 692.295 400.373 696.76C381.596 705.209 378.223 730.608 369.178 749.679C357.509 774.284 333.621 790.57 308.34 798.603C282.12 806.935 246.036 814.734 218.33 815.384C184.706 816.171 164.369 784.241 155.084 754.487Z" stroke="#8FA589" stroke-miterlimit="10"/>
<path d="M194.896 729.751C192.601 718.737 190.394 707.715 189.699 696.753C189.426 692.458 189.22 688 190.844 684.01C194.939 673.935 207.188 670.542 217.808 668.066C235.683 663.869 253.575 659.202 271.365 654.081C280.751 651.379 290.5 648.44 300.008 649.632C309.475 650.821 318.265 656.354 327.892 655.219C331.991 654.737 335.83 653.091 339.878 652.487C353.868 650.404 367.062 660.961 376.353 672.391C380.639 677.668 384.513 684.087 383.452 690.414C382.283 697.377 376.063 701.222 370.247 702.946C364.456 704.663 358.069 705.129 352.206 708.692C341.229 715.361 337.245 730.134 330.176 741.023C325.339 748.472 318.669 754.368 311.236 758.683C304.537 762.573 296.827 765.407 288.838 767.116C271.527 770.845 248.784 773.43 231.423 771.596C210.788 769.419 199.056 749.715 194.896 729.751Z" stroke="#8FA589" stroke-miterlimit="10"/>
<path d="M234.704 705.052C235.516 701.815 237.227 698.681 240.006 697.01C243.456 694.932 247.768 695.454 251.783 695.696C261.852 696.303 272.004 694.707 281.384 691.043C284.003 690.02 286.601 688.827 289.389 688.467C294.823 687.762 300.455 690.468 304.015 694.867C317.826 711.942 297.008 734.642 280.116 735.886C262.932 737.155 228.561 729.57 234.704 705.052Z" stroke="#8FA589" stroke-miterlimit="10"/>
</g>
<defs>
<clipPath id="clip0_250_20943">
<rect width="1728" height="846" fill="white"/>
</clipPath>
</defs>
</svg>
