<svg width="1728" height="1117" viewBox="0 0 1728 1117" fill="none" xmlns="http://www.w3.org/2000/svg">
<g clip-path="url(#clip0_202_14845)">
<path d="M1803.31 15.5546C1790.85 22.2984 1700.23 110.141 1691.18 121.047C1661.4 156.936 1639.15 199.747 1631.24 245.707C1623.33 291.666 1630.46 340.804 1654.86 380.546C1666.36 399.276 1681.5 415.821 1690.75 435.758C1705.43 467.406 1703.73 503.786 1706.54 538.561C1709.35 573.337 1719.27 611.252 1748.35 630.529C1761.14 639.009 1776.81 643.205 1787.87 653.831C1803.59 668.919 1806.37 693.246 1819.66 710.509C1832.09 726.65 1852.12 734.747 1867.73 747.833C1885.96 763.113 1897.95 785.631 1900.44 809.286" stroke="#BDD4CE" stroke-miterlimit="10"/>
<path d="M1862.46 -7.3927C1851.65 -1.47193 1729.28 110.398 1721.36 119.844C1695.3 150.921 1675.77 188.029 1668.5 227.898C1661.24 267.766 1667.09 310.26 1687.17 345.243C1690.44 350.937 1694 356.494 1697.83 361.92C1705.41 372.659 1713.69 382.677 1719.75 394.016C1722.16 398.548 1724.19 403.2 1725.87 407.987C1733.01 428.149 1734.03 450.765 1735.31 472.936C1735.54 476.991 1735.79 481.032 1736.09 485.055C1737.42 502.884 1740.52 521.568 1747.7 537.726C1753.11 549.878 1760.86 560.57 1771.69 568.327C1782.79 576.284 1796.44 580.598 1806.37 590.155C1820.47 603.725 1824.02 624.765 1836.44 639.569C1841.42 645.499 1847.57 650.145 1854.11 654.351C1862.82 659.959 1872.23 664.812 1880.43 671.033C1897.23 683.742 1908.81 702.532 1912.09 723.235" stroke="#BDD4CE" stroke-miterlimit="10"/>
<path d="M1881.46 7.60731C1872.3 12.7072 1758.33 110.66 1751.54 118.642C1729.21 144.906 1712.39 176.313 1705.77 210.09C1699.15 243.865 1703.69 279.76 1719.5 309.939C1722.17 315.044 1725.01 320.107 1728.36 324.951C1734.98 334.547 1742.8 342.822 1748.77 352.272C1751.14 356.032 1753.18 359.913 1754.92 363.956C1762.3 381.012 1763.85 401.155 1764.99 420.803C1765.2 424.397 1765.41 427.982 1765.65 431.548C1766.7 447.375 1768.99 463.892 1774.9 478.375C1779.35 489.238 1785.88 498.896 1795.05 506.123C1804.45 513.557 1816.08 517.987 1824.88 526.476C1837.37 538.529 1841.69 556.281 1853.24 568.627C1857.85 573.57 1863.44 577.421 1869.34 580.845C1877.2 585.408 1885.65 589.264 1893.13 594.229C1908.51 604.367 1919.68 619.431 1923.75 637.179" stroke="#BDD4CE" stroke-miterlimit="10"/>
<path d="M1901.46 19.1073C1893.96 23.3862 1787.38 110.92 1781.72 117.438C1763.11 138.89 1749.01 164.594 1743.03 192.28C1737.06 219.963 1740.22 249.318 1751.82 274.632C1753.89 279.157 1756.02 283.72 1758.88 287.98C1764.53 296.43 1771.89 302.972 1777.78 310.526C1780.11 313.516 1782.16 316.628 1783.95 319.922C1791.55 333.894 1793.66 351.544 1794.67 368.668C1794.86 371.8 1795.02 374.926 1795.2 378.038C1795.98 391.864 1797.45 406.213 1802.09 419.021C1805.58 428.596 1810.89 437.218 1818.4 443.916C1826.11 450.827 1835.73 455.375 1843.38 462.795C1854.26 473.329 1859.35 487.792 1870.03 497.681C1874.29 501.639 1879.31 504.695 1884.58 507.338C1891.57 510.859 1899.06 513.732 1905.83 517.423C1919.76 525.023 1930.54 536.327 1935.4 551.122" stroke="#BDD4CE" stroke-miterlimit="10"/>
<path d="M1304.87 10.3549C1276.91 27.948 1246.55 48.797 1239.31 81.0295C1233.39 107.408 1244.8 134.766 1242.58 161.712C1240.45 187.6 1226.02 210.769 1219.67 235.956C1210.81 271.12 1218.36 309.116 1235.41 341.122C1264.65 396.032 1322.46 434.673 1384.38 440.698C1406.42 442.842 1429.09 441.174 1450.28 447.587C1466.17 452.396 1480.35 461.502 1495.47 468.345C1523.77 481.155 1555.66 485.925 1586.46 481.958C1595.04 480.854 1603.84 478.953 1610.76 473.769C1623.43 464.28 1626.46 446.022 1622.98 430.583C1619.5 415.144 1610.84 401.481 1603.79 387.317C1575.35 330.23 1572.77 263.371 1581.52 200.197C1584.24 180.585 1588.06 160.88 1596.41 142.931C1607.67 118.741 1626.52 99.0461 1645.03 79.8286C1653.01 71.5393 1656.81 60.5763 1655.83 49.1082C1654.85 37.6401 1649.38 27.0202 1642.94 17.4832C1617.84 -19.6443 1575.63 -44.6733 1531.01 -48.8822C1512.69 -50.6112 1494.22 -49.0084 1475.98 -46.5596C1417.71 -38.7392 1354.64 -20.9574 1304.87 10.3549Z" stroke="#BDD4CE" stroke-miterlimit="10"/>
<path d="M1560.58 159.345C1568.78 139.76 1582.43 123.036 1596.17 106.771C1602.06 99.8008 1604.85 90.8553 1604.04 81.5121C1603.21 72.1472 1599.02 63.419 1594.06 55.5191C1574.72 24.488 1542.1 2.8029 1506.17 -1.93212C1491.51 -3.82094 1476.51 -3.02516 1461.43 -1.34903C1415.7 5.57802 1366.02 19.2323 1326.78 43.947C1304.57 57.9321 1280.82 74.7346 1274.78 100.242C1269.84 121.119 1278.14 142.837 1276.52 164.249C1275 185.416 1264.82 204.381 1260.89 224.814C1255.38 253.271 1262.53 283.767 1276.22 309.964C1299.09 353.434 1342.81 385.021 1390.82 391.445C1407.9 393.72 1425.46 393 1441.91 398.218C1454.33 402.203 1465.48 409.306 1477.32 414.617C1499.66 424.62 1524.64 428.129 1548.72 424.748C1555.42 423.807 1562.28 422.245 1567.72 418.195C1577.66 410.795 1580.36 396.747 1578.13 384.758C1575.89 372.791 1569.73 362.105 1564.74 351.003C1544.56 306.389 1543.28 253.91 1549.74 204.328C1551.75 188.921 1554.65 173.519 1560.58 159.345Z" stroke="#BDD4CE" stroke-miterlimit="10"/>
<path d="M1524.75 175.757C1529.86 160.735 1538.35 147.046 1547.31 133.714C1551.11 128.072 1552.9 121.135 1552.24 113.916C1551.57 106.652 1548.63 99.8286 1545.18 93.5531C1531.51 68.663 1508.58 50.1851 1481.33 45.0161C1470.33 42.9278 1458.81 42.9562 1446.87 43.8616C1413.69 49.8913 1377.41 59.42 1348.68 77.5371C1332.22 87.914 1315.09 100.67 1310.25 119.452C1306.28 134.825 1311.42 150.905 1310.46 166.784C1309.48 183.227 1303.61 197.992 1302.11 213.667C1299.95 235.421 1306.63 258.45 1317.03 278.805C1333.43 310.893 1363.15 335.368 1397.26 342.193C1409.39 344.599 1421.85 344.782 1433.53 348.849C1442.51 351.976 1450.61 357.111 1459.17 360.89C1475.54 368.089 1493.62 370.336 1510.96 367.539C1515.79 366.762 1520.71 365.535 1524.68 362.62C1531.9 357.31 1534.27 347.471 1533.29 338.934C1532.3 330.436 1528.65 322.72 1525.7 314.693C1513.88 282.513 1513.8 244.451 1517.97 208.46C1519.27 197.257 1521.23 186.127 1524.75 175.757Z" stroke="#BDD4CE" stroke-miterlimit="10"/>
<path d="M1488.92 192.171C1490.87 181.623 1494.29 171.103 1498.45 160.658C1500.16 156.365 1500.94 151.416 1500.44 146.32C1499.94 141.16 1498.26 136.227 1496.3 131.589C1488.38 112.788 1475.06 97.6561 1456.49 91.9662C1449.15 89.7146 1441.1 88.9418 1432.32 89.0743C1411.68 94.2086 1388.79 99.6095 1370.58 111.129C1359.88 117.9 1349.36 126.608 1345.71 138.664C1342.73 148.533 1344.75 158.978 1344.41 169.319C1344.02 181.042 1342.44 191.601 1343.34 202.522C1344.56 217.569 1350.79 233.106 1357.85 247.649C1367.87 268.297 1383.49 285.717 1403.71 292.94C1410.88 295.481 1418.24 296.6 1425.16 299.481C1430.69 301.779 1435.74 304.915 1441.02 307.162C1451.43 311.555 1462.6 312.54 1473.22 310.329C1476.17 309.717 1479.15 308.827 1481.64 307.049C1486.14 303.827 1488.18 298.204 1488.44 293.112C1488.7 288.088 1487.55 283.348 1486.66 278.384C1483.12 258.691 1484.31 234.992 1486.2 212.593C1486.78 205.593 1487.72 198.674 1488.92 192.171Z" stroke="#BDD4CE" stroke-miterlimit="10"/>
<path d="M1417.76 134.289C1409.67 138.528 1400.18 139.801 1392.48 144.723C1383.49 150.476 1377.91 161.192 1378.35 171.86C1379.03 188.347 1392.36 201.239 1398.65 216.495C1402.43 225.647 1403.84 236.069 1410.15 243.691C1435.04 273.728 1460.75 234.291 1453.09 208.585C1445.61 183.468 1454.14 138.411 1417.76 134.289Z" stroke="#BDD4CE" stroke-miterlimit="10"/>
<path d="M1642.4 739.526C1628.48 749.209 1611.72 753.96 1597.14 762.609C1582.55 771.259 1569.42 786.168 1570.96 803.056C1571.39 807.745 1572.93 812.482 1571.87 817.071C1570.06 824.949 1561.43 829.18 1553.5 830.76C1533.88 834.672 1513.74 829.131 1493.75 828.277C1473.76 827.422 1450.67 833.498 1442.29 851.671C1438.63 859.607 1438.09 869.291 1431.96 875.521C1420.73 886.929 1400.87 877.906 1390.62 865.611C1376.06 848.137 1369 825.626 1356.21 806.812C1338.24 780.391 1310.05 762.712 1289.5 738.245C1266.07 710.357 1253.38 673.681 1254.55 637.281C1255.72 600.88 1270.75 565.097 1295.92 538.776C1312.01 521.951 1331.77 509.13 1351.82 497.305C1358.97 493.087 1366.51 488.873 1374.79 488.266C1382.1 487.731 1389.28 490.067 1396.18 492.537C1417.04 500.006 1437.35 509 1456.9 519.423C1467.99 525.337 1479.06 531.798 1491.37 534.381C1504.18 537.073 1517.45 535.375 1530.49 534.132C1566.22 530.724 1605.52 531.895 1633.38 554.526C1681.4 593.528 1698.88 700.249 1642.4 739.526Z" stroke="#BDD4CE" stroke-miterlimit="10"/>
<path d="M1583.01 589.569C1620.29 616.128 1633.82 692.417 1595.44 723.552C1586.04 731.182 1574.58 735.464 1564.49 742.298C1554.38 749.2 1545.16 760.195 1545.56 772.359C1545.68 775.757 1546.57 779.188 1545.62 782.476C1543.86 788.567 1537.23 792.049 1531.07 793.657C1518.54 796.932 1505.41 795.379 1492.29 794.088C1489.41 793.808 1486.59 793.553 1483.8 793.357C1467.31 792.191 1450.94 794.099 1444.18 803.921C1441.2 808.265 1440.07 813.427 1435.46 816.977C1427.05 823.453 1413.85 817.62 1406.5 809.038C1396.04 796.837 1390.5 781.385 1381.1 768.458C1374.88 759.896 1367.13 752.654 1359.13 745.633C1350.14 737.763 1340.82 730.155 1332.93 721.261C1315.91 702.074 1306.35 676.908 1305.84 651.566C1305.32 625.711 1314.38 599.222 1332.44 579.869C1344.16 567.237 1359.25 558.195 1374.35 550.426C1379.7 547.652 1385.3 544.939 1391.4 544.658C1396.78 544.41 1402.07 546.098 1407.17 547.874C1413.35 550.026 1419.47 552.343 1425.53 554.786C1434.6 558.44 1443.52 562.37 1452.26 566.59C1460.54 570.584 1468.81 574.893 1477.9 576.587C1487.37 578.352 1497.14 577.161 1506.76 576.264C1533.14 573.802 1561.8 574.459 1583.01 589.569Z" stroke="#BDD4CE" stroke-miterlimit="10"/>
<path d="M1532.63 624.612C1559.29 638.663 1568.76 684.515 1548.48 707.578C1543.59 713.141 1537.41 716.94 1531.85 721.987C1526.19 727.118 1520.88 734.228 1520.17 741.662C1519.97 743.771 1520.17 745.891 1519.36 747.879C1517.61 752.187 1513.03 754.916 1508.65 756.552C1499.73 759.888 1489.95 759.956 1480.19 759.08C1477.99 758.884 1475.88 758.67 1473.86 758.435C1460.87 756.921 1451.37 754.549 1446.08 756.169C1443.82 756.86 1442.56 758.285 1438.96 758.431C1434.4 761.215 1426.83 757.331 1422.37 752.464C1416.03 745.536 1412 737.145 1406 730.102C1402.04 725.439 1397.29 721.472 1392.42 717.631C1386.95 713.318 1381.29 709.139 1376.37 704.277C1365.76 693.793 1359.24 680.092 1357.13 665.851C1354.86 650.485 1358.06 633.377 1368.96 620.96C1376.36 612.543 1386.75 607.29 1396.88 603.544C1400.45 602.227 1404.11 601.003 1408.02 601.047C1411.47 601.086 1414.87 602.123 1418.17 603.21C1422.18 604.522 1426.15 605.922 1430.1 607.329C1436.02 609.437 1441.88 611.566 1447.64 613.755C1453.11 615.829 1458.57 617.984 1464.45 618.79C1470.57 619.631 1476.85 618.945 1483.05 618.392C1500.06 616.88 1518.16 616.98 1532.63 624.612Z" stroke="#BDD4CE" stroke-miterlimit="10"/>
<path d="M1482.26 659.654C1466.38 658.702 1450.25 663.034 1434.67 659.87C1429.57 658.834 1424.6 657.006 1419.41 656.661C1414.22 656.316 1408.49 657.801 1405.48 662.05C1401.65 667.464 1403.79 675.386 1408.42 680.132C1413.05 684.879 1419.52 687.251 1425.71 689.626C1431.9 692.002 1438.31 694.724 1442.47 699.885C1451.69 711.319 1450.7 722.825 1468.08 724.073C1477.63 724.758 1487.21 720.662 1493.11 713.282C1505.4 697.885 1507.36 661.159 1482.26 659.654Z" stroke="#BDD4CE" stroke-miterlimit="10"/>
<path d="M1234.84 425.818C1218.21 411.169 1200.38 397.885 1181.59 386.14C1174.22 381.538 1166.42 377.071 1157.79 376.118C1137.55 373.883 1120.88 390.878 1107.7 406.392C1085.38 432.647 1063.07 458.906 1040.76 485.161C1028.99 499.014 1016.82 513.639 1012.95 531.403C1008.95 549.733 1014.05 570.379 1004.5 586.525C1000.45 593.361 994.159 598.58 989.592 605.081C973.812 627.547 982.1 658.655 994.161 683.316C999.148 693.518 1006.32 704.619 1017.59 705.999C1029.79 707.491 1039.99 696.622 1045.44 685.605C1050.89 674.589 1054.25 661.972 1063.31 653.673C1080.47 637.964 1107.38 645.413 1130.61 644.298C1160.59 642.859 1187.94 625.256 1207.69 602.668C1228.19 579.241 1252.73 545.423 1266.24 517.162C1282.64 482.863 1260.22 448.18 1234.84 425.818Z" stroke="#BDD4CE" stroke-miterlimit="10"/>
<path d="M1191.48 456.121C1181.55 449.019 1171.58 442.003 1160.96 436.573C1156.8 434.444 1152.44 432.314 1147.71 432.27C1135.75 432.155 1126.67 443.315 1119.27 453.19C1106.78 469.797 1093.81 486.221 1080.44 502.345C1073.38 510.852 1065.92 519.631 1062.69 529.938C1059.48 540.202 1060.92 551.637 1055.32 561.066C1052.94 565.081 1049.51 568.328 1047.03 572.238C1038.45 585.754 1042.86 603.886 1049.95 618.375C1053.23 625.059 1057.84 631.812 1064.65 633.44C1072.14 635.231 1078.87 630.477 1083.29 625.227C1087.69 620.001 1091.12 613.621 1097.4 609.114C1109.16 600.675 1125.75 602.926 1139.91 600.327C1149.59 598.549 1158.57 594.214 1166.33 588.413C1173.32 583.186 1179.73 576.462 1185.15 568.967C1196.91 552.738 1210.05 530.422 1216.29 511.748C1223.7 489.555 1209.48 468.993 1191.48 456.121Z" stroke="#BDD4CE" stroke-miterlimit="10"/>
<path d="M1148.12 486.422C1144.51 485.864 1140.59 486.277 1137.62 488.421C1133.95 491.081 1132.46 495.747 1130.84 499.988C1126.77 510.622 1120.46 520.392 1112.44 528.477C1110.2 530.736 1107.81 532.899 1106.15 535.615C1102.92 540.909 1103.01 547.877 1105.75 553.437C1116.4 575.017 1148.76 563.345 1157.85 546.479C1167.1 529.323 1175.48 490.65 1148.12 486.422Z" stroke="#BDD4CE" stroke-miterlimit="10"/>
<path d="M262.065 1459.18C271.496 1448.6 326.858 1335.19 331.661 1321.86C347.468 1277.98 353.838 1230.16 345.656 1184.25C337.474 1138.33 314.07 1094.55 277.611 1065.46C260.429 1051.76 240.568 1041.34 225.091 1025.74C200.525 1000.97 189.758 966.175 175.293 934.427C160.828 902.676 138.612 870.391 104.712 862.146C89.8015 858.519 73.6428 859.897 59.6207 853.667C39.7119 844.819 28.8274 822.886 10.4598 811.169C-6.71244 800.213 -28.3064 799.408 -47.4366 792.408C-69.7739 784.234 -88.702 767.131 -99.0884 745.733" stroke="#BDD4CE" stroke-miterlimit="10"/>
<path d="M214.243 1500.87C222.397 1491.63 299.45 1344.82 303.689 1333.25C317.631 1295.16 323.386 1253.63 316.667 1213.66C309.948 1173.7 290.001 1135.72 259.219 1109.65C254.21 1105.41 248.977 1101.39 243.528 1097.59C232.746 1090.07 221.562 1083.46 212.002 1074.86C208.194 1071.41 204.709 1067.73 201.497 1063.8C187.933 1047.26 179.281 1026.34 170.545 1005.92C168.947 1002.19 167.343 998.471 165.695 994.789C158.383 978.474 149.119 961.956 136.869 949.203C127.647 939.614 116.73 932.191 103.903 928.579C90.7612 924.868 76.4603 925.45 63.8695 919.839C45.9944 911.87 35.5042 893.29 18.7906 883.589C12.0983 879.702 4.73231 877.425 -2.84595 875.692C-12.9417 873.378 -23.4423 872.013 -33.2674 868.949C-53.3895 862.709 -70.6648 848.972 -80.7924 830.619" stroke="#BDD4CE" stroke-miterlimit="10"/>
<path d="M191.275 1493.22C198.151 1485.31 272.041 1354.45 275.712 1344.64C287.789 1312.34 292.927 1277.09 287.672 1243.08C282.418 1209.06 265.947 1176.85 240.82 1153.84C236.569 1149.95 232.177 1146.15 227.385 1142.73C217.897 1135.96 207.728 1130.84 198.902 1123.98C195.391 1121.25 192.154 1118.29 189.15 1115.08C176.408 1101.55 168.105 1083.13 160.348 1065.04C158.931 1061.73 157.519 1058.43 156.084 1055.16C149.712 1040.63 141.948 1025.88 131.465 1014.26C123.588 1005.56 114.166 998.697 103.083 995.018C91.7115 991.224 79.2668 991.011 68.1088 986.017C52.2676 978.927 42.1694 963.701 27.1139 956.015C21.0904 952.936 14.5293 951.212 7.81108 950C-1.12425 948.377 -10.3855 947.625 -19.107 945.498C-37.0145 941.19 -52.639 930.82 -62.5033 915.514" stroke="#BDD4CE" stroke-miterlimit="10"/>
<path d="M168.557 1489.2C174.155 1482.63 244.635 1364.08 247.737 1356.03C257.95 1329.53 262.47 1300.56 258.681 1272.49C254.893 1244.43 241.939 1217.89 222.427 1198.03C218.94 1194.48 215.383 1190.91 211.251 1187.88C203.058 1181.85 193.916 1178.2 185.81 1173.1C182.602 1171.08 179.614 1168.85 176.81 1166.36C164.92 1155.8 156.934 1139.92 150.158 1124.16C148.919 1121.28 147.705 1118.39 146.48 1115.53C141.047 1102.79 134.785 1089.8 126.069 1079.33C119.536 1071.51 111.606 1065.21 102.268 1061.46C92.6664 1057.58 82.0774 1056.57 72.3527 1052.2C58.5473 1045.98 48.8419 1034.11 35.4398 1028.44C30.083 1026.17 24.3247 1025 18.4701 1024.31C10.6947 1023.37 2.67537 1023.22 -4.94272 1022.05C-20.6308 1019.64 -34.6087 1012.67 -44.2102 1000.41" stroke="#BDD4CE" stroke-miterlimit="10"/>
<path d="M141.975 1495.09C146.294 1489.85 217.225 1373.71 219.763 1367.42C228.111 1346.71 232.014 1324.03 229.691 1301.91C227.366 1279.79 218.007 1258.82 204.032 1242.22C201.316 1238.99 198.587 1235.67 195.114 1233.02C188.216 1227.74 180.108 1225.56 172.715 1222.22C169.812 1220.9 167.064 1219.41 164.47 1217.64C153.398 1210.08 145.764 1196.71 139.968 1183.28C138.909 1180.82 137.888 1178.35 136.876 1175.89C132.38 1164.95 127.618 1153.71 120.674 1144.39C115.486 1137.45 109.052 1131.71 101.454 1127.9C93.6214 1123.93 84.8902 1122.13 76.5989 1118.37C64.8272 1113.04 55.516 1104.52 43.768 1100.87C39.0777 1099.4 34.1265 1098.79 29.1319 1098.62C22.517 1098.37 15.7338 1098.83 9.22439 1098.6C-4.25363 1098.12 -16.5742 1094.51 -25.9144 1085.3" stroke="#BDD4CE" stroke-miterlimit="10"/>
<path d="M730.36 1046.49C740.162 1032.65 754.306 1022.49 765.083 1009.4C775.859 996.305 783.141 977.82 775.955 962.46C773.961 958.195 770.897 954.265 770.332 949.59C769.36 941.565 776.035 934.653 782.954 930.472C800.081 920.122 820.903 918.488 839.995 912.496C859.088 906.504 878.732 892.943 880.436 873.004C881.181 864.295 878.402 855.002 882.05 847.06C888.732 832.514 910.471 834.251 924.29 842.33C943.928 853.812 958.217 872.584 976.642 885.93C1002.52 904.671 1035.05 911.712 1062.69 927.737C1094.2 946.003 1118.6 976.18 1129.87 1010.81C1141.14 1045.44 1139.17 1084.2 1124.45 1117.51C1115.04 1138.8 1100.81 1157.58 1085.98 1175.52C1080.68 1181.91 1075.03 1188.44 1067.45 1191.82C1060.76 1194.81 1053.2 1195.06 1045.88 1195.08C1023.72 1195.14 1001.56 1193.59 979.636 1190.43C967.194 1188.64 954.586 1186.33 942.137 1188.08C929.169 1189.91 917.268 1196.01 905.431 1201.61C872.983 1216.97 835.625 1229.22 801.727 1217.41C743.311 1197.05 690.6 1102.63 730.36 1046.49Z" stroke="#BDD4CE" stroke-miterlimit="10"/>
<path d="M837.19 1167.33C793.105 1155.02 754.447 1087.88 779.956 1045.55C786.208 1035.18 795.526 1027.26 802.69 1017.4C809.851 1007.47 814.791 993.998 810.272 982.697C809.011 979.54 807.008 976.615 806.784 973.2C806.37 966.873 811.417 961.347 816.66 957.742C827.334 950.401 840.212 947.398 852.987 944.153C855.788 943.439 858.535 942.717 861.219 941.955C877.125 937.447 891.868 930.088 894.888 918.553C896.222 913.452 895.529 908.213 898.657 903.308C904.367 894.358 918.759 895.359 928.593 900.929C942.576 908.849 953.039 921.498 966.269 930.462C975.029 936.4 984.776 940.577 994.695 944.457C1005.82 948.806 1017.17 952.79 1027.62 958.473C1050.14 970.734 1067.69 991.149 1076.78 1014.81C1086.06 1038.95 1086.54 1066.94 1076.14 1091.28C1069.41 1107.15 1058.29 1120.78 1046.74 1133.21C1042.64 1137.64 1038.3 1142.1 1032.66 1144.43C1027.69 1146.5 1022.13 1146.71 1016.73 1146.77C1010.19 1146.85 1003.64 1146.75 997.115 1146.51C987.345 1146.16 977.618 1145.5 967.962 1144.5C958.819 1143.56 949.58 1142.31 940.456 1143.81C930.952 1145.37 922.164 1149.81 913.422 1153.92C889.451 1165.21 862.269 1174.33 837.19 1167.33Z" stroke="#BDD4CE" stroke-miterlimit="10"/>
<path d="M872.655 1117.25C842.81 1113.1 818.322 1073.19 829.552 1044.61C832.261 1037.72 836.779 1032.04 840.294 1025.41C843.872 1018.66 846.447 1010.17 844.585 1002.94C844.058 1000.88 843.148 998.958 843.234 996.813C843.417 992.166 846.798 988.043 850.36 985.016C857.618 978.845 866.79 975.458 876.272 972.962C878.406 972.399 880.461 971.883 882.442 971.417C895.173 968.426 904.909 967.429 909.336 964.106C911.223 962.69 911.923 960.921 915.259 959.56C918.605 955.391 927.044 956.47 932.891 959.533C941.216 963.89 947.855 970.412 955.889 974.998C961.202 978.035 967.017 980.152 972.901 982.109C979.514 984.305 986.257 986.312 992.538 989.212C1006.08 995.465 1016.86 1006.14 1023.69 1018.81C1031.05 1032.49 1033.86 1049.67 1027.82 1065.05C1023.73 1075.48 1015.74 1083.95 1007.48 1090.92C1004.58 1093.37 1001.55 1095.77 997.862 1097.05C994.606 1098.19 991.055 1098.37 987.575 1098.47C983.363 1098.6 979.149 1098.63 974.954 1098.65C968.674 1098.68 962.444 1098.67 956.274 1098.57C950.433 1098.48 944.563 1098.31 938.76 1099.55C932.717 1100.84 927.044 1103.62 921.396 1106.25C905.92 1113.45 888.865 1119.51 872.655 1117.25Z" stroke="#BDD4CE" stroke-miterlimit="10"/>
<path d="M908.119 1067.17C923.374 1062.67 937.069 1053.11 952.802 1050.79C957.95 1050.03 963.242 1050.06 968.242 1048.62C973.242 1047.18 978.127 1043.84 979.508 1038.82C981.269 1032.43 976.564 1025.71 970.598 1022.81C964.631 1019.92 957.74 1019.89 951.112 1019.76C944.483 1019.63 937.532 1019.25 931.865 1015.81C919.31 1008.19 916.324 997.035 899.56 1001.77C890.34 1004.37 882.725 1011.48 879.689 1020.42C873.357 1039.08 883.996 1074.29 908.119 1067.17Z" stroke="#BDD4CE" stroke-miterlimit="10"/>
<path d="M32.3497 294.007C52.9667 302.131 74.2498 308.564 95.9161 313.221C104.405 315.047 113.265 316.595 121.706 314.557C141.496 309.78 151.398 288.131 158.523 269.059C170.582 236.782 182.642 204.503 194.701 172.226C201.063 155.197 207.535 137.307 205.137 119.284C202.663 100.688 190.855 83.0028 194.349 64.5719C195.829 56.7678 199.973 49.7207 202.058 42.0548C209.262 15.5627 190.893 -10.8755 171.168 -29.9693C163.01 -37.8678 152.49 -45.8701 141.422 -43.3364C129.443 -40.5938 123.541 -26.9028 122.164 -14.6912C120.788 -2.4796 121.912 10.5294 116.21 21.4153C105.418 42.0196 77.5737 44.1626 56.1034 53.1081C28.4028 64.6504 8.66722 90.5015 -2.23558 118.46C-13.5448 147.458 -25.1285 187.604 -28.2335 218.777C-31.9986 256.609 0.877509 281.605 32.3497 294.007Z" stroke="#BDD4CE" stroke-miterlimit="10"/>
<path d="M62.8244 250.771C74.575 254.075 86.3427 257.282 98.1753 258.779C102.812 259.367 107.631 259.89 112.1 258.321C123.386 254.365 128.127 240.785 131.734 228.981C137.834 209.117 144.447 189.263 151.544 169.553C155.288 159.154 159.321 148.362 158.851 137.572C158.381 126.828 153.139 116.564 155.204 105.791C156.082 101.205 158.2 96.9866 159.206 92.4651C162.678 76.8391 152.367 61.2854 140.771 50.071C135.417 44.8981 128.788 40.1144 121.831 40.8973C114.176 41.7598 109.466 48.5168 107.091 54.9577C104.727 61.3697 103.668 68.5355 99.2954 74.909C91.1085 86.8413 74.7355 90.366 62.3103 97.6199C53.8099 102.583 46.8346 109.713 41.5095 117.807C36.7094 125.1 32.9668 133.602 30.4204 142.492C24.8759 161.752 20.1019 187.207 20.5889 206.887C21.1629 230.278 41.5248 244.782 62.8244 250.771Z" stroke="#BDD4CE" stroke-miterlimit="10"/>
<path d="M93.2996 207.537C96.8863 206.833 100.438 205.11 102.495 202.088C105.05 198.336 104.857 193.443 104.942 188.903C105.156 177.519 107.768 166.186 112.561 155.856C113.899 152.971 115.42 150.122 116.053 147.005C117.289 140.928 114.838 134.406 110.368 130.108C93.0186 113.433 66.5584 135.408 63.743 154.359C60.8758 173.638 66.1364 212.859 93.2996 207.537Z" stroke="#BDD4CE" stroke-miterlimit="10"/>
</g>
<defs>
<clipPath id="clip0_202_14845">
<rect width="1728" height="1117" fill="white"/>
</clipPath>
</defs>
</svg>
