<svg width="1728" height="1426" viewBox="0 0 1728 1426" fill="none" xmlns="http://www.w3.org/2000/svg">
<g opacity="0.5" clip-path="url(#clip0_335_149652)">
<path d="M1689.14 1007.87L1689.55 1007.56L1689.55 1007.56L1689.14 1007.87ZM1657 680.766L1657.43 680.968V680.968L1657 680.766ZM1695.51 609.58L1695.97 609.731V609.731L1695.51 609.58ZM1714.16 478.895L1714.66 478.893V478.893L1714.16 478.895ZM1759.63 360.973L1759.92 361.354L1759.92 361.354L1759.63 360.973ZM1801.23 330.04L1801.59 330.351L1801.59 330.351L1801.23 330.04ZM1835.51 257.148L1835.92 257.396L1835.92 257.396L1835.51 257.148ZM1886.3 208.157L1885.96 207.82L1885.96 207.82L1886.3 208.157ZM1803.44 1137.29L1803.15 1137.73C1801.5 1136.69 1798.62 1134.08 1794.86 1130.34C1791.09 1126.59 1786.39 1121.65 1781.09 1115.92C1770.48 1104.46 1757.45 1089.79 1744.54 1074.96C1718.72 1045.31 1693.33 1014.95 1688.72 1008.18L1689.14 1007.87L1689.55 1007.56C1694.12 1014.27 1719.47 1044.58 1745.3 1074.25C1758.22 1089.08 1771.24 1103.74 1781.84 1115.19C1787.13 1120.92 1791.82 1125.85 1795.59 1129.59C1799.36 1133.35 1802.17 1135.88 1803.72 1136.86L1803.44 1137.29ZM1689.14 1007.87L1688.72 1008.18C1658.5 963.794 1636.27 910.355 1629.03 852.39L1629.52 852.283L1630.01 852.176C1637.23 909.97 1659.4 963.272 1689.55 1007.56L1689.14 1007.87ZM1629.52 852.283L1629.03 852.39C1621.79 794.429 1630.27 731.869 1656.57 680.564L1657 680.766L1657.43 680.968C1631.26 732.04 1622.79 794.378 1630.01 852.176L1629.52 852.283ZM1657 680.766L1656.57 680.564C1662.76 668.483 1669.89 657.053 1676.7 645.484C1683.53 633.905 1690.05 622.171 1695.05 609.429L1695.51 609.58L1695.97 609.731C1690.93 622.559 1684.37 634.356 1677.54 645.946C1670.71 657.548 1663.61 668.926 1657.43 680.968L1657 680.766ZM1695.51 609.58L1695.05 609.429C1703 589.202 1706.74 567.615 1708.95 545.552C1710.05 534.522 1710.77 523.379 1711.45 512.231C1712.12 501.086 1712.75 489.933 1713.67 478.897L1714.16 478.895L1714.66 478.893C1713.74 489.914 1713.11 501.051 1712.44 512.203C1711.76 523.352 1711.04 534.513 1709.93 545.566C1707.72 567.67 1703.97 589.368 1695.97 609.731L1695.51 609.58ZM1714.16 478.895L1713.67 478.897C1715.51 456.815 1719.22 433.652 1726.31 412.81C1733.41 391.971 1743.9 373.412 1759.34 360.593L1759.63 360.973L1759.92 361.354C1744.7 373.991 1734.3 392.335 1727.25 413.064C1720.19 433.789 1716.49 456.858 1714.66 478.893L1714.16 478.895ZM1759.63 360.973L1759.34 360.593C1766.11 354.963 1773.63 350.663 1780.85 346.079C1788.08 341.484 1795.05 336.587 1800.86 329.73L1801.23 330.04L1801.59 330.351C1795.66 337.345 1788.57 342.316 1781.31 346.924C1774.04 351.544 1766.62 355.784 1759.92 361.354L1759.63 360.973ZM1801.23 330.04L1800.86 329.73C1809.12 319.983 1814.12 307.435 1818.83 294.456C1823.53 281.512 1827.96 268.133 1835.1 256.901L1835.51 257.148L1835.92 257.396C1828.86 268.497 1824.48 281.729 1819.76 294.731C1815.05 307.697 1810 320.429 1801.59 330.351L1801.23 330.04ZM1835.51 257.148L1835.1 256.901C1841.78 246.384 1850.41 238.373 1859.39 230.867C1868.4 223.346 1877.73 216.356 1885.96 207.82L1886.3 208.157L1886.64 208.495C1878.35 217.09 1868.92 224.155 1859.98 231.626C1851.02 239.112 1842.5 247.031 1835.92 257.396L1835.51 257.148ZM1886.3 208.157L1885.96 207.82C1905.15 187.918 1918.05 159.102 1921.15 129.18L1921.64 129.188L1922.13 129.197C1919.02 159.332 1906.02 188.39 1886.64 208.495L1886.3 208.157Z" fill="#BDD4CE"/>
<path d="M1720.62 1009.9L1720.21 1010.21L1720.21 1010.21L1720.62 1009.9ZM1689.94 725.787L1690.38 725.976L1690.38 725.976L1689.94 725.787ZM1701.39 704.285L1701.81 704.515V704.515L1701.39 704.285ZM1724.9 662.852L1725.35 663.027L1725.35 663.028L1724.9 662.852ZM1731.58 644.941L1731.1 644.831L1731.1 644.831L1731.58 644.941ZM1742.81 562.371L1742.31 562.383V562.383L1742.81 562.371ZM1743.88 547L1743.39 547.004L1743.39 547.004L1743.88 547ZM1757.11 479.895L1756.65 479.751L1756.65 479.751L1757.11 479.895ZM1782.74 440.279L1783.05 440.646L1783.05 440.646L1782.74 440.279ZM1819.31 411.38L1819.67 411.69L1819.67 411.69L1819.31 411.38ZM1851.68 347.724L1852.07 347.99L1852.07 347.99L1851.68 347.724ZM1870.38 328.366L1870.67 328.752L1870.67 328.752L1870.38 328.366ZM1898.13 306.286L1897.81 305.93L1897.81 305.929L1898.13 306.286ZM1864.7 1165.83L1864.41 1166.27C1863.68 1165.8 1862.52 1164.83 1860.99 1163.43C1859.46 1162.03 1857.54 1160.18 1855.29 1157.95C1850.79 1153.49 1844.96 1147.5 1838.26 1140.48C1824.86 1126.44 1807.95 1108.26 1791.13 1089.94C1774.32 1071.62 1757.6 1053.16 1744.58 1038.54C1731.58 1023.95 1722.24 1013.16 1720.21 1010.21L1720.62 1009.9L1721.04 1009.58C1723.03 1012.47 1732.31 1023.2 1745.34 1037.83C1758.36 1052.44 1775.07 1070.9 1791.88 1089.22C1808.69 1107.53 1825.6 1125.71 1839 1139.74C1845.7 1146.76 1851.52 1152.75 1856.01 1157.2C1858.26 1159.42 1860.17 1161.26 1861.69 1162.65C1863.22 1164.05 1864.33 1164.98 1864.99 1165.4L1864.7 1165.83ZM1720.62 1009.9L1720.21 1010.21C1693.73 971.766 1674.18 925.432 1667.47 875.139L1667.96 875.028L1668.45 874.916C1675.14 925.041 1694.63 971.24 1721.04 1009.58L1720.62 1009.9ZM1667.96 875.028L1667.47 875.139C1660.76 824.847 1667.78 770.73 1689.5 725.598L1689.94 725.787L1690.38 725.976C1668.77 770.887 1661.77 824.791 1668.45 874.916L1667.96 875.028ZM1689.94 725.787L1689.5 725.598C1693.03 718.256 1696.86 711.077 1700.97 704.055L1701.39 704.285L1701.81 704.515C1697.71 711.511 1693.9 718.662 1690.38 725.976L1689.94 725.787ZM1701.39 704.285L1700.97 704.055C1709.12 690.14 1717.91 677.216 1724.46 662.676L1724.9 662.852L1725.35 663.028C1718.77 677.641 1709.91 690.687 1701.81 704.515L1701.39 704.285ZM1724.9 662.852L1724.46 662.677C1727.05 656.874 1729.25 650.933 1731.1 644.831L1731.58 644.941L1732.05 645.05C1730.18 651.193 1727.97 657.179 1725.35 663.027L1724.9 662.852ZM1731.58 644.941L1731.1 644.831C1738.95 619.118 1740.5 590.518 1742.31 562.383L1742.81 562.371L1743.3 562.359C1741.49 590.455 1739.94 619.192 1732.05 645.051L1731.58 644.941ZM1742.81 562.371L1742.31 562.383C1742.64 557.24 1742.99 552.112 1743.39 547.004L1743.88 547L1744.37 546.995C1743.98 552.096 1743.63 557.218 1743.3 562.359L1742.81 562.371ZM1743.88 547L1743.39 547.004C1745.16 524.365 1748.79 500.54 1756.65 479.751L1757.11 479.895L1757.57 480.039C1749.77 500.686 1746.14 524.395 1744.37 546.995L1743.88 547ZM1757.11 479.895L1756.65 479.751C1762.57 464.112 1770.9 450.206 1782.44 439.911L1782.74 440.279L1783.05 440.646C1771.69 450.783 1763.45 464.513 1757.57 480.04L1757.11 479.895ZM1782.74 440.279L1782.44 439.911C1788.33 434.641 1794.88 430.502 1801.22 426.161C1807.57 421.809 1813.72 417.239 1818.94 411.07L1819.31 411.38L1819.67 411.69C1814.35 417.982 1808.08 422.622 1801.72 426.984C1795.34 431.358 1788.88 435.438 1783.05 440.646L1782.74 440.279ZM1819.31 411.38L1818.94 411.07C1826.36 402.302 1831.11 391.268 1835.68 379.959C1840.24 368.681 1844.61 357.121 1851.28 347.459L1851.68 347.724L1852.07 347.99C1845.49 357.523 1841.17 368.943 1836.59 380.271C1832.03 391.567 1827.22 402.763 1819.67 411.69L1819.31 411.38ZM1851.68 347.724L1851.28 347.459C1856.63 339.706 1863.18 333.56 1870.1 327.981L1870.38 328.366L1870.67 328.752C1863.79 334.298 1857.33 340.364 1852.07 347.99L1851.68 347.724ZM1870.38 328.366L1870.1 327.981C1874.7 324.265 1879.48 320.776 1884.18 317.214C1888.88 313.647 1893.5 309.996 1897.81 305.93L1898.13 306.286L1898.45 306.643C1894.09 310.752 1889.43 314.432 1884.72 318.006C1880 321.586 1875.25 325.05 1870.67 328.752L1870.38 328.366ZM1898.13 306.286L1897.81 305.929C1915.48 289.323 1927.88 265.231 1931.73 239.013L1932.22 239.044L1932.71 239.075C1928.83 265.516 1916.31 289.847 1898.45 306.644L1898.13 306.286Z" fill="#BDD4CE"/>
<path d="M1751.93 1011.42L1752.34 1011.11L1752.34 1011.11L1751.93 1011.42ZM1706.33 897.361L1706.82 897.244L1706.82 897.244L1706.33 897.361ZM1722.77 770.496L1723.22 770.668V770.668L1722.77 770.496ZM1732.3 751.173L1732.73 751.398L1732.73 751.398L1732.3 751.173ZM1754.12 715.854L1754.55 716.061L1754.55 716.061L1754.12 715.854ZM1760.76 700.842L1760.3 700.704L1760.3 700.702L1760.76 700.842ZM1772.47 628.531L1772.96 628.519L1772.96 628.519L1772.47 628.531ZM1773.38 614.909L1772.88 614.917L1772.88 614.917L1773.38 614.909ZM1784.01 555.309L1783.55 555.179L1783.55 555.178L1784.01 555.309ZM1805.56 519.458L1805.89 519.807L1805.89 519.808L1805.56 519.458ZM1837.01 492.612L1837.38 492.922V492.922L1837.01 492.612ZM1867.41 438.234L1867.79 438.522L1867.79 438.523L1867.41 438.234ZM1884.42 422.184L1884.68 422.585L1884.68 422.586L1884.42 422.184ZM1909.43 404.379L1909.14 403.999L1909.14 403.998L1909.43 404.379ZM1884.58 1147.21L1884.29 1147.64C1883.07 1146.85 1880.19 1144.27 1876.11 1140.41C1872.01 1136.52 1866.66 1131.3 1860.49 1125.17C1848.15 1112.92 1832.51 1097.07 1816.94 1081.09C1801.38 1065.11 1785.89 1049.02 1773.87 1036.31C1767.86 1029.95 1762.71 1024.43 1758.85 1020.2C1754.99 1015.98 1752.4 1013 1751.52 1011.74L1751.93 1011.42L1752.34 1011.11C1753.18 1012.31 1755.73 1015.24 1759.6 1019.48C1763.45 1023.7 1768.6 1029.21 1774.61 1035.57C1786.63 1048.28 1802.11 1064.37 1817.68 1080.35C1833.24 1096.32 1848.88 1112.18 1861.22 1124.42C1867.38 1130.54 1872.73 1135.76 1876.82 1139.64C1880.93 1143.53 1883.74 1146.04 1884.87 1146.78L1884.58 1147.21ZM1751.93 1011.42L1751.52 1011.74C1728.83 979.266 1712 940.066 1705.84 897.478L1706.33 897.361L1706.82 897.244C1712.96 939.668 1729.73 978.734 1752.34 1011.11L1751.93 1011.42ZM1706.33 897.361L1705.84 897.478C1699.68 854.89 1705.18 809.197 1722.32 770.323L1722.77 770.496L1723.22 770.668C1706.17 809.335 1700.68 854.825 1706.82 897.244L1706.33 897.361ZM1722.77 770.496L1722.32 770.324C1725.21 763.758 1728.29 757.226 1731.88 750.948L1732.3 751.173L1732.73 751.398C1729.16 757.626 1726.11 764.116 1723.22 770.668L1722.77 770.496ZM1732.3 751.173L1731.88 750.949C1735.44 744.738 1739.3 738.935 1743.06 733.182C1746.83 727.422 1750.49 721.708 1753.68 715.646L1754.12 715.854L1754.55 716.061C1751.33 722.175 1747.63 727.929 1743.87 733.689C1740.1 739.455 1736.26 745.224 1732.73 751.398L1732.3 751.173ZM1754.12 715.854L1753.68 715.646C1756.22 710.824 1758.42 705.861 1760.3 700.704L1760.76 700.842L1761.22 700.98C1759.32 706.184 1757.11 711.193 1754.55 716.061L1754.12 715.854ZM1760.76 700.842L1760.3 700.702C1768.31 678.934 1770.36 653.463 1771.97 628.543L1772.47 628.531L1772.96 628.519C1771.35 653.417 1769.3 679.042 1761.22 700.982L1760.76 700.842ZM1772.47 628.531L1771.97 628.543C1772.27 623.988 1772.56 619.442 1772.88 614.917L1773.38 614.909L1773.87 614.901C1773.55 619.421 1773.26 623.963 1772.96 628.519L1772.47 628.531ZM1773.38 614.909L1772.88 614.917C1774.32 594.836 1777.06 573.793 1783.55 555.179L1784.01 555.309L1784.48 555.44C1778.04 573.916 1775.31 594.847 1773.87 614.901L1773.38 614.909ZM1784.01 555.309L1783.55 555.178C1788.43 541.214 1795.46 528.667 1805.23 519.109L1805.56 519.458L1805.89 519.808C1796.28 529.209 1789.32 541.587 1784.48 555.441L1784.01 555.309ZM1805.56 519.458L1805.23 519.109C1810.24 514.201 1815.81 510.227 1821.25 506.131C1826.7 502.024 1832.03 497.783 1836.65 492.303L1837.01 492.612L1837.38 492.922C1832.67 498.507 1827.25 502.812 1821.79 506.925C1816.31 511.047 1810.82 514.965 1805.89 519.807L1805.56 519.458ZM1837.01 492.612L1836.65 492.303C1843.22 484.517 1847.72 475.004 1852.13 465.37C1856.53 455.764 1860.84 446.031 1867.03 437.946L1867.41 438.234L1867.79 438.523C1861.7 446.483 1857.44 456.085 1853.02 465.729C1848.62 475.346 1844.06 484.999 1837.38 492.922L1837.01 492.612ZM1867.41 438.234L1867.03 437.947C1871.98 431.461 1877.92 426.347 1884.15 421.782L1884.42 422.184L1884.68 422.586C1878.49 427.117 1872.65 432.157 1867.79 438.522L1867.41 438.234ZM1884.42 422.184L1884.15 421.783C1888.29 418.744 1892.59 415.921 1896.82 413.054C1901.05 410.181 1905.22 407.258 1909.14 403.999L1909.43 404.379L1909.73 404.759C1905.76 408.056 1901.56 411.004 1897.32 413.88C1893.07 416.761 1888.8 419.563 1884.68 422.585L1884.42 422.184ZM1909.43 404.379L1909.14 403.998C1925.25 390.691 1937.12 371.336 1941.71 348.846L1942.2 348.907L1942.68 348.967C1938.04 371.696 1926.03 391.283 1909.73 404.76L1909.43 404.379Z" fill="#BDD4CE"/>
<path d="M1783.26 1013L1783.67 1012.68L1783.67 1012.68L1783.26 1013ZM1744.71 919.733L1745.2 919.609V919.609L1744.71 919.733ZM1755.61 815.234L1755.15 815.085V815.085L1755.61 815.234ZM1763.23 798.091L1763.66 798.31L1763.66 798.31L1763.23 798.091ZM1783.35 768.88L1782.94 768.63V768.63L1783.35 768.88ZM1789.96 756.768L1790.41 756.947L1790.41 756.947L1789.96 756.768ZM1802.15 694.712L1801.65 694.724L1801.65 694.724L1802.15 694.712ZM1802.89 682.839L1803.39 682.827L1803.39 682.827L1802.89 682.839ZM1810.94 630.742L1810.46 630.629L1810.46 630.629L1810.94 630.742ZM1828.41 598.655L1828.76 598.979L1828.76 598.98L1828.41 598.655ZM1854.76 573.862L1855.13 574.17L1855.13 574.17L1854.76 573.862ZM1883.18 528.757L1883.54 529.075L1883.54 529.075L1883.18 528.757ZM1898.5 516.01L1898.74 516.432L1898.74 516.432L1898.5 516.01ZM1920.78 502.478L1920.53 502.067L1920.53 502.067L1920.78 502.478ZM1905.45 1133.03L1905.16 1133.46C1904.16 1132.79 1901.59 1130.53 1897.88 1127.11C1894.16 1123.68 1889.25 1119.05 1883.57 1113.62C1872.19 1102.75 1857.7 1088.66 1843.26 1074.48C1828.82 1060.3 1814.45 1046.03 1803.32 1034.8C1797.76 1029.18 1793.01 1024.33 1789.47 1020.63C1785.94 1016.93 1783.59 1014.36 1782.85 1013.32L1783.26 1013L1783.67 1012.68C1784.36 1013.65 1786.66 1016.17 1790.21 1019.89C1793.74 1023.59 1798.49 1028.44 1804.05 1034.05C1815.17 1045.28 1829.55 1059.54 1843.98 1073.72C1858.41 1087.9 1872.91 1101.99 1884.28 1112.85C1889.96 1118.29 1894.86 1122.91 1898.58 1126.34C1902.31 1129.78 1904.82 1131.98 1905.75 1132.6L1905.45 1133.03ZM1783.26 1013L1782.85 1013.32C1763.95 986.812 1749.84 954.743 1744.22 919.858L1744.71 919.733L1745.2 919.609C1750.79 954.335 1764.84 986.273 1783.67 1012.68L1783.26 1013ZM1744.71 919.733L1744.22 919.858C1738.6 884.97 1742.53 847.624 1755.15 815.085L1755.61 815.234L1756.07 815.382C1743.52 847.735 1739.6 884.891 1745.2 919.609L1744.71 919.733ZM1755.61 815.234L1755.15 815.085C1757.4 809.288 1759.73 803.404 1762.81 797.872L1763.23 798.091L1763.66 798.31C1760.62 803.764 1758.32 809.58 1756.07 815.382L1755.61 815.234ZM1763.23 798.091L1762.81 797.872C1765.85 792.391 1769.33 787.506 1772.82 782.783C1776.32 778.052 1779.81 773.495 1782.94 768.63L1783.35 768.88L1783.75 769.129C1780.6 774.036 1777.07 778.636 1773.59 783.344C1770.11 788.06 1766.67 792.895 1763.66 798.31L1763.23 798.091ZM1783.35 768.88L1782.94 768.63C1785.41 764.786 1787.59 760.797 1789.51 756.59L1789.96 756.768L1790.41 756.947C1788.46 761.204 1786.25 765.24 1783.75 769.129L1783.35 768.88ZM1789.96 756.768L1789.51 756.59C1797.65 738.739 1800.23 716.425 1801.65 694.724L1802.15 694.712L1802.64 694.701C1801.22 716.399 1798.64 738.893 1790.41 756.947L1789.96 756.768ZM1802.15 694.712L1801.65 694.724C1801.91 690.754 1802.15 686.8 1802.4 682.852L1802.89 682.839L1803.39 682.827C1803.14 686.767 1802.9 690.732 1802.64 694.701L1802.15 694.712ZM1802.89 682.839L1802.4 682.852C1803.51 665.327 1805.35 647.068 1810.46 630.629L1810.94 630.742L1811.41 630.855C1806.33 647.162 1804.5 665.313 1803.39 682.827L1802.89 682.839ZM1810.94 630.742L1810.46 630.629C1814.31 618.334 1820.05 607.154 1828.06 598.33L1828.41 598.655L1828.76 598.98C1820.89 607.651 1815.22 618.672 1811.41 630.856L1810.94 630.742ZM1828.41 598.655L1828.06 598.331C1832.17 593.785 1836.76 589.977 1841.31 586.122C1845.86 582.26 1850.38 578.345 1854.4 573.553L1854.76 573.862L1855.13 574.17C1851.04 579.044 1846.45 583.014 1841.9 586.876C1837.33 590.746 1832.81 594.501 1828.76 598.979L1828.41 598.655ZM1854.76 573.862L1854.4 573.553C1860.11 566.745 1864.36 558.749 1868.62 550.79C1872.87 542.852 1877.12 534.947 1882.82 528.44L1883.18 528.757L1883.54 529.075C1877.94 535.467 1873.74 543.252 1869.48 551.211C1865.24 559.148 1860.93 567.255 1855.13 574.17L1854.76 573.862ZM1883.18 528.757L1882.82 528.44C1887.39 523.223 1892.71 519.141 1898.26 515.589L1898.5 516.01L1898.74 516.432C1893.23 519.951 1888 523.967 1883.54 529.075L1883.18 528.757ZM1898.5 516.01L1898.26 515.589C1901.95 513.226 1905.76 511.064 1909.51 508.887C1913.28 506.708 1917 504.512 1920.53 502.067L1920.78 502.478L1921.04 502.888C1917.46 505.36 1913.71 507.576 1909.94 509.756C1906.17 511.939 1902.39 514.085 1898.74 516.432L1898.5 516.01ZM1920.78 502.478L1920.53 502.067C1935.06 492.014 1946.41 477.43 1951.74 458.669L1952.22 458.769L1952.69 458.869C1947.29 477.896 1935.77 492.696 1921.04 502.888L1920.78 502.478Z" fill="#BDD4CE"/>
<path d="M1305.5 1149.25C1277.31 1128.22 1246.75 1103.19 1240.04 1063.06C1234.55 1030.22 1246.79 995.519 1245.09 961.833C1243.46 929.468 1229.22 900.957 1223.27 869.623C1214.97 825.88 1223.49 777.991 1241.58 737.268C1272.61 667.4 1332.48 616.886 1395.85 607.096C1418.4 603.613 1441.53 604.883 1463.31 596.08C1479.63 589.48 1494.31 577.555 1509.9 568.433C1539.08 551.357 1571.75 544.226 1603.13 548.083C1611.87 549.156 1620.82 551.22 1627.77 557.466C1640.51 568.898 1643.22 591.669 1639.34 611.142C1635.46 630.615 1626.32 648.05 1618.81 666.055C1588.56 738.62 1584.5 822.498 1592.1 901.347C1594.45 925.825 1597.94 950.38 1606.09 972.57C1617.08 1002.48 1635.91 1026.48 1654.4 1049.89C1662.38 1059.99 1666.03 1073.59 1664.78 1087.99C1663.54 1102.4 1657.73 1115.91 1650.94 1128.09C1624.52 1175.52 1580.87 1208.42 1535.21 1215.3C1516.47 1218.13 1497.63 1216.79 1479.06 1214.38C1419.7 1206.69 1355.66 1186.69 1305.5 1149.25Z" stroke="#BDD4CE" stroke-miterlimit="10"/>
<path d="M1570.06 953.219C1578.02 977.476 1591.62 997.949 1605.31 1017.84C1611.18 1026.37 1613.85 1037.48 1612.81 1049.23C1611.77 1061 1607.3 1072.09 1602.07 1082.18C1581.64 1121.78 1547.85 1150.15 1511.03 1157.38C1496.01 1160.28 1480.7 1159.83 1465.32 1158.27C1418.74 1151.24 1368.27 1135.92 1328.68 1106.36C1306.29 1089.63 1282.38 1069.42 1276.75 1037.66C1272.14 1011.66 1281.09 984.135 1279.89 957.349C1278.78 930.867 1268.78 907.458 1265.2 881.984C1260.18 846.506 1268.13 808.014 1282.68 774.674C1306.98 719.348 1352.32 678.164 1401.52 668.373C1419.02 664.903 1436.95 665.17 1453.87 658.033C1466.65 652.587 1478.19 643.28 1490.4 636.193C1513.44 622.843 1539.05 617.54 1563.58 620.907C1570.41 621.845 1577.39 623.555 1582.86 628.436C1592.87 637.353 1595.32 654.867 1592.79 669.979C1590.25 685.064 1583.72 698.684 1578.39 712.782C1556.82 769.446 1554.4 835.287 1559.94 897.215C1561.67 916.459 1564.31 935.663 1570.06 953.219Z" stroke="#BDD4CE" stroke-miterlimit="10"/>
<path d="M1534.05 933.812C1538.96 952.472 1547.35 969.336 1556.23 985.737C1559.99 992.677 1561.67 1001.31 1560.85 1010.39C1560.01 1019.53 1556.85 1028.2 1553.19 1036.19C1538.69 1067.91 1514.85 1091.92 1486.87 1099.39C1475.58 1102.41 1463.8 1102.79 1451.61 1102.09C1417.81 1095.72 1380.91 1085.09 1351.92 1063.4C1335.32 1050.98 1318.06 1035.6 1313.51 1012.21C1309.78 993.069 1315.38 972.712 1314.74 952.827C1314.08 932.235 1308.4 913.927 1307.2 894.317C1305.45 867.107 1312.77 837.975 1323.84 812.065C1341.29 771.218 1372.2 739.44 1407.23 729.644C1419.68 726.186 1432.43 725.506 1444.46 719.98C1453.71 715.733 1462.1 708.998 1470.93 703.947C1487.82 694.324 1506.36 690.852 1524.04 693.732C1528.95 694.532 1533.96 695.893 1537.96 699.405C1545.22 705.806 1547.44 718.062 1546.25 728.807C1545.07 739.503 1541.16 749.314 1537.98 759.491C1525.21 800.287 1524.31 848.036 1527.82 893.034C1528.9 907.04 1530.67 920.931 1534.05 933.812Z" stroke="#BDD4CE" stroke-miterlimit="10"/>
<path d="M1498.06 914.372C1499.83 927.547 1503.11 940.632 1507.15 953.598C1508.81 958.927 1509.5 965.113 1508.88 971.53C1508.25 978.029 1506.43 984.284 1504.33 990.179C1495.81 1014.08 1481.86 1033.56 1462.73 1041.38C1455.16 1044.47 1446.9 1045.73 1437.91 1045.88C1416.89 1040.19 1393.58 1034.23 1375.18 1020.43C1364.37 1012.31 1353.78 1001.76 1350.3 986.752C1347.45 974.467 1349.75 961.278 1349.62 948.305C1349.47 933.598 1348.08 920.395 1349.23 906.649C1350.8 887.71 1357.51 867.974 1365.04 849.457C1375.74 823.165 1392.12 800.724 1412.97 790.92C1420.36 787.47 1427.92 785.798 1435.07 781.93C1440.78 778.844 1446.02 774.722 1451.47 771.709C1462.22 765.816 1473.68 764.174 1484.5 766.565C1487.51 767.227 1490.55 768.237 1493.06 770.379C1497.59 774.262 1499.56 781.248 1499.72 787.633C1499.88 793.933 1498.6 799.927 1497.58 806.193C1493.54 831.05 1494.25 860.766 1495.71 888.825C1496.16 897.595 1496.97 906.249 1498.06 914.372Z" stroke="#BDD4CE" stroke-miterlimit="10"/>
<path d="M1424.09 989.699C1415.89 984.664 1406.19 983.408 1398.4 977.5C1389.31 970.595 1383.81 957.327 1384.49 943.903C1385.54 923.154 1399.49 906.465 1406.26 887.06C1410.33 875.42 1411.99 862.268 1418.63 852.458C1444.78 813.8 1470.3 862.439 1461.9 895.029C1453.69 926.871 1461.48 983.197 1424.09 989.699Z" stroke="#BDD4CE" stroke-miterlimit="10"/>
<path d="M1653.81 213.319C1639.88 201.769 1622.96 196.458 1608.33 186.217C1593.7 175.976 1580.68 157.892 1582.6 136.819C1583.13 130.968 1584.8 125.017 1583.82 119.343C1582.15 109.604 1573.47 104.649 1565.46 102.967C1545.61 98.8034 1525.04 106.422 1504.72 108.203C1484.39 109.985 1461.08 103.252 1452.95 80.9363C1449.4 71.1905 1449.05 59.1576 1442.96 51.6242C1431.8 37.8293 1411.44 49.7721 1400.77 65.4419C1385.61 87.7126 1377.97 115.983 1364.58 139.858C1345.77 173.385 1316.76 196.4 1295.38 227.588C1271 263.138 1257.33 309.239 1257.75 354.499C1258.18 399.759 1272.68 443.754 1297.69 475.609C1313.67 495.97 1333.47 511.216 1353.58 525.213C1360.76 530.206 1368.32 535.18 1376.72 535.638C1384.13 536.041 1391.48 532.876 1398.53 529.554C1419.87 519.51 1440.69 507.587 1460.77 493.912C1472.16 486.153 1483.54 477.715 1496.08 474.058C1509.16 470.248 1522.6 471.884 1535.81 472.964C1572.03 475.921 1611.97 473.053 1640.74 443.886C1690.33 393.622 1710.34 260.174 1653.81 213.319Z" stroke="#BDD4CE" stroke-miterlimit="10"/>
<path d="M1590.34 401.935C1628.72 367.593 1644.07 272.298 1605.78 234.98C1596.4 225.834 1584.87 220.924 1574.77 212.793C1564.66 204.577 1555.53 191.245 1556.2 176.113C1556.39 171.886 1557.36 167.59 1556.47 163.538C1554.81 156.031 1548.16 151.942 1541.95 150.164C1529.3 146.543 1515.94 148.944 1502.61 151.019C1499.68 151.471 1496.81 151.888 1493.98 152.232C1477.22 154.273 1460.65 152.488 1454 140.524C1451.06 135.232 1450.02 128.857 1445.42 124.611C1437.02 116.865 1423.51 124.587 1415.87 135.516C1405 151.054 1399.05 170.456 1389.24 186.859C1382.75 197.722 1374.74 207 1366.46 216.012C1357.18 226.115 1347.56 235.904 1339.36 247.241C1321.69 271.697 1311.45 303.314 1310.4 334.827C1309.33 366.977 1317.97 399.573 1335.88 422.976C1347.51 438.255 1362.63 448.95 1377.78 458.064C1383.16 461.32 1388.78 464.491 1394.96 464.621C1400.41 464.736 1405.82 462.449 1411.04 460.059C1417.35 457.162 1423.61 454.064 1429.81 450.81C1439.09 445.944 1448.23 440.74 1457.19 435.181C1465.67 429.922 1474.15 424.269 1483.41 421.838C1493.05 419.305 1502.95 420.435 1512.69 421.205C1539.4 423.319 1568.5 421.474 1590.34 401.935Z" stroke="#BDD4CE" stroke-miterlimit="10"/>
<path d="M1539.94 359.952C1567.23 341.6 1577.78 284.48 1557.73 256.643C1552.9 249.93 1546.72 245.446 1541.2 239.395C1535.57 233.243 1530.35 224.626 1529.79 215.446C1529.63 212.842 1529.88 210.209 1529.1 207.776C1527.41 202.504 1522.83 199.288 1518.43 197.419C1509.46 193.607 1499.56 193.872 1489.65 195.305C1487.42 195.626 1485.29 195.966 1483.23 196.329C1470.04 198.669 1460.38 201.945 1455.05 200.128C1452.78 199.353 1451.54 197.633 1447.89 197.581C1443.33 194.296 1435.58 199.376 1430.96 205.563C1424.39 214.369 1420.13 224.904 1413.91 233.84C1409.8 239.756 1404.91 244.838 1399.89 249.769C1394.26 255.306 1388.44 260.683 1383.35 266.88C1372.39 280.242 1365.5 297.441 1363.06 315.153C1360.44 334.263 1363.32 355.334 1374.1 370.321C1381.41 380.48 1391.82 386.614 1402.01 390.892C1405.59 392.395 1409.27 393.78 1413.23 393.586C1416.72 393.414 1420.19 392.009 1423.56 390.545C1427.65 388.776 1431.7 386.901 1435.73 385.017C1441.77 382.195 1447.74 379.35 1453.63 376.433C1459.21 373.67 1464.79 370.806 1470.76 369.597C1476.98 368.338 1483.32 368.963 1489.59 369.426C1506.78 370.691 1525.11 369.921 1539.94 359.952Z" stroke="#BDD4CE" stroke-miterlimit="10"/>
<path d="M1489.54 317.823C1473.47 319.561 1457.26 314.793 1441.43 319.249C1436.26 320.707 1431.2 323.138 1425.94 323.748C1420.69 324.358 1414.93 322.73 1411.98 317.598C1408.22 311.059 1410.55 301.214 1415.33 295.198C1420.11 289.18 1426.7 286.025 1433.01 282.877C1439.31 279.728 1445.85 276.144 1450.16 269.632C1459.72 255.206 1458.97 241.054 1476.56 238.898C1486.23 237.713 1495.83 242.422 1501.63 251.314C1513.74 269.861 1514.95 315.075 1489.54 317.823Z" stroke="#BDD4CE" stroke-miterlimit="10"/>
<path d="M1242.16 612.087C1224.86 631.047 1206.37 648.34 1186.92 663.739C1179.3 669.774 1171.24 675.654 1162.4 677.161C1141.68 680.693 1125.01 659.998 1111.88 641.032C1089.64 608.934 1067.41 576.834 1045.17 544.736C1033.44 527.801 1021.33 509.913 1017.75 487.79C1014.06 464.963 1019.7 438.904 1010.29 419.015C1006.3 410.594 999.985 404.281 995.458 396.299C979.817 368.715 988.944 329.429 1001.79 298.086C1007.1 285.121 1014.66 270.948 1026.2 268.812C1038.7 266.5 1048.89 279.753 1054.22 293.363C1059.54 306.972 1062.71 322.662 1071.79 332.735C1088.98 351.802 1116.63 341.493 1140.34 342.049C1170.93 342.768 1198.49 363.84 1218.19 391.434C1238.62 420.052 1262.97 461.547 1276.18 496.475C1292.2 538.868 1268.56 583.145 1242.16 612.087Z" stroke="#BDD4CE" stroke-miterlimit="10"/>
<path d="M1198.67 576.035C1188.38 585.297 1178.04 594.452 1167.07 601.643C1162.78 604.462 1158.28 607.289 1153.44 607.516C1141.22 608.093 1132.19 594.433 1124.83 582.322C1112.42 561.956 1099.52 541.838 1086.2 522.111C1079.18 511.703 1071.74 500.969 1068.66 488.165C1065.6 475.416 1067.32 461.03 1061.79 449.413C1059.44 444.467 1056.01 440.521 1053.55 435.709C1045.08 419.078 1049.97 396.189 1057.53 377.772C1061.02 369.274 1065.87 360.643 1072.86 358.356C1080.55 355.84 1087.32 361.555 1091.73 367.976C1096.12 374.368 1099.49 382.24 1105.81 387.663C1117.64 397.816 1134.64 394.395 1149.04 397.14C1158.9 399.019 1167.98 404.127 1175.79 411.118C1182.82 417.418 1189.23 425.614 1194.6 434.812C1206.27 454.73 1219.23 482.227 1225.2 505.41C1232.3 532.96 1217.33 559.249 1198.67 576.035Z" stroke="#BDD4CE" stroke-miterlimit="10"/>
<path d="M1155.15 540.073C1151.44 540.904 1147.43 540.528 1144.45 537.945C1140.74 534.739 1139.32 528.935 1137.75 523.671C1133.82 510.47 1127.57 498.434 1119.53 488.575C1117.29 485.822 1114.88 483.193 1113.25 479.844C1110.05 473.315 1110.29 464.566 1113.22 457.487C1124.57 430.013 1157.44 443.492 1166.38 464.334C1175.48 485.534 1183.24 533.775 1155.15 540.073Z" stroke="#BDD4CE" stroke-miterlimit="10"/>
<path d="M331.769 -246.032L331.32 -245.923V-245.923L331.769 -246.032ZM286.429 74.5458L286.089 74.1255V74.1255L286.429 74.5458ZM232.45 121.032L232.074 120.649V120.649L232.45 121.032ZM183.811 233L183.359 232.751V232.751L183.811 233ZM112.163 319.384L112 318.872L112 318.872L112.163 319.384ZM64.6047 326.864L64.3605 326.379L64.3605 326.379L64.6047 326.864ZM14.3295 377.101L14.026 376.651L14.0261 376.651L14.3295 377.101ZM-46.3619 396.669L-46.1469 397.166L-46.1469 397.166L-46.3619 396.669ZM251.237 -424.843L251.591 -425.133C252.946 -423.324 255.126 -419.429 257.897 -414.025C260.678 -408.602 264.078 -401.611 267.877 -393.57C275.475 -377.485 284.677 -357.183 293.727 -336.785C311.82 -296.008 329.336 -254.787 332.218 -246.141L331.769 -246.032L331.32 -245.923C328.462 -254.496 310.978 -295.647 292.873 -336.453C283.825 -356.846 274.628 -377.139 267.036 -393.21C263.239 -401.246 259.846 -408.223 257.074 -413.628C254.293 -419.051 252.161 -422.845 250.883 -424.552L251.237 -424.843ZM331.769 -246.032L332.218 -246.141C351.133 -189.407 360.19 -128.339 353.652 -70.7315L353.175 -70.8712L352.698 -71.0109C359.215 -128.431 350.189 -189.326 331.32 -245.923L331.769 -246.032ZM353.175 -70.8712L353.652 -70.7315C347.115 -13.1261 324.26 40.7114 286.769 74.9661L286.429 74.5458L286.089 74.1255C323.401 40.0334 346.182 -13.5884 352.698 -71.0109L353.175 -70.8712ZM286.429 74.5458L286.769 74.9661C277.941 83.0323 268.355 90.0119 259.043 97.2806C249.721 104.556 240.659 112.131 232.826 121.415L232.45 121.032L232.074 120.649C239.963 111.299 249.078 103.684 258.408 96.401C267.748 89.1112 277.291 82.1645 286.089 74.1255L286.429 74.5458ZM232.45 121.032L232.826 121.415C220.392 136.152 211.724 154.308 204.426 173.69C200.777 183.381 197.474 193.372 194.213 203.392C190.953 213.409 187.735 223.458 184.263 233.25L183.811 233L183.359 232.751C186.826 222.975 190.039 212.941 193.301 202.917C196.562 192.896 199.872 182.887 203.528 173.175C210.841 153.752 219.552 135.491 232.074 120.649L232.45 121.032ZM183.811 233L184.263 233.25C177.314 252.842 168.301 272.486 156.547 288.237C144.794 303.989 130.281 315.875 112.326 319.896L112.163 319.384L112 318.872C129.712 314.905 144.082 303.167 155.766 287.509C167.449 271.851 176.426 252.297 183.359 232.751L183.811 233ZM112.163 319.384L112.326 319.896C104.444 321.663 96.1574 321.817 88.0859 322.386C79.9938 322.956 72.0891 323.944 64.8489 327.348L64.6047 326.864L64.3605 326.379C71.7394 322.91 79.7704 321.915 87.8809 321.344C96.0121 320.77 104.196 320.621 112 318.872L112.163 319.384ZM64.6047 326.864L64.8489 327.348C54.563 332.186 46.7899 341.297 39.1857 350.952C31.6015 360.581 24.1806 370.758 14.6329 377.551L14.3295 377.101L14.0261 376.651C23.4594 369.94 30.7979 359.879 38.417 350.206C46.016 340.558 53.89 331.303 64.3605 326.379L64.6047 326.864ZM14.3295 377.101L14.6329 377.551C5.69556 383.911 -4.53576 386.946 -15.0004 389.327C-25.4865 391.714 -36.1718 393.438 -46.1469 397.166L-46.3619 396.669L-46.5769 396.172C-36.5362 392.42 -25.7487 390.674 -15.3295 388.303C-4.88883 385.928 5.21764 382.919 14.026 376.651L14.3295 377.101ZM-46.3619 396.669L-46.1469 397.166C-69.4036 405.857 -88.6469 426.045 -98.6403 452.272L-99.0885 452.013L-99.5367 451.754C-89.4636 425.318 -70.0628 404.948 -46.5769 396.172L-46.3619 396.669Z" fill="#BDD4CE"/>
<path d="M304.84 -262.947L305.288 -263.059V-263.059L304.84 -262.947ZM268.09 16.9745L267.741 16.5633L267.741 16.5632L268.09 16.9745ZM251.951 31.1156L251.633 30.6767V30.6767L251.951 31.1156ZM219.454 57.6276L219.094 57.2264L219.095 57.2257L219.454 57.6276ZM208.79 70.8732L209.191 71.223L209.191 71.2236L208.79 70.8732ZM178.572 141.923L179.027 142.162V142.162L178.572 141.923ZM173.934 155.671L174.387 155.917L174.387 155.917L173.934 155.671ZM145.397 211.315L145.777 211.693L145.777 211.693L145.397 211.315ZM111.266 235.052L111.086 234.544L111.086 234.544L111.266 235.052ZM69.0436 243.231L68.799 242.746L68.7991 242.746L69.0436 243.231ZM22.7532 285.88L22.4656 285.419L22.4657 285.419L22.7532 285.88ZM0.0843078 294.319L-0.0723777 293.805L-0.072126 293.805L0.0843078 294.319ZM-31.9956 300.663L-31.8027 301.167L-31.8035 301.167L-31.9956 300.663ZM201.622 -481.651L201.977 -481.94C202.576 -481.133 203.477 -479.63 204.63 -477.551C205.789 -475.462 207.219 -472.761 208.88 -469.538C212.2 -463.092 216.448 -454.541 221.304 -444.584C231.014 -424.67 243.158 -399.115 255.175 -373.479C267.191 -347.843 279.081 -322.123 288.284 -301.875C297.476 -281.651 304.009 -266.839 305.288 -263.059L304.84 -262.947L304.392 -262.835C303.139 -266.537 296.645 -281.268 287.434 -301.533C278.234 -321.775 266.346 -347.49 254.331 -373.123C242.317 -398.756 230.176 -424.304 220.469 -444.21C215.615 -454.164 211.372 -462.704 208.057 -469.139C206.4 -472.356 204.977 -475.044 203.827 -477.117C202.671 -479.2 201.808 -480.633 201.266 -481.363L201.622 -481.651ZM304.84 -262.947L305.288 -263.059C321.968 -213.761 330.084 -160.663 324.815 -110.45L324.338 -110.585L323.861 -110.72C329.11 -160.748 321.025 -213.674 304.392 -262.835L304.84 -262.947ZM324.338 -110.585L324.815 -110.45C319.547 -60.2362 300.068 -13.4871 268.44 17.3859L268.09 16.9745L267.741 16.5632C299.206 -14.1508 318.611 -60.6929 323.861 -110.72L324.338 -110.585ZM268.09 16.9745L268.44 17.3859C263.296 22.4082 257.902 27.1272 252.269 31.5545L251.951 31.1156L251.633 30.6767C257.245 26.2662 262.617 21.5656 267.741 16.5633L268.09 16.9745ZM251.951 31.1156L252.269 31.5545C241.107 40.3286 229.56 47.8535 219.813 58.0295L219.454 57.6276L219.095 57.2257C228.893 46.9967 240.542 39.3948 251.633 30.6767L251.951 31.1156ZM219.454 57.6276L219.813 58.0288C215.936 62.0963 212.414 66.4963 209.191 71.223L208.79 70.8732L208.389 70.5235C211.636 65.7619 215.185 61.3272 219.094 57.2264L219.454 57.6276ZM208.79 70.8732L209.191 71.2236C195.571 91.1225 187.369 116.92 179.027 142.162L178.572 141.923L178.117 141.684C186.446 116.479 194.686 90.5439 208.389 70.5229L208.79 70.8732ZM178.572 141.923L179.027 142.162C177.502 146.776 175.969 151.37 174.387 155.917L173.934 155.671L173.481 155.424C175.061 150.884 176.592 146.296 178.117 141.684L178.572 141.923ZM173.934 155.671L174.387 155.917C167.367 176.068 158.264 196.372 145.777 211.693L145.397 211.315L145.017 210.937C157.413 195.728 166.476 175.536 173.481 155.424L173.934 155.671ZM145.397 211.315L145.777 211.693C136.374 223.215 125.035 231.884 111.446 235.56L111.266 235.052L111.086 234.544C124.476 230.922 135.688 222.369 145.017 210.937L145.397 211.315ZM111.266 235.052L111.447 235.56C104.497 237.446 97.1807 237.945 90.0202 238.744C82.8419 239.544 75.7976 240.646 69.288 243.715L69.0436 243.231L68.7991 242.746C75.433 239.619 82.5897 238.507 89.7817 237.705C96.9915 236.901 104.214 236.409 111.086 234.544L111.266 235.052ZM69.0436 243.231L69.2881 243.715C60.0414 248.076 52.8522 255.907 45.7762 264.088C38.7192 272.248 31.7696 280.764 23.0407 286.341L22.7532 285.88L22.4657 285.419C31.077 279.918 37.9429 271.51 45.0312 263.314C52.1005 255.141 59.3863 247.186 68.799 242.746L69.0436 243.231ZM22.7532 285.88L23.0408 286.34C16.041 290.815 8.25135 293.181 0.240752 294.833L0.0843078 294.319L-0.072126 293.805C7.89506 292.162 15.5794 289.822 22.4656 285.419L22.7532 285.88ZM0.0843078 294.319L0.241004 294.833C-5.08974 295.936 -10.5474 296.732 -15.9348 297.644C-21.3303 298.557 -26.6688 299.589 -31.8027 301.167L-31.9956 300.663L-32.1885 300.158C-27.0037 298.565 -21.6235 297.526 -16.2194 296.611C-10.8071 295.695 -5.38418 294.904 -0.0723777 293.805L0.0843078 294.319ZM-31.9956 300.663L-31.8035 301.167C-52.8236 307.582 -70.4845 323.647 -80.3531 346.049L-80.7925 345.769L-81.2319 345.488C-71.2698 322.873 -53.4369 306.643 -32.1878 300.158L-31.9956 300.663Z" fill="#BDD4CE"/>
<path d="M276.827 -278.997L276.38 -278.882L276.38 -278.882L276.827 -278.997ZM294.357 -149.617L293.879 -149.746V-149.746L294.357 -149.617ZM248.763 -40.0732L248.401 -40.4724V-40.4724L248.763 -40.0732ZM235.002 -26.987L234.68 -27.4228L234.68 -27.4229L235.002 -26.987ZM205.601 -5.3076L205.265 -5.73163L205.265 -5.73172L205.601 -5.3076ZM195.653 5.25106L196.037 5.62428L196.036 5.6256L195.653 5.25106ZM167.395 66.4914L166.94 66.2517L166.94 66.2516L167.395 66.4914ZM163.329 78.691L163.783 78.9342L163.783 78.9343L163.329 78.691ZM139.086 128.663L139.475 129.031L139.474 129.031L139.086 128.663ZM109.816 150.971L109.614 150.47L109.615 150.47L109.816 150.971ZM73.0505 159.839L72.8052 159.355L72.8052 159.355L73.0505 159.839ZM30.8776 194.848L30.6109 194.375L30.6111 194.375L30.8776 194.848ZM10.6357 201.068L10.5011 200.55L10.5017 200.55L10.6357 201.068ZM-17.776 204.824L-17.6125 205.336L-17.6139 205.336L-17.776 204.824ZM179.998 -473.107L180.356 -473.392C181.35 -472.034 183.539 -468.166 186.592 -462.48C189.657 -456.772 193.618 -449.18 198.167 -440.329C207.266 -422.627 218.721 -399.877 230.072 -377.061C241.423 -354.245 252.671 -331.36 261.354 -313.385C265.696 -304.398 269.397 -296.637 272.15 -290.725C274.895 -284.83 276.715 -280.736 277.274 -279.112L276.827 -278.997L276.38 -278.882C275.847 -280.429 274.063 -284.451 271.306 -290.372C268.556 -296.276 264.858 -304.031 260.518 -313.016C251.837 -330.985 240.591 -353.865 229.242 -376.678C217.892 -399.491 206.44 -422.235 197.345 -439.931C192.797 -448.779 188.84 -456.363 185.78 -462.062C182.709 -467.783 180.568 -471.554 179.64 -472.822L179.998 -473.107ZM276.827 -278.997L277.274 -279.112C291.671 -237.309 298.82 -192.246 294.835 -149.488L294.357 -149.617L293.879 -149.746C297.847 -192.322 290.73 -237.216 276.38 -278.882L276.827 -278.997ZM294.357 -149.617L294.835 -149.488C290.851 -106.729 274.827 -67.054 249.124 -39.6741L248.763 -40.0732L248.401 -40.4724C273.959 -67.6987 289.912 -107.177 293.879 -149.746L294.357 -149.617ZM248.763 -40.0732L249.124 -39.6741C244.783 -35.0498 240.277 -30.5484 235.324 -26.5511L235.002 -26.987L234.68 -27.4229C239.593 -31.3873 244.07 -35.8588 248.401 -40.4724L248.763 -40.0732ZM235.002 -26.987L235.324 -26.5512C230.425 -22.5956 225.325 -19.1762 220.334 -15.7511C215.338 -12.3224 210.448 -8.88635 205.937 -4.88348L205.601 -5.3076L205.265 -5.73172C209.816 -9.76995 214.742 -13.2298 219.738 -16.6586C224.74 -20.091 229.81 -23.4907 234.68 -27.4228L235.002 -26.987ZM205.601 -5.3076L205.937 -4.88354C202.351 -1.69883 199.064 1.79224 196.037 5.62428L195.653 5.25106L195.269 4.87786C198.325 1.00931 201.643 -2.51583 205.265 -5.73163L205.601 -5.3076ZM195.653 5.25106L196.036 5.6256C183.18 21.759 175.246 44.3892 167.85 66.7312L167.395 66.4914L166.94 66.2516C174.328 43.9309 182.306 21.1468 195.27 4.87654L195.653 5.25106ZM167.395 66.4914L167.85 66.7311C166.5 70.815 165.154 74.893 163.783 78.9342L163.329 78.691L162.875 78.4479C164.245 74.4109 165.589 70.3369 166.94 66.2517L167.395 66.4914ZM163.329 78.691L163.783 78.9343C157.69 96.8695 150.115 115.038 139.475 129.031L139.086 128.663L138.698 128.296C149.253 114.414 156.791 96.3552 162.875 78.4477L163.329 78.691ZM139.086 128.663L139.474 129.031C131.476 139.522 121.721 147.586 110.017 151.473L109.816 150.971L109.615 150.47C121.133 146.645 130.768 138.696 138.698 128.296L139.086 128.663ZM109.816 150.971L110.018 151.473C104.024 153.476 97.6978 154.32 91.4675 155.347C85.2224 156.376 79.0571 157.591 73.2959 160.323L73.0505 159.839L72.8052 159.355C78.6729 156.572 84.9339 155.344 91.1862 154.314C97.4532 153.281 103.696 152.448 109.614 150.47L109.816 150.971ZM73.0505 159.839L73.2959 160.323C65.1121 164.204 58.5252 170.746 51.9966 177.444C45.4854 184.125 39.0273 190.968 31.144 195.322L30.8776 194.848L30.6111 194.375C38.3738 190.088 44.7473 183.342 51.2836 176.635C57.8026 169.947 64.4791 163.304 72.8052 159.355L73.0505 159.839ZM30.8776 194.848L31.1443 195.322C24.8275 198.816 17.8801 200.533 10.7698 201.586L10.6357 201.068L10.5017 200.55C17.565 199.505 24.4085 197.806 30.6109 194.375L30.8776 194.848ZM10.6357 201.068L10.7704 201.586C6.04623 202.292 1.22103 202.717 -3.54728 203.221C-8.32251 203.726 -13.0496 204.31 -17.6125 205.336L-17.776 204.824L-17.9395 204.311C-13.3285 203.275 -8.56222 202.686 -3.78134 202.181C1.00647 201.675 5.80019 201.253 10.5011 200.55L10.6357 201.068ZM-17.776 204.824L-17.6139 205.336C-36.3407 209.472 -52.3691 221.396 -62.0769 239.945L-62.5034 239.637L-62.9299 239.33C-53.1084 220.564 -36.8889 208.497 -17.938 204.311L-17.776 204.824Z" fill="#BDD4CE"/>
<path d="M248.906 -295.134L248.461 -295.015L248.461 -295.015L248.906 -295.134ZM264.474 -188.717L263.996 -188.838V-188.838L264.474 -188.717ZM229.508 -97.1733L229.886 -96.7916L229.885 -96.7916L229.508 -97.1733ZM218.123 -85.1408L217.796 -85.5727L217.796 -85.5728L218.123 -85.1408ZM191.814 -68.2869L192.115 -67.8353L192.115 -67.8353L191.814 -68.2869ZM182.578 -60.4159L182.221 -60.8199L182.221 -60.8199L182.578 -60.4159ZM156.28 -8.97736L156.735 -8.73706L156.735 -8.73703L156.28 -8.97736ZM152.784 1.67518L152.329 1.43609L152.329 1.43587L152.784 1.67518ZM132.826 45.9789L133.225 46.332L133.225 46.3326L132.826 45.9789ZM108.404 66.8571L108.174 66.3659L108.175 66.3655L108.404 66.8571ZM77.0843 76.4122L76.8379 75.9285L76.8379 75.9284L77.0843 76.4122ZM39.0206 103.788L38.7834 103.3L38.7838 103.3L39.0206 103.788ZM21.201 107.793L21.0962 107.272L21.097 107.272L21.201 107.793ZM-3.54713 108.965L-3.4257 109.485L-3.42578 109.485L-3.54713 108.965ZM158.552 -469.237L158.913 -469.517C159.723 -468.388 161.686 -464.971 164.482 -459.896C167.289 -454.8 170.959 -447.987 175.198 -440.027C183.676 -424.107 194.432 -403.59 205.106 -383.021C215.781 -362.451 226.375 -341.829 234.531 -325.697C238.609 -317.631 242.078 -310.687 244.643 -305.432C247.198 -300.198 248.877 -296.598 249.352 -295.254L248.906 -295.134L248.461 -295.015C248.017 -296.272 246.379 -299.791 243.808 -305.058C241.247 -310.305 237.781 -317.243 233.705 -325.307C225.552 -341.433 214.96 -362.051 204.286 -382.618C193.613 -403.185 182.86 -423.697 174.385 -439.612C170.147 -447.57 166.479 -454.377 163.677 -459.465C160.863 -464.574 158.944 -467.906 158.191 -468.956L158.552 -469.237ZM248.906 -295.134L249.352 -295.254C261.471 -260.939 267.655 -223.905 264.953 -188.596L264.474 -188.717L263.996 -188.838C266.684 -223.968 260.532 -260.837 248.461 -295.015L248.906 -295.134ZM264.474 -188.717L264.953 -188.596C262.251 -153.283 249.721 -120.576 229.886 -96.7916L229.508 -97.1733L229.131 -97.555C248.845 -121.193 261.308 -153.717 263.996 -188.838L264.474 -188.717ZM229.508 -97.1733L229.885 -96.7916C226.352 -92.5553 222.724 -88.2758 218.45 -84.7088L218.123 -85.1408L217.796 -85.5728C222.008 -89.0884 225.595 -93.3147 229.131 -97.555L229.508 -97.1733ZM218.123 -85.1408L218.45 -84.7089C214.218 -81.1733 209.708 -78.4136 205.224 -75.8102C200.733 -73.2022 196.28 -70.7574 192.115 -67.8353L191.814 -68.2869L191.513 -68.7385C195.712 -71.6852 200.207 -74.1537 204.677 -76.7488C209.154 -79.3483 213.616 -82.0812 217.796 -85.5727L218.123 -85.1408ZM191.814 -68.2869L192.115 -67.8353C188.825 -65.5267 185.777 -62.9393 182.935 -60.0118L182.578 -60.4159L182.221 -60.8199C185.098 -63.7836 188.184 -66.4027 191.513 -68.7385L191.814 -68.2869ZM182.578 -60.4159L182.935 -60.0118C170.885 -47.5917 163.183 -28.1762 156.735 -8.73706L156.28 -8.97736L155.825 -9.21766C162.272 -28.6563 170.025 -48.2499 182.221 -60.8199L182.578 -60.4159ZM156.28 -8.97736L156.735 -8.73703C155.555 -5.18086 154.405 -1.62622 153.239 1.91454L152.784 1.67518L152.329 1.43587C153.492 -2.09665 154.646 -5.66234 155.825 -9.21769L156.28 -8.97736ZM152.784 1.67518L153.239 1.91431C148.072 17.6352 142.021 33.6671 133.225 46.332L132.826 45.9789L132.427 45.6259C141.147 33.0706 147.165 17.1457 152.329 1.43609L152.784 1.67518ZM132.826 45.9789L133.225 46.3326C126.627 55.7954 118.453 63.2491 108.633 67.3487L108.404 66.8571L108.175 66.3655C117.829 62.3357 125.894 54.9952 132.428 45.6252L132.826 45.9789ZM108.404 66.8571L108.634 67.3483C103.593 69.4697 98.2563 70.658 92.9525 71.9139C87.6374 73.1725 82.3474 74.5003 77.3306 76.8959L77.0843 76.4122L76.8379 75.9284C81.938 73.4931 87.3032 72.1495 92.6164 70.8913C97.941 69.6305 103.206 68.4568 108.174 66.3659L108.404 66.8571ZM77.0843 76.4122L77.3306 76.8959C70.2052 80.2993 64.2185 85.5543 58.2348 90.7719C52.2665 95.9762 46.2988 101.146 39.2575 104.276L39.0206 103.788L38.7838 103.3C45.7019 100.224 51.5849 95.1361 57.568 89.9189C63.5358 84.7151 69.6012 79.385 76.8379 75.9285L77.0843 76.4122ZM39.0206 103.788L39.2578 104.276C33.6215 106.788 27.5133 107.857 21.3051 108.314L21.201 107.793L21.097 107.272C27.2537 106.818 33.2608 105.762 38.7834 103.3L39.0206 103.788ZM21.201 107.793L21.3058 108.314C17.187 108.625 12.9937 108.685 8.8431 108.784C4.68685 108.883 0.569461 109.021 -3.4257 109.485L-3.54713 108.965L-3.66858 108.446C0.368226 107.977 4.51983 107.839 8.67711 107.74C12.8401 107.641 17.0049 107.581 21.0962 107.272L21.201 107.793ZM-3.54713 108.965L-3.42578 109.485C-19.8635 111.39 -34.2639 119.14 -43.8041 133.84L-44.2104 133.498L-44.6167 133.155C-34.9305 118.231 -20.3118 110.375 -3.6685 108.446L-3.54713 108.965Z" fill="#BDD4CE"/>
<path d="M221.209 -311.472L221.652 -311.599L221.652 -311.599L221.209 -311.472ZM234.826 -227.974L235.306 -227.866L235.306 -227.866L234.826 -227.974ZM210.444 -154.394L210.046 -154.749L210.046 -154.749L210.444 -154.394ZM201.424 -143.412L201.09 -143.839L201.09 -143.839L201.424 -143.412ZM178.189 -131.375L177.942 -131.858L177.942 -131.858L178.189 -131.375ZM169.664 -126.186L169.349 -126.628L169.349 -126.628L169.664 -126.186ZM145.312 -84.5306L144.857 -84.7715L144.857 -84.7716L145.312 -84.5306ZM142.383 -75.4219L141.926 -75.6554L141.926 -75.6556L142.383 -75.4219ZM126.694 -36.776L127.106 -36.4427L127.106 -36.4418L126.694 -36.776ZM107.098 -17.3231L106.833 -17.7972L106.834 -17.7979L107.098 -17.3231ZM81.1982 -7.08056L80.9506 -7.56379L80.9506 -7.56382L81.1982 -7.08056ZM47.2206 12.6753L47.0269 12.1709L47.0274 12.1708L47.2206 12.6753ZM31.8112 14.4673L31.7488 13.9451L31.7499 13.9451L31.8112 14.4673ZM10.7083 13.0595L10.6465 12.5374L10.6465 12.5374L10.7083 13.0595ZM132.72 -478.407L133.087 -478.68C133.714 -477.778 135.523 -474.608 138.187 -469.794C140.862 -464.96 144.422 -458.425 148.567 -450.754C156.856 -435.413 167.487 -415.524 178.061 -395.598C188.634 -375.672 199.15 -355.707 207.21 -340.215C211.24 -332.469 214.657 -325.839 217.16 -320.891C219.651 -315.967 221.262 -312.66 221.652 -311.599L221.209 -311.472L220.766 -311.345C220.409 -312.317 218.845 -315.536 216.334 -320.501C213.834 -325.443 210.42 -332.067 206.391 -339.811C198.333 -355.299 187.819 -375.26 177.246 -395.185C166.674 -415.109 156.045 -434.995 147.757 -450.333C143.613 -458.002 140.055 -464.532 137.383 -469.361C134.7 -474.211 132.932 -477.302 132.353 -478.134L132.72 -478.407ZM221.209 -311.472L221.652 -311.599C231.505 -284.759 236.729 -255.738 235.306 -227.866L234.826 -227.974L234.347 -228.081C235.761 -255.783 230.569 -284.642 220.766 -311.345L221.209 -311.472ZM234.826 -227.974L235.306 -227.866C233.881 -199.987 224.919 -174.076 210.842 -154.039L210.444 -154.394L210.046 -154.749C224.029 -174.652 232.931 -200.393 234.347 -228.081L234.826 -227.974ZM210.444 -154.394L210.842 -154.039C208.122 -150.166 205.357 -146.129 201.757 -142.986L201.424 -143.412L201.09 -143.839C204.603 -146.906 207.311 -150.854 210.046 -154.749L210.444 -154.394ZM201.424 -143.412L201.757 -142.986C198.184 -139.865 194.257 -137.76 190.275 -135.977C186.26 -134.179 182.285 -132.743 178.436 -130.892L178.189 -131.375L177.942 -131.858C181.773 -133.701 185.883 -135.199 189.799 -136.953C193.749 -138.722 197.599 -140.789 201.09 -143.839L201.424 -143.412ZM178.189 -131.375L178.437 -130.892C175.441 -129.45 172.621 -127.775 169.978 -125.745L169.664 -126.186L169.349 -126.628C172.039 -128.696 174.906 -130.397 177.942 -131.858L178.189 -131.375ZM169.664 -126.186L169.979 -125.745C158.702 -117.07 151.273 -100.834 145.767 -84.2897L145.312 -84.5306L144.857 -84.7716C150.371 -101.336 157.865 -117.794 169.349 -126.628L169.664 -126.186ZM145.312 -84.5306L145.767 -84.2898C144.761 -81.2674 143.797 -78.2241 142.84 -75.1881L142.383 -75.4219L141.926 -75.6556C142.883 -78.6918 143.849 -81.7414 144.857 -84.7715L145.312 -84.5306ZM142.383 -75.4219L142.84 -75.1884C138.593 -61.6843 134.06 -47.7782 127.106 -36.4427L126.694 -36.776L126.282 -37.1093C133.171 -48.3387 137.674 -62.1384 141.926 -75.6554L142.383 -75.4219ZM126.694 -36.776L127.106 -36.4418C121.903 -28.0068 115.307 -21.16 107.362 -16.8483L107.098 -17.3231L106.834 -17.7979C114.636 -22.0323 121.139 -28.7704 126.283 -37.1101L126.694 -36.776ZM107.098 -17.3231L107.363 -16.8489C103.272 -14.61 98.9208 -13.0773 94.5378 -11.5908C90.1464 -10.1014 85.726 -8.65925 81.4458 -6.59733L81.1982 -7.08056L80.9506 -7.56382C85.2825 -9.65063 89.7538 -11.1088 94.1299 -12.593C98.5145 -14.0801 102.807 -15.5942 106.833 -17.7972L107.098 -17.3231ZM81.1982 -7.08056L81.4458 -6.59732C75.3659 -3.6679 69.9738 0.304509 64.528 4.04582C59.0957 7.77782 53.6162 11.2747 47.4138 13.1799L47.2206 12.6753L47.0274 12.1708C53.1065 10.3034 58.5021 6.86808 63.9314 3.13812C69.3471 -0.582516 74.8031 -4.60178 80.9506 -7.56379L81.1982 -7.08056ZM47.2206 12.6753L47.4142 13.1797C42.4564 14.7097 37.1885 15.1313 31.8726 14.9894L31.8112 14.4673L31.7499 13.9451C37.0071 14.0855 42.1788 13.667 47.0269 12.1709L47.2206 12.6753ZM31.8112 14.4673L31.8737 14.9894C28.3571 14.904 24.79 14.5948 21.2528 14.2864C17.7107 13.9775 14.1991 13.6694 10.7702 13.5817L10.7083 13.0595L10.6465 12.5374C14.1072 12.6259 17.6466 12.9367 21.1833 13.2451C24.7248 13.5539 28.2644 13.8604 31.7488 13.9451L31.8112 14.4673ZM10.7083 13.0595L10.7702 13.5817C-3.41172 13.2198 -16.1743 16.8592 -25.5418 27.715L-25.9146 27.328L-26.2874 26.941C-16.7218 15.8556 -3.70233 12.1711 10.6465 12.5374L10.7083 13.0595Z" fill="#BDD4CE"/>
<path d="M23.4344 1051.31C44.3983 1042.67 66.1295 1036.18 88.3388 1031.93C97.0408 1030.26 106.139 1028.96 114.968 1032.1C135.67 1039.44 146.914 1067.07 155.164 1091.3C169.13 1132.3 183.095 1173.31 197.06 1214.31C204.427 1235.94 211.948 1258.65 210.295 1280.9C208.59 1303.85 197.182 1325.01 201.646 1348.18C203.536 1357.99 208.149 1367.05 210.66 1376.73C219.334 1410.19 201.538 1441.77 182.002 1464.12C173.922 1473.36 163.403 1482.57 151.831 1478.63C139.307 1474.37 132.57 1456.92 130.583 1441.63C128.597 1426.35 129.162 1410.25 122.76 1396.3C110.644 1369.91 81.7278 1365.27 59.0958 1352.62C29.8963 1336.29 8.28229 1302.74 -4.2872 1267.19C-17.3251 1230.32 -31.1597 1179.56 -35.8067 1140.57C-41.443 1093.25 -8.56737 1064.5 23.4344 1051.31Z" stroke="#BDD4CE" stroke-miterlimit="10"/>
<path d="M57.4006 1106.84C69.4143 1103.56 81.4503 1100.41 93.632 1099.38C98.405 1098.98 103.37 1098.67 108.07 1100.94C119.936 1106.67 125.47 1123.9 129.747 1138.84C136.977 1163.99 144.737 1189.16 152.991 1214.19C157.345 1227.39 162.017 1241.11 162.027 1254.5C162.035 1267.83 157.08 1280.23 159.713 1293.78C160.833 1299.55 163.22 1304.95 164.47 1310.65C168.783 1330.33 158.823 1348.95 147.333 1362.08C142.028 1368.14 135.385 1373.62 128.146 1372.15C120.181 1370.53 114.994 1361.79 112.239 1353.61C109.496 1345.46 108.07 1336.47 103.25 1328.23C94.2249 1312.8 77.1114 1307.25 63.9135 1297.35C54.8844 1290.57 47.3347 1281.2 41.4492 1270.75C36.144 1261.34 31.878 1250.49 28.8327 1239.25C22.2064 1214.89 16.0927 1182.88 15.6916 1158.43C15.2099 1129.37 35.6239 1112.77 57.4006 1106.84Z" stroke="#BDD4CE" stroke-miterlimit="10"/>
<path d="M91.4573 1162.38C95.2133 1163.51 98.9802 1165.92 101.255 1169.83C104.081 1174.69 104.106 1180.78 104.404 1186.45C105.15 1200.66 108.385 1214.98 113.837 1228.21C115.36 1231.9 117.069 1235.56 117.871 1239.49C119.434 1247.16 117.191 1255.12 112.749 1260.16C95.5067 1279.72 67.0237 1250.43 63.2267 1226.6C59.3608 1202.35 63.0127 1153.81 91.4573 1162.38Z" stroke="#BDD4CE" stroke-miterlimit="10"/>
</g>
<defs>
<clipPath id="clip0_335_149652">
<rect width="1728" height="1426" fill="white" transform="matrix(1 0 0 -1 0 1426)"/>
</clipPath>
</defs>
</svg>
