<svg width="1728" height="1426" viewBox="0 0 1728 1426" fill="none" xmlns="http://www.w3.org/2000/svg">
<g clip-path="url(#clip0_537_213160)">
<path d="M217.026 995.456C224.486 1029.82 234.596 1068.01 268.335 1090.75C295.946 1109.36 332.594 1112.61 362.548 1128.11C391.326 1143.01 411.368 1167.79 437.416 1186.2C473.784 1211.88 520.898 1223.98 565.456 1224.39C641.903 1225.11 712.688 1191.57 747.864 1137.96C760.383 1118.87 768.812 1097.31 785.851 1081.13C798.625 1069.01 815.562 1060.59 830.326 1050.19C857.96 1030.71 877.99 1003.94 887.489 973.78C890.133 965.387 891.965 956.384 889.164 947.465C884.038 931.138 864.438 919.235 845.109 914.694C825.779 910.152 806.125 911.243 786.628 910.611C708.049 908.066 630.036 876.988 561.428 837.394C540.128 825.102 519.227 811.754 502.411 795.138C479.75 772.741 465.714 745.659 452.075 719.121C446.191 707.673 435.325 698.718 421.698 693.88C408.071 689.043 393.372 688.731 379.471 689.856C325.352 694.24 277.327 720.327 252.134 759.023C241.788 774.91 235.201 792.606 229.694 810.509C212.091 867.713 203.749 934.285 217.026 995.456Z" stroke="#BDD4CE" stroke-miterlimit="10"/>
<path d="M505.089 835.944C486.311 818.648 473.318 797.784 460.888 777.077C455.562 768.204 446.553 761.169 435.437 757.244C424.294 753.312 412.343 752.785 400.997 753.367C356.489 755.538 316.666 774.534 294.822 805.036C285.955 817.51 280.025 831.626 275.066 846.266C262.154 891.574 255.176 943.857 265.675 992.134C271.617 1019.45 280.096 1049.58 306.664 1067.87C328.411 1082.84 357.172 1086.11 381.052 1098.3C404.692 1110.29 421.85 1129.09 443.551 1142.91C473.754 1162.19 512.081 1170.9 548.451 1171.49C608.872 1172.31 665.145 1148.12 694.45 1107.39C704.863 1092.91 712.052 1076.48 725.559 1064.04C735.814 1054.67 749.068 1048.02 760.579 1039.85C782.277 1024.41 797.716 1003.31 804.821 979.589C806.797 972.988 808.134 965.926 805.962 958.921C801.993 946.121 787.071 936.63 772.271 932.665C757.488 928.729 742.389 929.021 727.348 928.03C666.839 924.175 605.919 899.084 551.861 868.366C535.062 858.822 518.679 848.459 505.089 835.944Z" stroke="#BDD4CE" stroke-miterlimit="10"/>
<path d="M507.823 876.759C492.874 864.563 481.006 849.935 469.762 835.054C465.004 828.757 457.843 823.643 449.238 820.633C440.577 817.605 431.38 816.889 422.586 816.902C387.708 816.957 355.978 828.698 337.583 851.061C330.153 860.092 324.923 870.654 320.513 882.034C312.292 915.434 306.681 953.421 314.398 988.797C318.82 1009.05 325.667 1031.13 345.062 1044.97C360.936 1056.29 381.78 1059.64 399.613 1068.46C418.08 1077.6 432.385 1090.36 449.733 1099.58C473.77 1112.45 503.317 1117.86 531.485 1118.53C575.89 1119.58 617.622 1104.62 641.058 1076.8C649.366 1066.9 655.269 1055.58 665.284 1046.93C672.983 1040.27 682.589 1035.43 690.846 1029.48C706.606 1018.1 717.449 1002.67 722.155 985.389C723.465 980.584 724.304 975.46 722.762 970.371C719.951 961.102 709.717 954.002 699.445 950.633C689.219 947.279 678.673 946.762 668.092 945.443C625.671 940.158 581.847 921.176 542.349 899.337C530.052 892.544 518.144 885.178 507.823 876.759Z" stroke="#BDD4CE" stroke-miterlimit="10"/>
<path d="M510.595 917.573C499.341 910.499 488.792 902.089 478.665 893.041C474.503 889.323 469.16 886.129 463.065 884.031C456.89 881.91 450.441 880.979 444.205 880.447C418.929 878.29 395.415 882.91 380.368 897.084C374.415 902.69 369.846 909.679 365.981 917.797C362.455 939.289 358.207 962.976 363.144 985.443C366.049 998.642 371.263 1012.65 383.48 1022.04C393.479 1029.72 406.433 1033.1 418.184 1038.6C431.507 1044.83 442.947 1051.56 455.932 1056.22C473.821 1062.63 494.56 1064.71 514.535 1065.53C542.898 1066.69 570.106 1061.09 587.67 1046.18C593.875 1040.88 598.529 1034.7 605.014 1029.8C610.188 1025.88 616.111 1022.82 621.113 1019.11C630.931 1011.77 637.176 1002.02 639.487 991.177C640.131 988.166 640.47 984.985 639.561 981.813C637.908 976.074 632.367 971.386 626.622 968.595C620.954 965.842 614.97 964.519 608.845 962.849C584.549 956.222 557.801 943.256 532.87 930.3C525.075 926.259 517.535 921.934 510.595 917.573Z" stroke="#BDD4CE" stroke-miterlimit="10"/>
<path d="M411.385 953.661C412.566 963.216 409.687 972.566 411.838 982.098C414.351 993.239 424.148 1003.74 436.646 1008.69C455.963 1016.33 476.932 1010.56 497.4 1012.43C509.677 1013.56 522.337 1017.49 534.015 1015.52C580.036 1007.75 546.348 964.365 513.209 958.499C480.829 952.77 432.797 922.336 411.385 953.661Z" stroke="#BDD4CE" stroke-miterlimit="10"/>
<path d="M1142.51 417.564C1129.3 440.717 1115.7 467.23 1124.06 495.016C1130.9 517.756 1150.99 535.499 1160.81 557.452C1170.25 578.544 1169.43 601.586 1175.45 623.529C1183.85 654.161 1205.62 681.564 1231.85 701.093C1276.87 734.598 1336.12 745.79 1384.52 729.936C1401.75 724.293 1417.82 715.438 1436.24 713.438C1450.05 711.939 1464.42 714.391 1478.53 714.749C1504.93 715.421 1530.57 708.569 1551.69 695.197C1557.57 691.476 1563.27 687.05 1566.19 680.667C1571.53 668.984 1566 653.6 1556.86 642.601C1547.71 631.602 1535.48 623.727 1524.23 614.922C1478.89 579.435 1448.53 527.653 1428.12 475.004C1421.78 458.659 1416.22 441.874 1414.77 424.963C1412.81 402.171 1418.38 380.396 1423.91 359.109C1426.29 349.926 1424.44 340.031 1418.83 331.329C1413.22 322.626 1404.66 316.083 1395.83 310.718C1361.45 289.835 1319.54 284.171 1284.72 295.699C1270.42 300.431 1257.43 307.839 1244.97 315.833C1205.16 341.376 1166.03 376.356 1142.51 417.564Z" stroke="#BDD4CE" stroke-miterlimit="10"/>
<path d="M1395.41 449.778C1393.14 431.624 1396.14 413.905 1399.39 396.521C1400.78 389.071 1399.05 381.094 1394.46 374.007C1389.86 366.905 1383.04 361.426 1376 356.853C1348.47 338.847 1315.07 332.623 1286.45 340.849C1274.78 344.243 1264.01 349.86 1253.55 356.2C1222.63 376.877 1191.65 404.165 1173.1 436.695C1162.61 455.102 1152.17 476.24 1158.56 498.342C1163.78 516.433 1179.18 530.777 1187.1 548.181C1194.98 565.362 1195.52 583.69 1201.31 601.09C1209.34 625.34 1227.63 646.98 1248.92 663.061C1284.37 689.688 1330.19 700.022 1368.5 689.101C1382.12 685.208 1394.82 678.796 1409.22 677.434C1420.12 676.437 1431.4 678.321 1442.43 678.565C1463.23 679.01 1483.23 673.46 1499.63 662.783C1504.19 659.812 1508.61 656.297 1510.91 651.295C1515.13 642.158 1511.14 630.197 1504.39 621.493C1497.63 612.812 1488.52 606.446 1480.1 599.361C1446.15 570.936 1422.87 530.023 1406.54 488.817C1401.47 476.014 1397.06 462.915 1395.41 449.778Z" stroke="#BDD4CE" stroke-miterlimit="10"/>
<path d="M1376.09 474.622C1373.47 461.082 1373.93 447.465 1374.9 433.972C1375.31 428.262 1373.68 422.198 1370.12 416.728C1366.53 411.224 1361.43 406.828 1356.21 403.03C1335.47 387.965 1310.61 381.037 1288.21 386.039C1279.16 388.059 1270.63 391.918 1262.17 396.606C1240.15 412.409 1217.32 432.002 1203.74 455.85C1195.97 469.508 1188.7 485.268 1193.11 501.684C1196.72 515.121 1207.38 526.084 1213.44 538.916C1219.71 552.204 1221.65 565.795 1227.22 578.649C1234.88 596.515 1249.65 612.44 1266.03 625.018C1291.85 644.847 1324.31 654.239 1352.5 648.256C1362.51 646.115 1371.83 642.107 1382.22 641.424C1390.21 640.897 1398.39 642.248 1406.35 642.376C1421.55 642.598 1435.91 638.347 1447.57 630.366C1450.82 628.147 1453.94 625.539 1455.64 621.922C1458.73 615.332 1456.3 606.787 1451.93 600.387C1447.58 594.017 1441.58 589.153 1435.98 583.808C1413.51 562.383 1397.23 532.411 1384.99 502.654C1381.18 493.394 1377.89 483.969 1376.09 474.622Z" stroke="#BDD4CE" stroke-miterlimit="10"/>
<path d="M1356.78 499.482C1353.73 490.509 1351.79 481.068 1350.42 471.44C1349.86 467.483 1348.32 463.319 1345.78 459.465C1343.2 455.562 1339.85 452.231 1336.42 449.224C1322.52 437.033 1306.19 429.534 1289.98 431.238C1283.57 431.911 1277.27 433.984 1270.81 437.018C1257.69 447.95 1243 459.843 1234.4 475.005C1229.35 483.914 1225.26 494.293 1227.69 505.02C1229.68 513.802 1235.64 521.368 1239.79 529.642C1244.5 539.02 1247.84 547.876 1253.16 556.195C1260.49 567.656 1271.73 577.84 1283.17 586.959C1299.41 599.908 1318.44 608.44 1336.52 607.398C1342.93 607.012 1348.86 605.442 1355.23 605.405C1360.31 605.375 1365.4 606.165 1370.28 606.177C1379.87 606.173 1388.58 603.225 1395.52 597.939C1397.45 596.472 1399.28 594.775 1400.37 592.542C1402.34 588.5 1401.45 583.384 1399.48 579.28C1397.52 575.23 1394.65 571.873 1391.87 568.254C1380.85 553.896 1371.62 534.803 1363.47 516.501C1360.92 510.784 1358.66 505.013 1356.78 499.482Z" stroke="#BDD4CE" stroke-miterlimit="10"/>
<path d="M1279.36 477.461C1275.15 483.511 1268.64 487.685 1265.03 494.142C1260.8 501.687 1261.23 512.014 1266.11 520.292C1273.65 533.086 1289.07 538.813 1300.25 548.761C1306.96 554.729 1312.46 562.489 1320.41 566.4C1351.72 581.811 1353.99 542.082 1337.33 524.338C1321.04 507.002 1308.15 468.569 1279.36 477.461Z" stroke="#BDD4CE" stroke-miterlimit="10"/>
<path d="M74.1871 213.32C88.1214 201.769 105.039 196.458 119.669 186.217C134.299 175.976 147.32 157.892 145.403 136.819C144.871 130.968 143.201 125.017 144.178 119.344C145.854 109.604 154.526 104.649 162.544 102.967C182.393 98.8036 202.961 106.422 223.283 108.204C243.606 109.985 266.921 103.252 275.048 80.9366C278.598 71.1907 278.948 59.1578 285.042 51.6244C296.204 37.8296 316.558 49.7724 327.228 65.4422C342.391 87.7129 350.033 115.983 363.422 139.858C382.226 173.385 411.236 196.4 432.623 227.589C456.999 263.138 470.667 309.239 470.246 354.5C469.825 399.76 455.318 443.755 430.314 475.609C414.332 495.97 394.531 511.217 374.418 525.213C367.242 530.207 359.683 535.18 351.285 535.638C343.874 536.041 336.525 532.876 329.466 529.555C308.126 519.51 287.308 507.587 267.235 493.913C255.845 486.153 244.464 477.715 231.915 474.058C218.842 470.248 205.403 471.884 192.19 472.964C155.97 475.922 116.033 473.053 87.2564 443.887C37.6661 393.622 17.6632 260.174 74.1871 213.32Z" stroke="#BDD4CE" stroke-miterlimit="10"/>
<path d="M137.662 401.935C99.2761 367.593 83.9349 272.298 122.219 234.98C131.601 225.834 143.135 220.924 153.226 212.793C163.338 204.577 172.468 191.245 171.797 176.113C171.61 171.886 170.636 167.59 171.531 163.538C173.189 156.031 179.838 151.942 186.05 150.164C198.698 146.543 212.057 148.944 225.394 151.019C228.319 151.471 231.195 151.888 234.023 152.232C250.781 154.273 267.348 152.488 274 140.524C276.941 135.232 277.978 128.857 282.58 124.611C290.978 116.865 304.491 124.587 312.135 135.516C323.004 151.054 328.953 170.456 338.759 186.859C345.251 197.722 353.265 207 361.54 216.012C370.82 226.115 380.444 235.904 388.638 247.241C406.309 271.697 416.546 303.314 417.597 334.827C418.669 366.977 410.032 399.573 392.121 422.976C380.489 438.255 365.372 448.95 350.218 458.064C344.841 461.32 339.218 464.491 333.039 464.621C327.586 464.736 322.178 462.449 316.964 460.059C310.647 457.162 304.388 454.064 298.188 450.81C288.91 445.944 279.773 440.74 270.813 435.181C262.33 429.922 253.851 424.269 244.592 421.838C234.947 419.305 225.055 420.435 215.312 421.205C188.598 423.319 159.498 421.474 137.662 401.935Z" stroke="#BDD4CE" stroke-miterlimit="10"/>
<path d="M188.063 359.952C160.77 341.6 150.216 284.48 170.266 256.643C175.102 249.93 181.278 245.446 186.805 239.395C192.427 233.243 197.654 224.626 198.213 215.446C198.373 212.842 198.124 210.209 198.902 207.776C200.585 202.504 205.168 199.288 209.569 197.419C218.536 193.607 228.437 193.872 238.345 195.305C240.576 195.626 242.715 195.966 244.768 196.329C257.955 198.669 267.622 201.945 272.948 200.128C275.219 199.353 276.464 197.633 280.107 197.581C284.67 194.296 292.419 199.376 297.036 205.563C303.611 214.369 307.866 224.904 314.088 233.84C318.201 239.756 323.095 244.838 328.107 249.769C333.74 255.306 339.56 260.683 344.647 266.88C355.611 280.242 362.501 297.441 364.938 315.153C367.565 334.263 364.683 355.334 353.902 370.321C346.593 380.48 336.176 386.614 325.993 390.892C322.412 392.395 318.729 393.78 314.769 393.586C311.276 393.414 307.81 392.009 304.437 390.545C300.354 388.776 296.298 386.901 292.267 385.017C286.23 382.195 280.256 379.35 274.367 376.433C268.792 373.67 263.213 370.806 257.243 369.597C251.025 368.338 244.679 368.963 238.406 369.426C221.219 370.691 202.886 369.921 188.063 359.952Z" stroke="#BDD4CE" stroke-miterlimit="10"/>
<path d="M238.461 317.823C254.531 319.561 270.742 314.794 286.565 319.249C291.742 320.707 296.8 323.138 302.056 323.748C307.312 324.358 313.075 322.731 316.022 317.598C319.779 311.059 317.449 301.215 312.671 295.198C307.891 289.181 301.301 286.026 294.993 282.877C288.686 279.728 282.151 276.144 277.837 269.633C268.279 255.206 269.031 241.054 251.441 238.898C241.766 237.713 232.17 242.423 226.366 251.314C214.258 269.861 213.049 315.075 238.461 317.823Z" stroke="#BDD4CE" stroke-miterlimit="10"/>
<path d="M757.635 562.429C774.931 581.389 793.425 598.682 812.871 614.081C820.49 620.115 828.559 625.996 837.395 627.502C858.113 631.035 874.781 610.34 887.917 591.374C910.152 559.276 932.386 527.175 954.62 495.078C966.35 478.143 978.468 460.254 982.045 438.132C985.735 415.305 980.094 389.246 989.507 369.356C993.493 360.935 999.81 354.622 1004.34 346.641C1019.98 319.056 1010.85 279.771 998.007 248.427C992.696 235.462 985.133 221.29 973.591 219.153C961.1 216.842 950.908 230.095 945.579 243.704C940.25 257.313 937.082 273.003 928.001 283.077C910.813 302.144 883.162 291.834 859.455 292.391C828.867 293.11 801.307 314.182 781.605 341.775C761.17 370.394 736.822 411.888 723.616 446.817C707.592 489.209 731.232 533.486 757.635 562.429Z" stroke="#BDD4CE" stroke-miterlimit="10"/>
<path d="M801.121 526.377C811.415 535.638 821.758 544.793 832.723 551.984C837.018 554.803 841.513 557.63 846.353 557.857C858.573 558.434 867.608 544.774 874.963 532.664C887.37 512.298 900.27 492.18 913.592 472.453C920.619 462.044 928.056 451.31 931.133 438.507C934.195 425.757 932.479 411.372 938.004 399.754C940.355 394.809 943.786 390.862 946.24 386.05C954.715 369.419 949.824 346.531 942.269 328.113C938.779 319.615 933.927 310.985 926.936 308.697C919.243 306.181 912.472 311.896 908.065 318.317C903.678 324.71 900.307 332.582 893.988 338.005C882.157 348.158 865.153 344.736 850.75 347.481C840.896 349.36 831.81 354.468 824.006 361.459C816.972 367.759 810.566 375.955 805.192 385.154C793.52 405.071 780.567 432.569 774.597 455.751C767.497 483.301 782.462 509.59 801.121 526.377Z" stroke="#BDD4CE" stroke-miterlimit="10"/>
<path d="M844.643 490.415C848.351 491.245 852.36 490.869 855.345 488.286C859.053 485.08 860.47 479.276 862.041 474.012C865.98 460.811 872.228 448.775 880.262 438.916C882.506 436.163 884.914 433.534 886.55 430.186C889.74 423.656 889.502 414.907 886.577 407.828C875.22 380.354 842.359 393.833 833.416 414.675C824.316 435.875 816.559 484.116 844.643 490.415Z" stroke="#BDD4CE" stroke-miterlimit="10"/>
<path d="M1441.32 928.627C1420.35 919.986 1398.62 913.498 1376.41 909.244C1367.71 907.577 1358.61 906.281 1349.78 909.415C1329.08 916.763 1317.84 944.393 1309.59 968.619C1295.62 1009.62 1281.66 1050.62 1267.69 1091.63C1260.33 1113.26 1252.81 1135.97 1254.46 1158.21C1256.16 1181.17 1267.57 1202.32 1263.11 1225.5C1261.22 1235.31 1256.6 1244.37 1254.09 1254.05C1245.42 1287.51 1263.21 1319.09 1282.75 1341.44C1290.83 1350.68 1301.35 1359.89 1312.92 1355.95C1325.45 1351.69 1332.18 1334.24 1334.17 1318.95C1336.16 1303.67 1335.59 1287.57 1341.99 1273.62C1354.11 1247.23 1383.02 1242.58 1405.66 1229.93C1434.86 1213.61 1456.47 1180.06 1469.04 1144.51C1482.08 1107.64 1495.91 1056.88 1500.56 1017.89C1506.2 970.569 1473.32 941.816 1441.32 928.627Z" stroke="#BDD4CE" stroke-miterlimit="10"/>
<path d="M1407.35 984.153C1395.34 980.876 1383.3 977.723 1371.12 976.701C1366.35 976.299 1361.38 975.991 1356.68 978.26C1344.82 983.985 1339.28 1001.22 1335.01 1016.16C1327.78 1041.31 1320.02 1066.48 1311.76 1091.51C1307.41 1104.71 1302.74 1118.42 1302.73 1131.82C1302.72 1145.15 1307.67 1157.55 1305.04 1171.1C1303.92 1176.87 1301.53 1182.27 1300.28 1187.96C1295.97 1207.65 1305.93 1226.27 1317.42 1239.4C1322.72 1245.45 1329.37 1250.93 1336.61 1249.47C1344.57 1247.85 1349.76 1239.11 1352.51 1230.92C1355.26 1222.78 1356.68 1213.79 1361.5 1205.55C1370.53 1190.12 1387.64 1184.57 1400.84 1174.66C1409.87 1167.88 1417.42 1158.52 1423.3 1148.07C1428.61 1138.65 1432.87 1127.81 1435.92 1116.57C1442.55 1092.21 1448.66 1060.2 1449.06 1035.75C1449.54 1006.69 1429.13 990.09 1407.35 984.153Z" stroke="#BDD4CE" stroke-miterlimit="10"/>
<path d="M1373.3 1039.7C1369.54 1040.83 1365.77 1043.23 1363.5 1047.15C1360.67 1052.01 1360.65 1058.1 1360.35 1063.77C1359.6 1077.98 1356.37 1092.3 1350.92 1105.52C1349.39 1109.22 1347.68 1112.88 1346.88 1116.81C1345.32 1124.48 1347.56 1132.44 1352 1137.48C1369.25 1157.04 1397.73 1127.75 1401.53 1103.91C1405.39 1079.66 1401.74 1031.13 1373.3 1039.7Z" stroke="#BDD4CE" stroke-miterlimit="10"/>
</g>
<defs>
<clipPath id="clip0_537_213160">
<rect width="1728" height="1426" fill="white" transform="matrix(-1 0 0 -1 1728 1426)"/>
</clipPath>
</defs>
</svg>
