<svg width="1728" height="571" viewBox="0 0 1728 571" fill="none" xmlns="http://www.w3.org/2000/svg">
<g clip-path="url(#clip0_297_498143)">
<rect width="1728" height="571" fill="#718C69"/>
<path d="M-276.075 617.041C-279.124 619.258 -282.391 621.375 -285.779 623.329C-286.449 623.714 -287.304 623.485 -287.689 622.815C-288.074 622.147 -287.857 621.275 -287.176 620.905C-282.288 618.088 -277.751 614.982 -273.529 611.558C-272.946 611.019 -272.047 611.163 -271.563 611.763C-271.077 612.362 -271.167 613.242 -271.768 613.73C-273.173 614.873 -274.61 615.976 -276.075 617.041ZM-259.799 602.108C-260.314 602.483 -261.033 602.469 -261.532 602.037C-262.12 601.532 -262.186 600.651 -261.683 600.065C-258.964 596.902 -256.439 593.51 -254.179 589.98C-253.413 588.906 -252.72 587.811 -252.082 586.668C-251.709 586.002 -250.854 585.752 -250.178 586.132C-249.506 586.509 -249.264 587.363 -249.642 588.037C-250.33 589.267 -251.079 590.449 -251.862 591.55C-254.152 595.131 -256.756 598.628 -259.561 601.887C-259.633 601.975 -259.713 602.046 -259.799 602.108ZM-300.724 630.621C-300.813 630.685 -300.909 630.738 -301.016 630.782C-306.042 632.852 -311.421 634.721 -317.001 636.346C-317.743 636.561 -318.52 636.137 -318.736 635.395C-318.953 634.651 -318.515 633.879 -317.786 633.659C-312.3 632.063 -307.015 630.224 -302.081 628.194C-301.366 627.901 -300.549 628.243 -300.253 628.957C-300.002 629.565 -300.214 630.25 -300.724 630.621ZM94.4641 340.042C93.8656 340.477 93.0215 340.371 92.5536 339.788C92.0679 339.185 92.1619 338.306 92.7622 337.822C93.3431 337.353 93.9144 336.87 94.4816 336.373C98.2082 333.157 101.229 329.711 103.715 325.829C104.128 325.18 104.997 324.991 105.647 325.408C106.298 325.824 106.488 326.689 106.07 327.341C103.433 331.454 100.245 335.1 96.3175 338.486C95.7331 339.002 95.1314 339.507 94.5203 339.999C94.5015 340.014 94.4813 340.029 94.4641 340.042ZM80.1563 348.707C80.0766 348.765 79.9929 348.812 79.902 348.855C74.9786 351.053 69.5331 352.839 63.72 354.167C62.9674 354.339 62.2161 353.868 62.0434 353.115C61.8695 352.36 62.3459 351.608 63.094 351.439C68.7324 350.151 74.0047 348.423 78.76 346.299C79.4668 345.985 80.295 346.301 80.6078 347.007C80.8832 347.622 80.6775 348.328 80.1563 348.707ZM-332.881 640.08C-333.04 640.196 -333.225 640.28 -333.431 640.322C-338.763 641.377 -344.378 642.277 -350.117 642.99C-350.882 643.085 -351.582 642.541 -351.676 641.774C-351.776 641.005 -351.229 640.304 -350.464 640.214C-344.792 639.506 -339.244 638.618 -333.976 637.576C-333.217 637.426 -332.483 637.919 -332.331 638.677C-332.223 639.23 -332.454 639.77 -332.881 640.08ZM-244.38 572.755C-244.694 572.983 -245.1 573.079 -245.506 572.989C-246.26 572.821 -246.737 572.072 -246.569 571.318C-245.543 566.714 -244.737 561.338 -244.107 554.888C-244.036 554.117 -243.344 553.56 -242.578 553.632C-241.808 553.707 -241.245 554.392 -241.321 555.161C-241.965 561.727 -242.787 567.211 -243.836 571.927C-243.915 572.275 -244.112 572.56 -244.38 572.755ZM112.254 312.355C111.927 312.593 111.499 312.688 111.077 312.576C110.331 312.382 109.882 311.617 110.079 310.869C111.49 305.471 112.25 299.827 112.859 294.532C112.954 293.767 113.643 293.219 114.41 293.303C115.178 293.393 115.726 294.086 115.639 294.855C115.017 300.25 114.24 306.011 112.783 311.578C112.699 311.904 112.506 312.172 112.254 312.355ZM47.6412 356.424C47.4403 356.57 47.1985 356.665 46.9328 356.686C41.5253 357.117 35.8273 357.246 29.9994 357.067C29.227 357.04 28.6209 356.396 28.643 355.623C28.6691 354.851 29.3137 354.247 30.0854 354.267C35.8112 354.446 41.4038 354.319 46.7085 353.896C47.4789 353.835 48.1527 354.41 48.2156 355.178C48.2542 355.684 48.0234 356.146 47.6412 356.424ZM-366.182 644.314C-366.39 644.464 -366.64 644.558 -366.913 644.577C-372.322 644.933 -377.987 645.162 -383.749 645.259C-384.52 645.273 -385.159 644.659 -385.171 643.885C-385.188 643.109 -384.574 642.477 -383.796 642.463C-378.08 642.364 -372.462 642.138 -367.098 641.786C-366.328 641.736 -365.66 642.319 -365.61 643.089C-365.575 643.588 -365.809 644.042 -366.182 644.314ZM14.126 355.492C13.8496 355.692 13.4976 355.793 13.1334 355.747C10.8788 355.47 8.67652 355.159 6.54004 354.821C3.03926 354.596 -0.335001 354.339 -3.49797 354.081C-4.26679 354.019 -4.84072 353.344 -4.77788 352.572C-4.71499 351.804 -4.03843 351.234 -3.26955 351.293C-0.121855 351.549 3.23747 351.803 6.85046 352.044C9.08178 352.391 11.2532 352.697 13.4728 352.972C14.2404 353.066 14.7852 353.765 14.6902 354.531C14.6407 354.931 14.4285 355.272 14.126 355.492ZM-240.645 539.411C-240.899 539.596 -241.217 539.698 -241.554 539.676C-242.326 539.626 -242.912 538.964 -242.864 538.193L-242.804 537.227C-242.481 532.022 -242.146 526.639 -241.686 521.402C-241.624 520.627 -240.944 520.062 -240.171 520.131C-239.401 520.2 -238.832 520.877 -238.9 521.647C-239.358 526.852 -239.691 532.213 -240.013 537.4L-240.071 538.365C-240.099 538.801 -240.321 539.175 -240.645 539.411ZM117.15 279.17C116.859 279.383 116.483 279.483 116.098 279.418C115.338 279.292 114.821 278.573 114.948 277.809C116.014 271.375 117.423 266.14 119.387 261.344C119.679 260.621 120.499 260.285 121.209 260.58C121.924 260.871 122.268 261.688 121.973 262.403C120.095 267.001 118.738 272.043 117.707 278.269C117.647 278.644 117.438 278.962 117.15 279.17ZM-399.74 644.93C-399.981 645.105 -400.276 645.205 -400.593 645.196C-406.005 645.073 -411.669 644.845 -417.423 644.521C-418.194 644.477 -418.784 643.815 -418.742 643.045C-418.698 642.269 -418.035 641.686 -417.267 641.725C-411.542 642.05 -405.914 642.276 -400.531 642.4C-399.76 642.417 -399.145 643.058 -399.165 643.829C-399.175 644.285 -399.4 644.682 -399.74 644.93ZM320.795 118.642C320.281 119.016 319.755 119.385 319.222 119.748C318.585 120.181 317.715 120.016 317.278 119.378C316.844 118.74 316.956 117.922 317.647 117.433C322.233 114.315 326.173 110.714 329.68 106.424C330.165 105.814 331.05 105.739 331.647 106.227C332.247 106.717 332.334 107.599 331.845 108.195C328.573 112.199 324.958 115.615 320.795 118.642ZM-580.563 771.607C-583.591 773.805 -586.737 775.785 -589.917 777.492C-590.598 777.859 -591.445 777.604 -591.811 776.924C-592.179 776.241 -591.908 775.396 -591.242 775.03C-586.546 772.505 -581.929 769.36 -577.631 765.77C-576.995 765.263 -576.153 765.354 -575.66 765.944C-575.165 766.537 -575.242 767.421 -575.834 767.916C-577.37 769.201 -578.962 770.443 -580.563 771.607ZM304.436 127.528C304.35 127.591 304.255 127.646 304.151 127.688C299.801 129.496 294.746 131.303 288.244 133.374C287.509 133.608 286.721 133.201 286.487 132.466C286.251 131.733 286.648 130.937 287.394 130.709C293.817 128.661 298.802 126.881 303.077 125.104C303.79 124.809 304.609 125.146 304.906 125.86C305.159 126.469 304.949 127.155 304.436 127.528ZM-563.983 756.204C-564.499 756.58 -565.224 756.562 -565.724 756.125C-566.307 755.616 -566.366 754.734 -565.859 754.152C-562.469 750.271 -559.128 745.978 -555.646 741.027C-555.199 740.404 -554.328 740.244 -553.696 740.69C-553.065 741.133 -552.913 742.006 -553.356 742.639C-556.897 747.67 -560.297 752.038 -563.751 755.992C-563.822 756.074 -563.9 756.144 -563.983 756.204ZM-605.278 783.664C-605.415 783.763 -605.571 783.839 -605.744 783.884C-611.385 785.37 -616.969 785.879 -622.815 785.437C-623.587 785.38 -624.164 784.708 -624.105 783.939C-624.049 783.164 -623.379 782.59 -622.605 782.649C-617.073 783.066 -611.792 782.585 -606.457 781.18C-605.711 780.982 -604.945 781.428 -604.747 782.177C-604.597 782.749 -604.825 783.334 -605.278 783.664ZM340.537 94.2976C340.13 94.5931 339.576 94.6581 339.091 94.4194C338.4 94.0774 338.117 93.2358 338.46 92.5431C340.709 88.0126 342.762 82.9921 344.741 77.1988C344.993 76.4583 345.788 76.0795 346.519 76.3284C347.251 76.5773 347.64 77.3717 347.389 78.105C345.37 84.0152 343.268 89.1459 340.966 93.7889C340.861 93.997 340.713 94.1692 340.537 94.2976ZM128.982 247.995C128.545 248.313 127.945 248.361 127.449 248.069C126.784 247.674 126.563 246.818 126.954 246.152C129.647 241.592 132.81 236.857 136.362 232.075C136.824 231.456 137.698 231.326 138.32 231.787C138.939 232.249 139.069 233.123 138.609 233.745C135.115 238.448 132.006 243.1 129.366 247.574C129.264 247.746 129.133 247.885 128.982 247.995ZM570.276 -75.5143C570.227 -75.4788 570.177 -75.4458 570.124 -75.4173C565.734 -73.0095 560.496 -71.0497 554.113 -69.429C553.367 -69.2382 552.605 -69.6908 552.414 -70.4409C552.223 -71.1873 552.679 -71.944 553.424 -72.1411C559.575 -73.7009 564.597 -75.5757 568.778 -77.8719C569.455 -78.242 570.306 -77.9958 570.678 -77.317C571.02 -76.6931 570.837 -75.9222 570.276 -75.5143ZM-19.269 352.411C-19.53 352.601 -19.8547 352.701 -20.1987 352.674C-25.5917 352.257 -31.3301 351.898 -36.7792 352.096C-37.55 352.123 -38.2001 351.521 -38.229 350.748C-38.2533 349.971 -37.6472 349.328 -36.8817 349.298C-31.2933 349.097 -25.458 349.459 -19.9856 349.883C-19.215 349.945 -18.6381 350.617 -18.6968 351.386C-18.7305 351.813 -18.9486 352.178 -19.269 352.411ZM582.726 -86.4887C582.273 -86.1593 581.645 -86.1219 581.143 -86.4456C580.496 -86.8669 580.309 -87.7321 580.729 -88.3812C583.091 -92.0386 585.055 -96.6823 587.088 -103.435C587.314 -104.174 588.092 -104.594 588.832 -104.372C589.573 -104.147 589.991 -103.367 589.769 -102.628C587.654 -95.6099 585.591 -90.7474 583.078 -86.8592C582.982 -86.7122 582.86 -86.5863 582.726 -86.4887ZM272.591 138.071C272.468 138.161 272.328 138.233 272.172 138.279C267.158 139.781 261.824 141.386 256.139 143.174C255.404 143.408 254.619 142.996 254.387 142.259C254.153 141.524 254.561 140.73 255.301 140.506C260.994 138.712 266.341 137.105 271.366 135.601C272.105 135.378 272.888 135.798 273.107 136.538C273.284 137.123 273.058 137.732 272.591 138.071ZM-237.33 506.007C-237.628 506.224 -238.012 506.324 -238.405 506.251C-239.165 506.112 -239.668 505.383 -239.529 504.622C-238.891 501.152 -238.137 497.883 -237.281 494.906C-236.43 492.601 -235.614 490.426 -234.794 488.289C-234.508 487.572 -233.706 487.208 -232.985 487.484C-232.264 487.764 -231.903 488.572 -232.181 489.295C-232.998 491.424 -233.812 493.583 -234.624 495.778C-235.422 498.568 -236.156 501.748 -236.776 505.128C-236.844 505.496 -237.049 505.803 -237.33 506.007ZM-544.483 728.931C-544.928 729.255 -545.544 729.297 -546.041 728.99C-546.699 728.582 -546.902 727.72 -546.495 727.062C-543.568 722.329 -540.712 717.513 -537.868 712.692C-537.48 712.028 -536.618 711.806 -535.953 712.198C-535.288 712.593 -535.067 713.449 -535.459 714.116C-538.315 718.953 -541.177 723.788 -544.117 728.537C-544.213 728.694 -544.34 728.827 -544.483 728.931ZM-876.188 966.697C-878.379 968.29 -880.667 969.758 -882.99 971.059C-883.664 971.437 -884.516 971.198 -884.894 970.524C-885.271 969.849 -885.044 968.981 -884.358 968.621C-879.715 966.012 -875.288 962.766 -871.143 958.908C-870.574 958.369 -869.693 958.411 -869.167 958.978C-868.639 959.544 -868.671 960.428 -869.237 960.956C-871.477 963.039 -873.816 964.972 -876.188 966.697ZM148.843 220.976C148.328 221.351 147.604 221.336 147.102 220.9C146.521 220.394 146.457 219.512 146.963 218.927C150.518 214.836 154.372 210.672 158.425 206.546C158.949 206.004 159.849 205.987 160.403 206.531C160.955 207.072 160.96 207.957 160.419 208.509C156.408 212.59 152.592 216.714 149.076 220.763C149.004 220.846 148.926 220.915 148.843 220.976ZM-433.28 643.089C-433.543 643.28 -433.872 643.381 -434.218 643.352L-437.406 643.081C-442.001 642.739 -446.507 642.697 -450.782 642.947C-451.553 642.994 -452.217 642.406 -452.261 641.634C-452.305 640.858 -451.711 640.197 -450.948 640.156C-446.55 639.897 -441.917 639.941 -437.185 640.292L-433.989 640.563C-433.216 640.627 -432.646 641.303 -432.707 642.074C-432.745 642.497 -432.965 642.86 -433.28 643.089ZM538.087 -66.5819C537.905 -66.4501 537.688 -66.3593 537.452 -66.3268C532.554 -65.668 527.219 -65.1178 520.67 -64.5958C519.899 -64.5357 519.225 -65.1102 519.163 -65.8789C519.102 -66.6552 519.679 -67.3289 520.445 -67.3856C526.945 -67.9017 532.23 -68.4464 537.076 -69.1013C537.844 -69.2029 538.547 -68.667 538.651 -67.9012C538.722 -67.3711 538.489 -66.8745 538.087 -66.5819ZM-858.246 948.55C-858.732 948.904 -859.411 948.914 -859.914 948.533C-860.53 948.066 -860.651 947.188 -860.184 946.574C-857.016 942.402 -853.941 937.743 -851.039 932.728C-850.656 932.054 -849.797 931.831 -849.128 932.218C-848.459 932.606 -848.231 933.46 -848.617 934.13C-851.577 939.245 -854.717 944.002 -857.954 948.264C-858.04 948.377 -858.139 948.473 -858.246 948.55ZM240.981 149.215C240.913 149.265 240.837 149.31 240.757 149.348C236.041 151.577 231.081 154.193 226.017 157.126C225.349 157.513 224.491 157.286 224.106 156.616C223.719 155.949 223.938 155.079 224.615 154.705C229.749 151.733 234.778 149.081 239.561 146.82C240.26 146.49 241.093 146.786 241.423 147.486C241.716 148.104 241.516 148.826 240.981 149.215ZM-898.363 977.222C-898.499 977.321 -898.655 977.396 -898.828 977.442C-904.104 978.841 -909.61 979.675 -915.664 979.989C-916.436 980.029 -917.094 979.437 -917.134 978.665C-917.175 977.894 -916.581 977.236 -915.811 977.196C-909.954 976.89 -904.633 976.087 -899.546 974.736C-898.798 974.541 -898.033 974.984 -897.834 975.732C-897.681 976.307 -897.91 976.892 -898.363 977.222ZM172.325 197.014C171.758 197.427 170.959 197.356 170.472 196.825C169.952 196.254 169.992 195.369 170.561 194.848C174.65 191.107 178.931 187.384 183.282 183.785C183.82 183.271 184.757 183.375 185.251 183.971C185.744 184.566 185.66 185.448 185.065 185.941C180.751 189.51 176.507 193.204 172.449 196.914C172.41 196.949 172.37 196.982 172.325 197.014ZM211.894 165.926C211.879 165.938 211.863 165.949 211.848 165.96C207.297 168.995 202.713 172.23 198.204 175.603C198.2 175.606 198.192 175.611 198.188 175.614C197.57 176.064 196.705 175.933 196.246 175.321C195.782 174.702 195.909 173.826 196.527 173.363C201.071 169.961 205.702 166.696 210.295 163.63C210.938 163.204 211.806 163.376 212.237 164.019C212.653 164.646 212.5 165.486 211.894 165.926ZM351.672 62.6983C351.345 62.936 350.917 63.0309 350.497 62.9212C349.749 62.7245 349.303 61.9613 349.495 61.2135C349.837 59.9043 350.174 58.5711 350.512 57.2061C351.748 52.9691 352.964 48.9329 354.188 45.0329C354.422 44.2948 355.208 43.8857 355.94 44.1169C356.678 44.3473 357.088 45.1336 356.856 45.8694C355.639 49.7511 354.426 53.7728 353.212 57.9359C352.886 59.2541 352.546 60.602 352.204 61.919C352.119 62.245 351.926 62.5134 351.672 62.6983ZM-638.28 781.787C-638.625 782.038 -639.08 782.128 -639.519 781.992C-643.127 780.868 -646.788 779.556 -650.33 778.286C-652.016 777.681 -653.712 777.072 -655.424 776.476C-656.153 776.222 -656.539 775.425 -656.285 774.693C-656.028 773.965 -655.232 773.58 -654.504 773.833C-652.786 774.432 -651.081 775.044 -649.386 775.651C-645.711 776.969 -642.239 778.216 -638.688 779.319C-637.95 779.55 -637.539 780.332 -637.768 781.07C-637.86 781.371 -638.044 781.616 -638.28 781.787ZM-527.214 700.123C-527.658 700.446 -528.271 700.49 -528.77 700.183C-529.427 699.779 -529.634 698.916 -529.228 698.259C-525.832 692.733 -522.915 688.237 -520.047 684.11C-519.607 683.48 -518.736 683.319 -518.1 683.762C-517.465 684.203 -517.308 685.076 -517.749 685.711C-520.586 689.79 -523.477 694.243 -526.846 699.725C-526.944 699.886 -527.07 700.018 -527.214 700.123ZM-52.5116 354.412C-52.6399 354.506 -52.7885 354.58 -52.95 354.627C-57.6072 355.955 -62.6468 357.896 -68.3598 360.56C-69.0588 360.885 -69.8929 360.583 -70.22 359.881C-70.5448 359.179 -70.2294 358.354 -69.5433 358.021C-63.6938 355.295 -58.5171 353.305 -53.7181 351.935C-52.9765 351.724 -52.2019 352.153 -51.9883 352.897C-51.8247 353.477 -52.0498 354.077 -52.5116 354.412ZM593.754 -118.087C593.416 -117.841 592.969 -117.75 592.536 -117.877C591.795 -118.098 591.371 -118.875 591.59 -119.615C593.348 -125.562 594.975 -129.557 596.873 -132.572C597.28 -133.225 598.148 -133.42 598.8 -133.01C599.453 -132.6 599.652 -131.737 599.239 -131.083C597.489 -128.293 595.955 -124.512 594.272 -118.822C594.183 -118.514 593.995 -118.262 593.754 -118.087ZM-226.28 474.406C-226.671 474.691 -227.199 474.763 -227.67 474.552C-228.378 474.238 -228.696 473.412 -228.381 472.707C-225.916 467.165 -223.475 462.203 -220.918 457.544C-220.546 456.871 -219.698 456.616 -219.02 456.992C-218.341 457.363 -218.094 458.214 -218.467 458.89C-220.986 463.482 -223.391 468.372 -225.827 473.843C-225.928 474.077 -226.088 474.266 -226.28 474.406ZM-841.286 919.661C-841.685 919.951 -842.224 920.021 -842.701 919.798C-843.402 919.47 -843.704 918.638 -843.377 917.938C-841.216 913.313 -839.054 908.298 -836.767 902.604C-836.483 901.888 -835.666 901.54 -834.947 901.828C-834.23 902.117 -833.882 902.932 -834.17 903.648C-836.478 909.387 -838.66 914.451 -840.844 919.123C-840.948 919.344 -841.101 919.526 -841.286 919.661ZM-83.0899 367.971C-83.1583 368.02 -83.2296 368.062 -83.3061 368.101C-87.9215 370.327 -92.9707 372.552 -98.7363 374.906C-99.4514 375.2 -100.27 374.855 -100.56 374.141C-100.852 373.427 -100.512 372.613 -99.7947 372.317C-94.0808 369.985 -89.0863 367.782 -84.5243 365.581C-83.8282 365.247 -82.9921 365.537 -82.6557 366.233C-82.3557 366.852 -82.555 367.582 -83.0899 367.971ZM-466.584 645.308C-466.719 645.406 -466.874 645.481 -467.043 645.527C-472.357 646.955 -477.497 648.985 -482.321 651.563C-483.002 651.926 -483.849 651.671 -484.214 650.99C-484.579 650.306 -484.302 649.465 -483.641 649.097C-478.63 646.416 -473.29 644.308 -467.771 642.826C-467.026 642.626 -466.258 643.067 -466.057 643.813C-465.902 644.389 -466.129 644.977 -466.584 645.308ZM-507.851 672.744C-508.365 673.117 -509.084 673.103 -509.586 672.671C-510.171 672.167 -510.237 671.283 -509.732 670.699C-505.768 666.101 -501.839 662.176 -497.716 658.699C-497.129 658.197 -496.242 658.276 -495.745 658.867C-495.247 659.457 -495.321 660.34 -495.91 660.839C-499.919 664.219 -503.747 668.04 -507.614 672.524C-507.685 672.609 -507.765 672.681 -507.851 672.744ZM504.617 -63.6916C504.411 -63.5421 504.159 -63.4471 503.888 -63.4294C498.063 -63.0485 492.404 -62.6649 487.179 -62.1602C486.412 -62.0863 485.726 -62.6485 485.652 -63.419C485.575 -64.1878 486.145 -64.869 486.91 -64.9452C492.173 -65.4541 497.857 -65.8394 503.702 -66.2209C504.473 -66.271 505.14 -65.6881 505.19 -64.9177C505.223 -64.4173 504.992 -63.9642 504.617 -63.6916ZM-931.686 979.339C-931.95 979.531 -932.28 979.632 -932.629 979.602C-937.6 979.168 -943.078 978.455 -949.379 977.42C-950.141 977.296 -950.657 976.577 -950.533 975.814C-950.408 975.05 -949.689 974.535 -948.927 974.66C-942.696 975.684 -937.286 976.386 -932.388 976.812C-931.617 976.88 -931.049 977.558 -931.114 978.329C-931.151 978.747 -931.37 979.109 -931.686 979.339ZM-114.08 380.833C-114.177 380.903 -114.288 380.964 -114.407 381.01L-117.394 382.137C-121.66 383.742 -125.896 385.339 -130.073 386.976C-130.792 387.26 -131.604 386.904 -131.884 386.185C-132.165 385.47 -131.83 384.652 -131.094 384.373C-126.907 382.731 -122.659 381.129 -118.383 379.517L-115.399 378.392C-114.675 378.119 -113.866 378.484 -113.595 379.205C-113.365 379.81 -113.582 380.471 -114.08 380.833ZM361.672 30.6658C361.309 30.9294 360.828 31.0154 360.375 30.8515C359.648 30.5896 359.269 29.7904 359.531 29.063C361.586 23.3382 363.605 18.2047 365.707 13.3655C366.011 12.6606 366.838 12.3301 367.547 12.6395C368.257 12.9476 368.581 13.7692 368.273 14.4799C366.196 19.2642 364.2 24.3442 362.164 30.0074C362.065 30.2818 361.891 30.5068 361.672 30.6658ZM-210.033 445.102C-210.504 445.445 -211.159 445.468 -211.663 445.115C-212.293 444.67 -212.445 443.798 -212 443.164C-208.687 438.458 -205.216 434.137 -201.398 429.955C-200.865 429.378 -199.991 429.344 -199.42 429.865C-198.851 430.387 -198.809 431.272 -199.332 431.844C-203.071 435.935 -206.467 440.164 -209.713 444.777C-209.803 444.905 -209.912 445.014 -210.033 445.102ZM-145.229 393.299C-145.302 393.352 -145.381 393.4 -145.468 393.439C-150.993 395.97 -155.822 398.471 -160.23 401.084C-160.895 401.476 -161.752 401.258 -162.148 400.593C-162.539 399.929 -162.29 399.077 -161.657 398.676C-157.163 396.012 -152.249 393.467 -146.635 390.896C-145.933 390.574 -145.101 390.882 -144.779 391.584C-144.498 392.2 -144.701 392.915 -145.229 393.299ZM-828.619 888.587C-828.985 888.854 -829.473 888.938 -829.93 888.767C-830.655 888.497 -831.022 887.692 -830.754 886.968L-827.87 879.171C-826.891 876.513 -825.911 873.857 -824.925 871.208C-824.653 870.487 -823.852 870.117 -823.127 870.387C-822.402 870.657 -822.035 871.462 -822.303 872.186C-823.288 874.832 -824.265 877.485 -825.245 880.138L-828.131 887.946C-828.232 888.211 -828.404 888.431 -828.619 888.587ZM-670.246 771.62C-670.555 771.844 -670.952 771.94 -671.355 771.858C-675.628 770.965 -679.677 770.469 -683.732 770.335C-684.945 770.346 -686.278 770.386 -687.672 770.453C-688.443 770.49 -689.098 769.895 -689.136 769.122C-689.173 768.351 -688.575 767.693 -687.806 767.658C-686.374 767.591 -685.002 767.55 -683.699 767.537C-679.424 767.676 -675.218 768.193 -670.783 769.118C-670.028 769.275 -669.542 770.016 -669.7 770.773C-669.773 771.127 -669.974 771.422 -670.246 771.62ZM-187.474 420.395C-188.057 420.819 -188.882 420.73 -189.357 420.169C-189.859 419.582 -189.791 418.698 -189.202 418.199C-185.039 414.649 -180.572 411.228 -175.751 407.933C-175.115 407.498 -174.243 407.661 -173.806 408.299C-173.37 408.935 -173.565 409.81 -174.171 410.245C-178.909 413.483 -183.3 416.841 -187.386 420.325C-187.414 420.352 -187.443 420.373 -187.474 420.395ZM471.271 -59.9127C471.114 -59.7986 470.931 -59.7165 470.728 -59.6738C464.998 -58.5017 459.521 -57.2327 454.452 -55.9086C453.705 -55.7137 452.941 -56.1614 452.744 -56.9102C452.548 -57.6591 452.993 -58.4222 453.745 -58.6177C458.863 -59.9536 464.389 -61.2306 470.168 -62.4146C470.923 -62.5686 471.662 -62.0823 471.818 -61.3241C471.932 -60.7682 471.7 -60.2247 471.271 -59.9127ZM375.193 -0.00230377C374.767 0.307518 374.181 0.361653 373.688 0.0883746C373.016 -0.288401 372.771 -1.14012 373.147 -1.81622C376.062 -7.0473 379.072 -11.7051 382.353 -16.0546C382.818 -16.6656 383.696 -16.7907 384.313 -16.3269C384.929 -15.8617 385.052 -14.9854 384.586 -14.3667C381.384 -10.1225 378.442 -5.57102 375.592 -0.451287C375.492 -0.269673 375.352 -0.118092 375.193 -0.00230377ZM-964.858 974.18C-965.158 974.398 -965.545 974.497 -965.94 974.423C-971.322 973.403 -976.887 972.348 -982.427 971.442C-983.19 971.317 -983.705 970.598 -983.581 969.835C-983.458 969.073 -982.739 968.557 -981.975 968.681C-976.402 969.593 -970.819 970.649 -965.42 971.673C-964.662 971.818 -964.162 972.549 -964.305 973.308C-964.375 973.673 -964.579 973.977 -964.858 974.18ZM438.848 -51.3167C438.737 -51.2363 438.616 -51.1715 438.481 -51.1244C432.968 -49.2312 427.776 -47.1462 423.053 -44.9322C422.352 -44.6053 421.522 -44.9068 421.192 -45.6061C420.861 -46.3079 421.169 -47.1395 421.865 -47.467C426.679 -49.7234 431.962 -51.8446 437.57 -53.7696C438.298 -54.0221 439.095 -53.6318 439.348 -52.9036C439.552 -52.3087 439.332 -51.6684 438.848 -51.3167ZM-816.749 857.164C-817.127 857.439 -817.632 857.519 -818.098 857.33C-818.814 857.04 -819.16 856.224 -818.869 855.509C-816.545 849.755 -814.347 844.693 -812.147 840.038C-811.819 839.337 -810.983 839.04 -810.285 839.371C-809.586 839.701 -809.287 840.535 -809.617 841.234C-811.794 845.841 -813.972 850.854 -816.277 856.558C-816.378 856.81 -816.545 857.016 -816.749 857.164ZM395.461 -26.5672C394.9 -26.1592 394.11 -26.2232 393.621 -26.7426C393.092 -27.3072 393.12 -28.1926 393.682 -28.7198C396.615 -31.4733 399.768 -34.0803 403.053 -36.4692C404.323 -37.5378 405.677 -38.333 407.038 -39.2283C407.682 -39.6526 408.55 -39.4757 408.974 -38.8277C409.401 -38.1855 409.26 -37.249 408.574 -36.892C407.251 -36.0179 406.059 -35.0931 404.698 -34.2056C401.506 -31.8846 398.446 -29.3529 395.597 -26.6798C395.554 -26.6387 395.509 -26.6022 395.461 -26.5672ZM-703.619 771.928C-703.795 772.056 -704.002 772.145 -704.232 772.177C-709.58 772.981 -715.105 774.007 -720.652 775.23C-721.406 775.396 -722.153 774.919 -722.319 774.164C-722.484 773.412 -722.012 772.668 -721.254 772.498C-715.647 771.262 -710.059 770.224 -704.649 769.413C-703.886 769.297 -703.174 769.823 -703.057 770.587C-702.976 771.123 -703.21 771.63 -703.619 771.928ZM-998.089 969.824C-998.326 969.997 -998.62 970.096 -998.938 970.089C-1004.33 969.988 -1009.92 970.187 -1015.55 970.69C-1016.32 970.759 -1017 970.192 -1017.07 969.421C-1017.14 968.653 -1016.58 967.97 -1015.8 967.904C-1010.07 967.393 -1004.38 967.188 -998.884 967.293C-998.112 967.307 -997.498 967.945 -997.512 968.718C-997.521 969.175 -997.746 969.575 -998.089 969.824ZM-736.405 779.145C-736.532 779.237 -736.677 779.309 -736.836 779.357C-742.401 780.973 -747.724 782.746 -752.659 784.624C-753.381 784.899 -754.189 784.536 -754.464 783.814C-754.739 783.092 -754.371 782.287 -753.655 782.009C-748.65 780.104 -743.255 778.307 -737.619 776.669C-736.877 776.454 -736.101 776.879 -735.886 777.622C-735.715 778.205 -735.94 778.808 -736.405 779.145ZM-802.246 826.921C-802.684 827.239 -803.285 827.288 -803.783 826.994C-804.446 826.601 -804.667 825.745 -804.275 825.078C-801.221 819.904 -798.108 815.313 -794.76 811.044C-794.298 810.434 -793.405 810.329 -792.796 810.806C-792.188 811.283 -792.082 812.162 -792.559 812.769C-795.83 816.941 -798.873 821.434 -801.866 826.502C-801.965 826.673 -802.097 826.813 -802.246 826.921ZM-767.66 791.288C-767.713 791.326 -767.77 791.362 -767.831 791.395C-771.391 793.273 -774.566 795.223 -777.269 797.189C-778.637 798.282 -780.011 799.452 -781.343 800.66C-781.926 801.193 -782.801 801.133 -783.318 800.562C-783.837 799.991 -783.795 799.105 -783.221 798.587C-781.846 797.341 -780.427 796.13 -778.964 794.961C-778.958 794.956 -778.951 794.951 -778.944 794.946C-776.089 792.871 -772.806 790.856 -769.137 788.918C-768.455 788.558 -767.608 788.82 -767.247 789.503C-766.919 790.127 -767.107 790.886 -767.66 791.288ZM-1031.47 972.719C-1031.64 972.838 -1031.83 972.923 -1032.04 972.963C-1037.33 973.937 -1042.8 975.178 -1048.3 976.647C-1049.05 976.846 -1049.81 976.402 -1050.01 975.656C-1050.21 974.909 -1049.76 974.143 -1049.02 973.943C-1043.45 972.455 -1037.91 971.199 -1032.55 970.21C-1031.79 970.07 -1031.06 970.573 -1030.92 971.333C-1030.82 971.881 -1031.05 972.413 -1031.47 972.719ZM-1063.89 981.307C-1064.01 981.388 -1064.13 981.454 -1064.27 981.5C-1069.37 983.235 -1074.64 985.197 -1079.92 987.329C-1080.64 987.617 -1081.46 987.27 -1081.74 986.554C-1082.03 985.836 -1081.69 985.025 -1080.97 984.731C-1075.63 982.581 -1070.32 980.601 -1065.17 978.851C-1064.44 978.603 -1063.64 978.994 -1063.39 979.726C-1063.19 980.319 -1063.41 980.956 -1063.89 981.307ZM-1095.03 993.815C-1095.11 993.869 -1095.19 993.916 -1095.27 993.955C-1100.18 996.205 -1105.25 998.661 -1110.34 1001.25C-1111.03 1001.6 -1111.87 1001.32 -1112.22 1000.63C-1112.57 999.942 -1112.29 999.109 -1111.61 998.751C-1106.48 996.15 -1101.38 993.68 -1096.44 991.413C-1095.74 991.091 -1094.91 991.4 -1094.59 992.101C-1094.3 992.717 -1094.51 993.431 -1095.03 993.815ZM-1124.99 1008.98C-1125.04 1009.02 -1125.09 1009.05 -1125.14 1009.08C-1129.85 1011.67 -1134.75 1014.46 -1139.7 1017.36C-1140.37 1017.75 -1141.23 1017.53 -1141.62 1016.86C-1142.01 1016.2 -1141.77 1015.36 -1141.12 1014.95C-1136.15 1012.03 -1131.23 1009.23 -1126.49 1006.63C-1125.82 1006.25 -1124.96 1006.5 -1124.59 1007.18C-1124.25 1007.8 -1124.43 1008.58 -1124.99 1008.98ZM-1153.96 1025.95C-1153.99 1025.97 -1154.02 1025.99 -1154.05 1026.01C-1158.85 1028.97 -1163.59 1031.96 -1168.24 1034.94C-1168.89 1035.36 -1169.76 1035.17 -1170.17 1034.52C-1170.59 1033.87 -1170.44 1032.99 -1169.75 1032.59C-1165.08 1029.59 -1160.34 1026.6 -1155.52 1023.62C-1154.87 1023.22 -1154 1023.42 -1153.6 1024.08C-1153.21 1024.71 -1153.38 1025.52 -1153.96 1025.95ZM-1182.24 1044.05C-1182.26 1044.07 -1182.28 1044.08 -1182.3 1044.09C-1187.06 1047.23 -1191.72 1050.34 -1196.27 1053.39C-1196.91 1053.82 -1197.78 1053.65 -1198.21 1053C-1198.64 1052.36 -1198.38 1051.52 -1197.83 1051.06C-1193.27 1048.01 -1188.6 1044.9 -1183.84 1041.76C-1183.19 1041.33 -1182.32 1041.51 -1181.9 1042.15C-1181.49 1042.78 -1181.64 1043.62 -1182.24 1044.05Z" fill="#8FA589"/>
<path d="M1365.6 465.082C1362.01 463.922 1358.38 462.528 1354.8 460.939C1354.1 460.625 1353.78 459.799 1354.09 459.093C1354.41 458.388 1355.24 458.05 1355.94 458.383C1361.09 460.676 1366.27 462.515 1371.53 463.912C1372.31 464.067 1372.72 464.878 1372.52 465.623C1372.32 466.369 1371.56 466.814 1370.81 466.615C1369.06 466.152 1367.32 465.639 1365.6 465.082ZM1387.25 469.449C1386.64 469.254 1386.23 468.664 1386.29 468.006C1386.35 467.234 1387.02 466.662 1387.79 466.724C1391.95 467.06 1396.18 467.103 1400.36 466.853C1401.68 466.84 1402.97 466.756 1404.27 466.599C1405.03 466.508 1405.74 467.052 1405.83 467.822C1405.92 468.587 1405.37 469.286 1404.6 469.377C1403.2 469.544 1401.81 469.635 1400.46 469.65C1396.21 469.907 1391.85 469.86 1387.57 469.512C1387.46 469.505 1387.35 469.482 1387.25 469.449ZM1340.11 453.15C1340.01 453.117 1339.91 453.07 1339.81 453.01C1335.18 450.165 1330.5 446.917 1325.9 443.363C1325.29 442.89 1325.17 442.011 1325.65 441.4C1326.12 440.787 1327 440.686 1327.61 441.147C1332.13 444.642 1336.73 447.831 1341.27 450.625C1341.93 451.031 1342.13 451.892 1341.73 452.552C1341.39 453.113 1340.71 453.345 1340.11 453.15ZM1807.64 601.561C1806.94 601.333 1806.52 600.588 1806.72 599.867C1806.92 599.12 1807.69 598.678 1808.43 598.879C1809.15 599.072 1809.88 599.25 1810.62 599.416C1815.41 600.535 1819.97 600.948 1824.57 600.673C1825.34 600.625 1826.01 601.216 1826.05 601.987C1826.1 602.757 1825.51 603.42 1824.74 603.466C1819.86 603.756 1815.04 603.325 1809.99 602.143C1809.23 601.975 1808.46 601.786 1807.71 601.581C1807.68 601.575 1807.66 601.567 1807.64 601.561ZM1792.21 595.096C1792.12 595.066 1792.03 595.026 1791.94 594.977C1787.27 592.291 1782.62 588.94 1778.12 585.023C1777.54 584.516 1777.48 583.631 1777.99 583.048C1778.49 582.463 1779.38 582.406 1779.96 582.911C1784.32 586.711 1788.82 589.955 1793.34 592.55C1794.01 592.936 1794.24 593.792 1793.85 594.46C1793.52 595.044 1792.83 595.294 1792.21 595.096ZM1313.53 432.724C1313.35 432.664 1313.17 432.563 1313.01 432.421C1309.02 428.732 1304.99 424.723 1301.04 420.503C1300.51 419.941 1300.54 419.055 1301.1 418.527C1301.66 417.994 1302.55 418.023 1303.07 418.589C1306.99 422.757 1310.97 426.719 1314.91 430.364C1315.48 430.889 1315.51 431.773 1314.99 432.343C1314.61 432.756 1314.04 432.886 1313.53 432.724ZM1420.06 464.635C1419.69 464.515 1419.37 464.244 1419.2 463.862C1418.9 463.154 1419.22 462.328 1419.93 462.02C1424.25 460.139 1429.07 457.625 1434.66 454.338C1435.32 453.941 1436.18 454.173 1436.57 454.834C1436.97 455.501 1436.74 456.359 1436.08 456.75C1430.39 460.096 1425.47 462.659 1421.04 464.587C1420.72 464.728 1420.37 464.736 1420.06 464.635ZM1840.49 599.644C1840.11 599.52 1839.78 599.23 1839.62 598.822C1839.34 598.105 1839.69 597.292 1840.41 597.011C1845.61 594.974 1850.62 592.266 1855.26 589.641C1855.93 589.268 1856.78 589.502 1857.16 590.171C1857.54 590.846 1857.31 591.696 1856.63 592.079C1851.9 594.752 1846.79 597.515 1841.43 599.614C1841.12 599.738 1840.79 599.74 1840.49 599.644ZM1766.83 573.354C1766.6 573.277 1766.38 573.138 1766.21 572.935C1762.67 568.818 1759.21 564.287 1755.93 559.471C1755.5 558.831 1755.66 557.962 1756.3 557.525C1756.94 557.091 1757.81 557.256 1758.24 557.892C1761.47 562.626 1764.86 567.073 1768.33 571.111C1768.83 571.699 1768.76 572.582 1768.18 573.085C1767.79 573.414 1767.28 573.499 1766.83 573.354ZM1290.51 408.295C1290.26 408.217 1290.04 408.07 1289.86 407.86C1286.39 403.697 1282.87 399.252 1279.4 394.652C1278.94 394.036 1279.06 393.159 1279.68 392.693C1280.29 392.223 1281.17 392.347 1281.64 392.967C1285.08 397.53 1288.57 401.939 1292.01 406.068C1292.51 406.661 1292.43 407.543 1291.83 408.038C1291.45 408.36 1290.95 408.437 1290.51 408.295ZM1747.86 545.712C1747.53 545.607 1747.24 545.381 1747.07 545.06C1745.96 543.074 1744.92 541.111 1743.94 539.185C1742.06 536.222 1740.28 533.344 1738.62 530.635C1738.22 529.976 1738.43 529.115 1739.09 528.712C1739.75 528.31 1740.61 528.522 1741.01 529.178C1742.66 531.873 1744.43 534.738 1746.36 537.801C1747.4 539.809 1748.43 541.745 1749.51 543.701C1749.89 544.377 1749.64 545.228 1748.97 545.602C1748.61 545.798 1748.21 545.827 1747.86 545.712ZM1449.21 448.026C1448.91 447.929 1448.64 447.733 1448.46 447.447C1448.04 446.793 1448.23 445.93 1448.89 445.515L1449.7 444.995C1454.1 442.192 1458.65 439.294 1463.15 436.583C1463.82 436.177 1464.67 436.394 1465.07 437.06C1465.47 437.722 1465.26 438.582 1464.6 438.979C1460.12 441.673 1455.59 444.56 1451.21 447.353L1450.39 447.874C1450.02 448.108 1449.59 448.149 1449.21 448.026ZM1870.2 584.068C1869.86 583.957 1869.56 583.712 1869.38 583.363C1869.04 582.674 1869.31 581.833 1870.01 581.486C1875.83 578.56 1880.9 576.618 1885.93 575.382C1886.68 575.193 1887.44 575.657 1887.62 576.405C1887.8 577.154 1887.35 577.914 1886.6 578.096C1881.77 579.285 1876.9 581.155 1871.26 583.987C1870.92 584.159 1870.54 584.177 1870.2 584.068ZM1270.26 381.531C1269.97 381.439 1269.72 381.26 1269.54 380.998C1266.45 376.551 1263.3 371.838 1260.18 366.996C1259.76 366.347 1259.95 365.48 1260.59 365.06C1261.25 364.639 1262.11 364.832 1262.53 365.476C1265.64 370.295 1268.77 374.978 1271.83 379.402C1272.28 380.036 1272.12 380.91 1271.48 381.348C1271.11 381.608 1270.66 381.66 1270.26 381.531ZM2119.85 654.194C2119.24 653.998 2118.63 653.79 2118.03 653.573C2117.3 653.313 2116.92 652.512 2117.18 651.783C2117.44 651.058 2118.17 650.666 2118.97 650.937C2124.19 652.809 2129.42 653.874 2134.95 654.184C2135.73 654.217 2136.31 654.888 2136.27 655.658C2136.23 656.431 2135.57 657.021 2134.8 656.976C2129.63 656.688 2124.74 655.777 2119.85 654.194ZM1061.41 309.927C1057.85 308.773 1054.4 307.395 1051.15 305.83C1050.45 305.495 1050.16 304.66 1050.49 303.964C1050.82 303.264 1051.67 302.986 1052.36 303.309C1057.16 305.619 1062.42 307.5 1067.85 308.861C1068.64 309.077 1069.06 309.811 1068.87 310.557C1068.69 311.306 1067.93 311.764 1067.18 311.577C1065.23 311.091 1063.29 310.536 1061.41 309.927ZM2103.03 646.2C2102.93 646.167 2102.83 646.123 2102.74 646.064C2098.71 643.612 2094.28 640.589 2088.78 636.552C2088.15 636.096 2088.02 635.219 2088.48 634.597C2088.93 633.974 2089.81 633.827 2090.43 634.296C2095.87 638.283 2100.24 641.265 2104.19 643.674C2104.85 644.077 2105.06 644.937 2104.66 645.598C2104.32 646.161 2103.64 646.395 2103.03 646.2ZM1083.62 314.263C1083.01 314.067 1082.6 313.471 1082.66 312.809C1082.73 312.038 1083.41 311.471 1084.18 311.538C1089.31 311.994 1094.74 312.167 1100.8 312.068C1101.56 312.063 1102.21 312.672 1102.22 313.446C1102.23 314.217 1101.61 314.854 1100.84 314.868C1094.69 314.967 1089.16 314.79 1083.93 314.325C1083.82 314.316 1083.72 314.294 1083.62 314.263ZM1037.11 297.045C1036.95 296.993 1036.8 296.911 1036.66 296.798C1032.14 293.113 1028.44 288.898 1025.36 283.912C1024.95 283.255 1025.15 282.393 1025.81 281.987C1026.47 281.577 1027.33 281.781 1027.73 282.441C1030.65 287.158 1034.15 291.144 1038.43 294.629C1039.03 295.116 1039.12 295.998 1038.63 296.599C1038.25 297.057 1037.65 297.217 1037.11 297.045ZM2151.15 655.822C2150.67 655.667 2150.29 655.257 2150.2 654.725C2150.07 653.965 2150.58 653.24 2151.34 653.111C2156.33 652.261 2161.6 650.966 2167.44 649.155C2168.19 648.923 2168.97 649.342 2169.2 650.08C2169.42 650.818 2169.01 651.6 2168.27 651.829C2162.3 653.676 2156.92 654.997 2151.81 655.87C2151.58 655.907 2151.36 655.889 2151.15 655.822ZM1902.37 575.281C1901.85 575.114 1901.46 574.657 1901.41 574.085C1901.33 573.315 1901.9 572.632 1902.66 572.556C1907.93 572.049 1913.63 571.818 1919.58 571.874C1920.35 571.883 1920.97 572.514 1920.97 573.288C1920.96 574.06 1920.33 574.68 1919.55 574.674C1913.7 574.618 1908.1 574.844 1902.93 575.343C1902.74 575.362 1902.55 575.338 1902.37 575.281ZM2423.66 741.577C2423.6 741.559 2423.54 741.537 2423.49 741.511C2418.96 739.38 2414.29 736.3 2409.22 732.093C2408.63 731.602 2408.55 730.721 2409.04 730.125C2409.53 729.531 2410.41 729.454 2411.01 729.94C2415.89 733.994 2420.37 736.951 2424.68 738.979C2425.38 739.308 2425.68 740.141 2425.35 740.841C2425.05 741.485 2424.32 741.791 2423.66 741.577ZM1730.69 516.903C1730.38 516.803 1730.11 516.6 1729.93 516.306C1727.09 511.701 1724.01 506.851 1720.64 502.562C1720.16 501.955 1720.27 501.075 1720.87 500.597C1721.49 500.12 1722.36 500.231 1722.84 500.832C1726.29 505.232 1729.43 510.162 1732.31 514.835C1732.72 515.494 1732.51 516.357 1731.86 516.762C1731.49 516.986 1731.07 517.024 1730.69 516.903ZM2439.86 745.182C2439.33 745.009 2438.93 744.524 2438.89 743.927C2438.85 743.156 2439.44 742.496 2440.21 742.453C2444.56 742.21 2449.47 741.064 2456.13 738.732C2456.86 738.48 2457.65 738.862 2457.91 739.59C2458.16 740.322 2457.78 741.119 2457.05 741.375C2450.13 743.796 2444.99 744.99 2440.37 745.248C2440.19 745.257 2440.02 745.233 2439.86 745.182ZM2075.76 626.664C2075.62 626.617 2075.48 626.546 2075.35 626.446C2071.18 623.278 2066.75 619.911 2061.96 616.368C2061.33 615.912 2061.2 615.034 2061.66 614.413C2062.12 613.791 2063 613.653 2063.62 614.12C2068.42 617.666 2072.87 621.042 2077.04 624.219C2077.66 624.685 2077.78 625.565 2077.31 626.178C2076.94 626.665 2076.31 626.841 2075.76 626.664ZM1478.16 431.042C1477.81 430.928 1477.51 430.677 1477.33 430.317C1477 429.62 1477.29 428.784 1477.99 428.45C1481.17 426.922 1484.25 425.608 1487.16 424.547C1489.53 423.878 1491.77 423.257 1493.98 422.662C1494.73 422.471 1495.49 422.905 1495.69 423.651C1495.89 424.399 1495.45 425.166 1494.7 425.367C1492.5 425.96 1490.28 426.572 1488.02 427.208C1485.3 428.205 1482.3 429.483 1479.2 430.972C1478.86 431.134 1478.49 431.149 1478.16 431.042ZM1117.15 313.972C1116.62 313.802 1116.23 313.329 1116.18 312.746C1116.12 311.975 1116.7 311.304 1117.47 311.245C1123.02 310.825 1128.6 310.298 1134.17 309.759C1134.93 309.683 1135.62 310.249 1135.69 311.017C1135.77 311.787 1135.2 312.47 1134.43 312.545C1128.84 313.084 1123.25 313.616 1117.68 314.035C1117.5 314.05 1117.31 314.026 1117.15 313.972ZM729.679 185.791C727.102 184.957 724.569 183.971 722.149 182.859C721.447 182.537 721.139 181.708 721.461 181.006C721.785 180.304 722.62 179.976 723.315 180.319C728.157 182.536 733.387 184.204 738.946 185.284C739.717 185.427 740.202 186.164 740.053 186.923C739.906 187.682 739.172 188.177 738.413 188.03C735.41 187.446 732.47 186.693 729.679 185.791ZM1935.9 575.431C1935.29 575.235 1934.88 574.641 1934.94 573.979C1935 573.211 1935.68 572.64 1936.45 572.705C1941.85 573.17 1947.49 573.835 1953.21 574.682C1953.95 574.786 1954.5 575.504 1954.38 576.272C1954.27 577.037 1953.56 577.562 1952.79 577.449C1947.13 576.61 1941.55 575.952 1936.21 575.493C1936.1 575.484 1936 575.462 1935.9 575.431ZM1252 353.334C1251.69 353.234 1251.42 353.028 1251.24 352.731L1249.58 349.994C1247.15 346.078 1244.53 342.411 1241.81 339.102C1241.32 338.507 1241.41 337.624 1242 337.134C1242.6 336.642 1243.49 336.732 1243.97 337.325C1246.77 340.728 1249.46 344.499 1251.96 348.531L1253.63 351.274C1254.03 351.936 1253.82 352.795 1253.16 353.2C1252.79 353.418 1252.37 353.454 1252 353.334ZM2397.49 720.814C2397.28 720.745 2397.07 720.623 2396.91 720.451C2393.49 716.88 2389.91 712.891 2385.63 707.904C2385.13 707.316 2385.2 706.433 2385.78 705.93C2386.37 705.424 2387.26 705.494 2387.75 706.08C2392 711.031 2395.55 714.982 2398.93 718.514C2399.46 719.075 2399.45 719.959 2398.89 720.494C2398.5 720.863 2397.96 720.967 2397.49 720.814ZM754.911 189.613C754.339 189.428 753.931 188.885 753.943 188.254C753.957 187.481 754.597 186.866 755.368 186.882C760.605 186.987 766.181 186.731 771.944 186.125C772.714 186.038 773.4 186.601 773.481 187.369C773.561 188.139 773.005 188.826 772.236 188.908C766.359 189.526 760.665 189.787 755.314 189.68C755.173 189.677 755.037 189.653 754.911 189.613ZM2048.15 607.671C2048.07 607.645 2047.99 607.61 2047.91 607.568C2043.33 605.068 2038.3 602.598 2032.95 600.23C2032.24 599.919 2031.92 599.092 2032.23 598.386C2032.54 597.68 2033.38 597.346 2034.08 597.673C2039.5 600.073 2044.61 602.577 2049.25 605.112C2049.93 605.483 2050.18 606.331 2049.81 607.01C2049.48 607.611 2048.78 607.874 2048.15 607.671ZM708.118 174.06C707.958 174.009 707.805 173.927 707.667 173.814C703.43 170.373 699.514 166.413 695.697 161.703C695.21 161.103 695.301 160.222 695.902 159.736C696.5 159.249 697.383 159.342 697.868 159.941C701.563 164.496 705.345 168.324 709.431 171.641C710.029 172.13 710.121 173.01 709.634 173.611C709.26 174.073 708.651 174.233 708.118 174.06ZM1969.09 580.308C1968.43 580.092 1968.01 579.405 1968.16 578.698C1968.31 577.942 1969.05 577.454 1969.81 577.606C1975.24 578.71 1980.77 579.978 1986.24 581.377C1986.97 581.51 1987.44 582.328 1987.25 583.079C1987.06 583.828 1986.29 584.279 1985.54 584.088C1980.12 582.702 1974.64 581.445 1969.25 580.349C1969.2 580.338 1969.15 580.325 1969.09 580.308ZM2017.52 593.995C2017.5 593.989 2017.48 593.983 2017.46 593.977C2012.33 592.085 2007.02 590.283 2001.64 588.624C2001.63 588.622 2001.62 588.619 2001.62 588.618C2000.89 588.383 2000.49 587.606 2000.71 586.875C2000.94 586.135 2001.72 585.722 2002.46 585.95C2007.89 587.62 2013.25 589.442 2018.43 591.35C2019.16 591.619 2019.53 592.422 2019.26 593.148C2019 593.854 2018.23 594.225 2017.52 593.995ZM2183.25 646.222C2182.86 646.098 2182.53 645.808 2182.37 645.403C2182.09 644.683 2182.45 643.873 2183.17 643.588C2184.42 643.094 2185.7 642.582 2187 642.052C2191.16 640.557 2195.13 639.163 2199.01 637.857C2199.74 637.611 2200.54 638.006 2200.78 638.734C2201.03 639.467 2200.63 640.261 2199.9 640.507C2196.05 641.808 2192.08 643.194 2188 644.663C2186.75 645.176 2185.46 645.695 2184.19 646.193C2183.88 646.317 2183.55 646.319 2183.25 646.222ZM1019.2 269.262C1018.8 269.131 1018.46 268.817 1018.31 268.381C1017.09 264.803 1016 261.071 1014.94 257.461C1014.44 255.741 1013.93 254.012 1013.41 252.277C1013.18 251.538 1013.6 250.757 1014.34 250.531C1015.08 250.311 1015.86 250.727 1016.08 251.465C1016.61 253.206 1017.12 254.945 1017.63 256.672C1018.72 260.419 1019.76 263.959 1020.96 267.48C1021.21 268.212 1020.82 269.005 1020.09 269.254C1019.79 269.356 1019.48 269.352 1019.2 269.262ZM1150.6 310.973C1150.08 310.804 1149.68 310.335 1149.64 309.751C1149.58 308.982 1150.15 308.307 1150.92 308.248C1157.39 307.74 1162.74 307.452 1167.76 307.341C1168.53 307.325 1169.17 307.935 1169.19 308.71C1169.21 309.483 1168.59 310.123 1167.82 310.141C1162.85 310.249 1157.55 310.533 1151.14 311.036C1150.95 311.052 1150.77 311.028 1150.6 310.973ZM1709.5 491.208C1709.35 491.159 1709.21 491.083 1709.07 490.98C1705.26 487.997 1700.72 485.065 1695.21 482.015C1694.53 481.642 1694.28 480.789 1694.66 480.112C1695.04 479.436 1695.89 479.206 1696.56 479.564C1702.21 482.688 1706.86 485.701 1710.8 488.774C1711.4 489.249 1711.51 490.128 1711.04 490.739C1710.66 491.212 1710.05 491.384 1709.5 491.208ZM2471.89 735.496C2471.5 735.367 2471.16 735.059 2471.01 734.635C2470.75 733.905 2471.13 733.106 2471.85 732.847C2477.7 730.767 2481.88 729.731 2485.44 729.491C2486.21 729.434 2486.88 730.021 2486.93 730.79C2486.98 731.56 2486.4 732.228 2485.63 732.28C2482.34 732.507 2478.38 733.493 2472.79 735.482C2472.49 735.591 2472.18 735.587 2471.89 735.496ZM1510.21 421.372C1509.75 421.224 1509.38 420.84 1509.28 420.334C1509.11 419.577 1509.59 418.834 1510.35 418.674C1516.28 417.404 1521.73 416.457 1527 415.781C1527.76 415.686 1528.47 416.22 1528.56 416.99C1528.66 417.758 1528.12 418.458 1527.35 418.554C1522.16 419.221 1516.79 420.156 1510.94 421.407C1510.69 421.463 1510.44 421.446 1510.21 421.372ZM788.248 186.316C787.779 186.165 787.405 185.771 787.304 185.253C787.157 184.493 787.652 183.76 788.41 183.612C793.421 182.636 798.748 181.432 804.697 179.929C805.443 179.737 806.205 180.193 806.396 180.943C806.584 181.693 806.13 182.454 805.381 182.643C799.383 184.155 794.006 185.372 788.944 186.357C788.703 186.403 788.466 186.387 788.248 186.316ZM1680.54 474.47C1680.46 474.444 1680.39 474.411 1680.31 474.372C1675.79 471.952 1671.02 469.18 1665.73 465.905C1665.07 465.5 1664.86 464.635 1665.27 463.98C1665.68 463.324 1666.54 463.119 1667.2 463.525C1672.45 466.771 1677.17 469.512 1681.63 471.904C1682.31 472.27 1682.57 473.117 1682.2 473.798C1681.88 474.406 1681.17 474.674 1680.54 474.47ZM1230.6 327.718C1230.44 327.666 1230.29 327.586 1230.15 327.476C1225.87 324.02 1221.2 321.061 1216.28 318.679C1215.59 318.342 1215.29 317.507 1215.63 316.811C1215.97 316.113 1216.81 315.843 1217.5 316.16C1222.61 318.633 1227.46 321.709 1231.91 325.297C1232.51 325.782 1232.6 326.663 1232.12 327.264C1231.75 327.729 1231.14 327.891 1230.6 327.718ZM1184.13 310.509C1183.53 310.313 1183.11 309.723 1183.17 309.063C1183.23 308.294 1183.91 307.72 1184.68 307.785C1190.73 308.282 1196.21 309.148 1201.45 310.434C1202.2 310.614 1202.66 311.377 1202.47 312.127C1202.29 312.877 1201.53 313.336 1200.78 313.154C1195.69 311.903 1190.35 311.057 1184.45 310.571C1184.34 310.564 1184.23 310.542 1184.13 310.509ZM2375.45 695.459C2375.21 695.381 2374.98 695.233 2374.81 695.025C2371.07 690.54 2367.43 686.191 2363.95 682.264C2363.44 681.688 2363.49 680.802 2364.07 680.289C2364.64 679.774 2365.53 679.834 2366.04 680.407C2369.55 684.362 2373.21 688.73 2376.96 693.231C2377.45 693.824 2377.37 694.707 2376.78 695.201C2376.39 695.522 2375.89 695.602 2375.45 695.459ZM686.791 148.369C686.481 148.269 686.204 148.062 686.023 147.761C683.448 143.488 680.799 138.639 677.927 132.937C677.578 132.247 677.856 131.407 678.546 131.058C679.237 130.71 680.077 130.988 680.424 131.677C683.264 137.317 685.881 142.104 688.42 146.314C688.819 146.977 688.605 147.836 687.944 148.237C687.584 148.453 687.163 148.489 686.791 148.369ZM1651.9 456.99C1651.79 456.953 1651.67 456.899 1651.57 456.83L1648.9 455.079C1645.09 452.575 1641.3 450.09 1637.52 447.678C1636.87 447.263 1636.68 446.397 1637.1 445.748C1637.51 445.1 1638.37 444.889 1639.03 445.32C1642.82 447.738 1646.61 450.229 1650.43 452.737L1653.1 454.487C1653.75 454.911 1653.93 455.78 1653.5 456.424C1653.15 456.966 1652.49 457.179 1651.9 456.99ZM2215.03 635.45C2214.6 635.312 2214.25 634.974 2214.11 634.511C2213.9 633.768 2214.32 632.992 2215.06 632.775C2220.9 631.067 2226.24 629.677 2231.39 628.527C2232.14 628.359 2232.89 628.833 2233.06 629.587C2233.23 630.343 2232.75 631.088 2232 631.258C2226.91 632.395 2221.63 633.772 2215.85 635.459C2215.57 635.541 2215.28 635.533 2215.03 635.45ZM1543.47 417.256C1542.91 417.077 1542.51 416.561 1542.5 415.946C1542.48 415.175 1543.1 414.539 1543.87 414.525C1549.63 414.432 1555.17 414.695 1560.79 415.32C1561.57 415.411 1562.12 416.097 1562.03 416.866C1561.94 417.633 1561.25 418.188 1560.48 418.103C1554.97 417.487 1549.56 417.232 1543.92 417.324C1543.76 417.326 1543.61 417.302 1543.47 417.256ZM1623.49 439.148C1623.4 439.12 1623.32 439.084 1623.24 439.038C1617.94 436.06 1613.07 433.629 1608.37 431.604C1607.66 431.298 1607.33 430.476 1607.63 429.765C1607.94 429.057 1608.78 428.758 1609.47 429.033C1614.27 431.098 1619.22 433.572 1624.61 436.597C1625.28 436.975 1625.52 437.829 1625.14 438.502C1624.81 439.093 1624.11 439.349 1623.49 439.148ZM820.824 178.265C820.393 178.125 820.038 177.781 819.907 177.311C819.698 176.566 820.133 175.795 820.877 175.585L828.877 173.327C831.602 172.554 834.326 171.783 837.047 171.02C837.791 170.815 838.561 171.245 838.77 171.991C838.979 172.736 838.544 173.506 837.8 173.716C835.081 174.477 832.361 175.249 829.641 176.018L821.63 178.281C821.356 178.356 821.077 178.346 820.824 178.265ZM1008.61 237.436C1008.24 237.319 1007.93 237.054 1007.76 236.68C1005.97 232.7 1003.98 229.135 1001.71 225.779C1000.98 224.804 1000.17 223.75 999.291 222.663C998.807 222.061 998.903 221.181 999.506 220.696C1000.11 220.212 1000.99 220.308 1001.47 220.909C1002.37 222.027 1003.21 223.112 1003.99 224.158C1006.39 227.695 1008.45 231.4 1010.31 235.529C1010.63 236.232 1010.32 237.061 1009.61 237.38C1009.28 237.528 1008.93 237.539 1008.61 237.436ZM1576.72 420.949C1576.03 420.727 1575.62 420.007 1575.79 419.293C1575.97 418.542 1576.73 418.076 1577.48 418.258C1582.8 419.534 1588.19 421.131 1593.69 423.089C1594.42 423.347 1594.8 424.148 1594.54 424.877C1594.28 425.603 1593.46 425.961 1592.75 425.727C1587.35 423.803 1582.05 422.23 1576.83 420.978C1576.79 420.971 1576.75 420.96 1576.72 420.949ZM2352.77 670.727C2352.58 670.668 2352.41 670.568 2352.25 670.43C2347.93 666.487 2343.68 662.807 2339.63 659.489C2339.03 659 2338.94 658.118 2339.43 657.518C2339.92 656.919 2340.8 656.829 2341.4 657.322C2345.5 660.673 2349.78 664.388 2354.14 668.363C2354.71 668.883 2354.75 669.766 2354.23 670.339C2353.85 670.759 2353.27 670.891 2352.77 670.727ZM2247.78 628.327C2247.28 628.165 2246.89 627.723 2246.82 627.164C2246.73 626.399 2247.27 625.699 2248.04 625.605C2253.98 624.882 2259.52 624.573 2264.97 624.666C2265.74 624.681 2266.36 625.318 2266.34 626.09C2266.33 626.861 2265.69 627.477 2264.92 627.464C2259.6 627.374 2254.19 627.675 2248.38 628.385C2248.17 628.411 2247.97 628.387 2247.78 628.327ZM671.435 118.517C671.081 118.402 670.773 118.148 670.601 117.785C668.257 112.834 665.835 107.714 663.306 102.702C662.957 102.013 663.235 101.172 663.925 100.823C664.613 100.474 665.454 100.752 665.803 101.442C668.347 106.484 670.779 111.619 673.13 116.586C673.459 117.285 673.163 118.119 672.464 118.45C672.128 118.609 671.762 118.623 671.435 118.517ZM2326.73 649.577C2326.6 649.535 2326.48 649.475 2326.36 649.394C2321.58 646.052 2316.84 643.082 2312.27 640.568C2311.6 640.193 2311.35 639.345 2311.72 638.667C2312.09 637.986 2312.95 637.745 2313.62 638.115C2318.28 640.678 2323.1 643.7 2327.96 647.1C2328.59 647.541 2328.75 648.415 2328.31 649.047C2327.95 649.563 2327.3 649.761 2326.73 649.577ZM853.213 169.362C852.768 169.219 852.407 168.858 852.285 168.37C852.098 167.62 852.554 166.86 853.303 166.674C859.323 165.165 864.708 163.963 869.767 163.002C870.526 162.854 871.259 163.355 871.402 164.114C871.546 164.873 871.049 165.605 870.289 165.751C865.284 166.703 859.949 167.893 853.981 169.387C853.718 169.454 853.454 169.44 853.213 169.362ZM2281.18 629.073C2280.52 628.86 2280.11 628.184 2280.24 627.483C2280.39 626.723 2281.12 626.224 2281.88 626.368C2285.83 627.118 2289.79 628.132 2293.66 629.382C2295.27 629.779 2296.71 630.406 2298.23 630.979C2298.96 631.25 2299.32 632.055 2299.05 632.78C2298.78 633.503 2297.94 633.941 2297.25 633.596C2295.76 633.041 2294.31 632.622 2292.8 632.044C2289.04 630.83 2285.19 629.847 2281.36 629.117C2281.3 629.107 2281.24 629.092 2281.18 629.073ZM988.712 210.639C988.505 210.573 988.311 210.458 988.149 210.291C984.351 206.44 980.269 202.578 976.015 198.814C975.437 198.302 975.383 197.417 975.896 196.839C976.407 196.263 977.286 196.206 977.87 196.719C982.17 200.525 986.298 204.43 990.139 208.326C990.682 208.875 990.675 209.761 990.126 210.304C989.74 210.685 989.193 210.795 988.712 210.639ZM655.394 89.0892C655.114 88.9988 654.861 88.8195 654.679 88.5592C651.586 84.1385 648.134 79.736 644.413 75.4802C643.904 74.8994 643.963 74.0166 644.546 73.5066C645.126 72.9989 646.009 73.0517 646.518 73.639C650.304 77.971 653.821 82.4512 656.971 86.9569C657.414 87.5885 657.261 88.4605 656.627 88.9047C656.253 89.1662 655.797 89.2197 655.394 89.0892ZM963.578 188.385C963.428 188.336 963.285 188.261 963.152 188.161C958.57 184.614 954.004 181.354 949.58 178.47C948.933 178.048 948.751 177.182 949.173 176.534C949.595 175.886 950.462 175.71 951.108 176.126C955.594 179.05 960.223 182.354 964.865 185.945C965.476 186.419 965.588 187.296 965.115 187.907C964.744 188.388 964.124 188.561 963.578 188.385ZM886.198 163.283C885.683 163.117 885.29 162.66 885.235 162.084C885.162 161.317 885.724 160.634 886.494 160.558C892.475 159.982 898.018 159.796 903.441 159.989C904.205 160.004 904.816 160.663 904.788 161.436C904.761 162.208 904.113 162.812 903.341 162.783C898.044 162.595 892.62 162.78 886.761 163.344C886.564 163.365 886.374 163.34 886.198 163.283ZM935.363 170.266C935.301 170.246 935.239 170.221 935.176 170.191C931.562 168.419 928.117 167.001 924.937 165.972C923.247 165.51 921.493 165.088 919.732 164.723C918.958 164.565 918.492 163.822 918.648 163.068C918.806 162.313 919.546 161.825 920.303 161.984C922.12 162.362 923.933 162.796 925.74 163.291C925.747 163.293 925.755 163.296 925.763 163.298C929.122 164.384 932.683 165.852 936.409 167.677C937.102 168.016 937.389 168.855 937.049 169.55C936.738 170.182 936.014 170.477 935.363 170.266ZM633.402 63.8063C633.209 63.7441 633.028 63.6398 632.87 63.4908C628.971 59.7915 624.749 56.0997 620.322 52.5173C619.721 52.0304 619.629 51.1497 620.114 50.5487C620.601 49.9482 621.484 49.8597 622.082 50.3405C626.566 53.9699 630.843 57.7111 634.796 61.4595C635.356 61.9907 635.379 62.8774 634.848 63.4381C634.465 63.8426 633.897 63.9666 633.402 63.8063ZM607.374 42.6524C607.243 42.6103 607.117 42.5494 606.999 42.4656C602.594 39.3637 597.907 36.2598 593.07 33.2402C592.416 32.83 592.216 31.9673 592.626 31.3123C593.035 30.6551 593.893 30.4559 594.554 30.8642C599.433 33.9122 604.164 37.0451 608.61 40.177C609.241 40.6223 609.393 41.4959 608.948 42.1277C608.586 42.6396 607.941 42.8359 607.374 42.6524ZM578.932 24.8424C578.845 24.8141 578.76 24.7784 578.678 24.7317C573.972 22.0929 569.003 19.4406 563.913 16.8444C563.226 16.4931 562.952 15.6489 563.303 14.9613C563.654 14.2704 564.493 14.0077 565.185 14.349C570.307 16.9649 575.308 19.6357 580.045 22.2903C580.718 22.6687 580.958 23.5217 580.581 24.1957C580.249 24.7862 579.553 25.0431 578.932 24.8424ZM549.033 9.55346C548.977 9.53538 548.922 9.51449 548.868 9.48871C543.997 7.20754 538.862 4.88624 533.603 2.59722C532.895 2.28799 532.571 1.46217 532.88 0.754705C533.188 0.0446874 534.005 -0.257561 534.721 0.028814C540.003 2.33087 545.162 4.65962 550.055 6.95431C550.755 7.28105 551.057 8.11638 550.728 8.81449C550.426 9.46145 549.693 9.76711 549.033 9.55346ZM518.267 -3.88074C518.234 -3.89159 518.199 -3.90267 518.167 -3.91632C512.945 -6.05293 507.746 -8.12188 502.593 -10.1266C501.874 -10.4055 501.518 -11.2183 501.797 -11.9375C502.076 -12.6573 502.876 -13.0591 503.608 -12.7336C508.774 -10.7239 513.989 -8.64973 519.227 -6.50884C519.941 -6.21454 520.284 -5.39727 519.991 -4.68158C519.712 -4.00228 518.957 -3.65759 518.267 -3.88074ZM486.985 -16.0813C486.964 -16.0881 486.943 -16.0947 486.922 -16.1015C481.582 -18.1042 476.324 -20.0401 471.183 -21.9232C470.459 -22.1892 470.085 -22.9937 470.352 -23.7203C470.617 -24.4473 471.452 -24.7344 472.146 -24.5534C477.294 -22.6679 482.555 -20.7248 487.904 -18.7223C488.627 -18.4539 488.994 -17.6459 488.724 -16.9237C488.46 -16.2192 487.692 -15.8528 486.985 -16.0813Z" fill="#8FA589"/>
</g>
<defs>
<clipPath id="clip0_297_498143">
<rect width="1728" height="571" fill="white"/>
</clipPath>
</defs>
</svg>
