<svg width="50" height="50" viewBox="0 0 50 50" fill="none" xmlns="http://www.w3.org/2000/svg">
<rect width="50" height="50" rx="16" fill="#F4A157"/>
<path d="M38.8 10H11.2C10.5362 10 10 10.5362 10 11.2V38.8C10 39.4638 10.5362 40 11.2 40H38.8C39.4638 40 40 39.4638 40 38.8V11.2C40 10.5362 39.4638 10 38.8 10ZM37.6 37.6H30.6963V28.3825H34.5963L35.1813 23.8563H30.6963V20.965C30.6963 19.6525 31.06 18.76 32.9388 18.76H35.335V14.71C34.9188 14.6538 33.4975 14.53 31.84 14.53C28.3825 14.53 26.0163 16.6413 26.0163 20.515V23.8525H22.1088V28.3787H26.02V37.6H12.4V12.4H37.6V37.6Z" fill="#FFFBF4"/>
</svg>
