<svg width="211" height="61" viewBox="0 0 211 61" fill="none" xmlns="http://www.w3.org/2000/svg">
<path d="M4.212 37.296C3.348 37.296 2.604 37.14 1.98 36.828C1.596 36.612 1.404 36.36 1.404 36.072C1.404 35.784 1.476 35.556 1.62 35.388C1.764 35.196 1.968 35.1 2.232 35.1C2.472 35.1 2.82 35.196 3.276 35.388C3.78 35.58 4.092 35.676 4.212 35.676C4.668 35.676 5.076 35.484 5.436 35.1C5.82 34.692 6.12 34.164 6.336 33.516C6.768 32.316 6.984 31.236 6.984 30.276C6.984 29.244 6.816 28.164 6.48 27.036C6.168 25.884 5.736 24.768 5.184 23.688L4.608 22.536C4.008 21.336 3.54 20.388 3.204 19.692C2.892 18.996 2.616 18.24 2.376 17.424C2.016 16.272 1.836 15.156 1.836 14.076C1.836 13.212 1.98 12.396 2.268 11.628C2.58 10.86 3.036 10.212 3.636 9.684C4.236 9.108 4.98 8.82 5.868 8.82C6.3 8.82 6.72 8.952 7.128 9.216C7.536 9.456 7.824 9.768 7.992 10.152L7.38 10.908C6.756 10.908 6.288 10.788 5.976 10.548C5.544 10.596 5.16 10.812 4.824 11.196C4.512 11.556 4.272 11.976 4.104 12.456C3.96 12.912 3.888 13.368 3.888 13.824C3.888 14.736 4.008 15.672 4.248 16.632C4.512 17.568 4.848 18.456 5.256 19.296L7.776 24.336C8.184 25.2 8.508 26.172 8.748 27.252C8.988 28.332 9.108 29.412 9.108 30.492C9.108 32.076 8.724 33.564 7.956 34.956C7.548 35.676 7.02 36.24 6.372 36.648C5.724 37.08 5.004 37.296 4.212 37.296ZM5.724 7.632C5.436 7.632 5.028 7.176 4.5 6.264C3.972 5.328 3.492 4.296 3.06 3.168C2.652 2.04 2.448 1.26 2.448 0.827999C2.448 0.635998 2.532 0.467999 2.7 0.324001C2.892 0.18 3.096 0.107999 3.312 0.107999C3.576 0.107999 3.876 0.455999 4.212 1.152C4.452 1.704 4.752 2.592 5.112 3.816L5.58 5.472C5.652 4.896 5.7 4.5 5.724 4.284C5.748 4.068 5.796 3.672 5.868 3.096C5.94 2.496 6.036 1.956 6.156 1.476C6.348 0.491999 6.684 -1.43051e-06 7.164 -1.43051e-06C7.38 -1.43051e-06 7.56 0.0719991 7.704 0.216C7.848 0.359998 7.92 0.539998 7.92 0.756C7.92 0.827999 7.872 0.923998 7.776 1.044L7.632 1.296V1.944L7.128 3.924C6.792 5.316 6.624 6.168 6.624 6.48C6.624 7.248 6.324 7.632 5.724 7.632ZM24.1791 37.332C24.0351 37.332 23.8911 37.308 23.7471 37.26C23.6271 37.236 23.4951 37.224 23.3511 37.224C22.7031 33.552 22.0551 30.48 21.4071 28.008C20.7591 25.536 19.9431 23.208 18.9591 21.024L18.2031 22.428C17.9871 22.836 17.8671 23.196 17.8431 23.508C17.7711 24.228 17.7351 24.756 17.7351 25.092C17.7351 25.812 17.7711 26.916 17.8431 28.404C17.9151 29.868 17.9511 30.984 17.9511 31.752V34.704C17.9511 35.976 17.5431 36.612 16.7271 36.612C16.0311 36.612 15.6831 35.94 15.6831 34.596C15.6831 33.54 15.7551 31.92 15.8991 29.736C16.0671 27.72 16.1511 26.112 16.1511 24.912L16.1871 21.816V18.072C16.1871 16.752 16.1031 15.372 15.9351 13.932C15.7671 12.444 15.6831 11.316 15.6831 10.548C15.6831 10.236 15.7791 9.972 15.9711 9.756C16.1631 9.54 16.4031 9.432 16.6911 9.432C17.5791 9.432 18.0231 10.404 18.0231 12.348L17.8791 19.728L18.5631 17.964C19.3551 15.948 20.1711 13.956 21.0111 11.988C21.4911 10.908 21.9231 10.056 22.3071 9.432C22.7151 8.784 23.0391 8.46 23.2791 8.46C23.5431 8.46 23.7711 8.556 23.9631 8.748C24.1791 8.916 24.2871 9.132 24.2871 9.396C24.2871 9.636 23.6391 11.124 22.3431 13.86C21.0711 16.476 20.3271 18.216 20.1111 19.08V19.728C20.4711 20.64 21.4311 23.568 22.9911 28.512C24.5511 33.432 25.3311 36.036 25.3311 36.324C25.3311 36.612 25.2111 36.852 24.9711 37.044C24.7551 37.236 24.4911 37.332 24.1791 37.332ZM35.7871 37.512C35.1391 37.512 34.5511 37.296 34.0231 36.864C33.4951 36.432 33.0391 35.844 32.6551 35.1C31.9591 33.804 31.4431 32.028 31.1071 29.772C30.8671 28.212 30.6871 26.412 30.5671 24.372L30.5311 22.464V20.52C30.5071 19.896 30.4951 19.14 30.4951 18.252C30.4951 16.812 30.5551 15.54 30.6751 14.436C30.7711 13.284 31.0111 12.144 31.3951 11.016C31.7791 10.032 32.3311 9.336 33.0511 8.928C33.4831 8.736 33.9151 8.64 34.3471 8.64C35.6191 8.64 36.6271 9.144 37.3711 10.152C38.1871 11.28 38.7271 12.54 38.9911 13.932C39.3751 15.612 39.5911 17.22 39.6391 18.756C39.7351 20.46 39.7831 22.068 39.7831 23.58V25.632C39.7831 26.04 39.7231 26.808 39.6031 27.936C39.5071 28.824 39.4591 29.58 39.4591 30.204V30.348C39.3151 31.02 39.2431 31.812 39.2431 32.724C39.2431 33.396 39.0991 34.092 38.8111 34.812C38.5231 35.532 38.1151 36.144 37.5871 36.648C37.0591 37.224 36.4591 37.512 35.7871 37.512ZM35.8591 35.532C36.3391 35.532 36.7471 35.088 37.0831 34.2C37.3711 33.408 37.5751 32.448 37.6951 31.32C37.8391 30.168 37.9591 28.872 38.0551 27.432C38.1031 26.808 38.1271 26.004 38.1271 25.02L38.0911 21.708C38.0431 20.412 37.8991 18.792 37.6591 16.848C37.4671 15.192 37.1071 13.728 36.5791 12.456C36.3391 11.856 36.0391 11.388 35.6791 11.052C35.3191 10.716 34.9351 10.548 34.5271 10.548C33.9271 10.548 33.4831 11.016 33.1951 11.952C32.8351 12.936 32.5951 14.016 32.4751 15.192C32.3311 16.464 32.2471 17.676 32.2231 18.828L32.1871 20.016C32.1631 20.352 32.1511 20.808 32.1511 21.384V21.528C32.1511 23.136 32.3191 25.116 32.6551 27.468C33.0391 30.66 33.6031 32.928 34.3471 34.272C34.8271 35.112 35.3311 35.532 35.8591 35.532ZM48.044 36.9C47.732 36.9 47.444 36.78 47.18 36.54C46.94 36.324 46.82 36.06 46.82 35.748C46.82 35.532 46.868 35.268 46.964 34.956C47.036 34.62 47.072 34.368 47.072 34.2C47.072 32.064 46.952 27.96 46.712 21.888C46.472 16.704 46.352 12.612 46.352 9.612C46.352 9.396 46.436 9.228 46.604 9.108C46.772 8.964 46.976 8.892 47.216 8.892C47.504 8.892 47.756 9 47.972 9.216C48.188 9.408 48.296 9.648 48.296 9.936C48.296 11.376 48.368 13.536 48.512 16.416C48.632 19.608 48.692 21.768 48.692 22.896L48.728 23.328V23.76V24.012V24.192C48.8 26.28 48.836 29.4 48.836 33.552V34.488H51.608C52.112 34.848 52.364 35.208 52.364 35.568C52.364 35.832 52.268 36.072 52.076 36.288C51.908 36.48 51.704 36.576 51.464 36.576C51.392 36.576 51.26 36.552 51.068 36.504L50.924 36.468C50.78 36.492 50.552 36.504 50.24 36.504H49.628C49.46 36.48 49.268 36.468 49.052 36.468C48.812 36.756 48.476 36.9 48.044 36.9ZM65.036 36.504C64.652 36.504 64.364 36.432 64.172 36.288C64.004 36.144 63.92 35.904 63.92 35.568V30.852C63.608 30.636 63.02 30.444 62.156 30.276C61.292 30.108 60.476 30 59.708 29.952C59.444 30.456 59.252 31.068 59.132 31.788L58.988 32.508C58.964 32.676 58.892 33.048 58.772 33.624C58.652 34.2 58.52 34.704 58.376 35.136C58.232 35.544 58.088 35.868 57.944 36.108C57.032 36.108 56.504 35.868 56.36 35.388C56.624 35.004 56.924 33.876 57.26 32.004L58.448 25.416C58.976 22.296 59.456 19.632 59.888 17.424C60.344 15.216 60.824 13.368 61.328 11.88C61.88 10.224 62.408 9.396 62.912 9.396C63.416 9.396 63.8 9.492 64.064 9.684C64.064 10.644 64.292 12.96 64.748 16.632C65.228 20.232 65.468 22.692 65.468 24.012C65.468 25.284 65.6 27.108 65.864 29.484C66.104 31.908 66.224 33.84 66.224 35.28C66.224 36.096 65.828 36.504 65.036 36.504ZM63.164 28.764C63.356 28.764 63.596 28.728 63.884 28.656C63.812 27.6 63.692 26.292 63.524 24.732C62.972 19.308 62.696 15.984 62.696 14.76V14.472C62.456 14.712 62.12 15.804 61.688 17.748C61.28 19.668 60.896 21.732 60.536 23.94C60.176 26.148 59.984 27.612 59.96 28.332C60.968 28.62 62.036 28.764 63.164 28.764ZM62.264 8.604C62.12 8.604 61.988 8.568 61.868 8.496C61.748 8.4 61.688 8.28 61.688 8.136C61.688 8.016 61.748 7.896 61.868 7.776L62.444 7.272C62.564 7.152 63.236 6.564 64.46 5.508L66.584 3.672C66.68 3.624 66.788 3.6 66.908 3.6C67.196 3.6 67.46 3.744 67.7 4.032C67.94 4.32 68.06 4.62 68.06 4.932C68.06 5.22 67.976 5.412 67.808 5.508C66.944 6.18 65.192 7.188 62.552 8.532C62.504 8.58 62.408 8.604 62.264 8.604ZM77.9819 37.08C77.3099 37.08 76.6859 36.924 76.1099 36.612C75.5579 36.3 75.0779 35.88 74.6699 35.352C74.3099 34.848 73.9859 34.212 73.6979 33.444C73.4099 32.652 73.1939 31.836 73.0499 30.996C72.7619 29.58 72.5699 27.72 72.4739 25.416C72.4499 24.864 72.4379 23.916 72.4379 22.572V20.304C72.4619 19.656 72.4739 18.984 72.4739 18.288C72.4739 16.872 72.5579 15.756 72.7259 14.94C72.6539 14.58 72.6179 14.208 72.6179 13.824C72.6179 12.384 73.1579 11.22 74.2379 10.332C75.3179 9.444 76.6859 9 78.3419 9C78.9659 9 79.5419 9.168 80.0699 9.504C80.5979 9.84 80.8619 10.26 80.8619 10.764C80.8619 11.004 80.7659 11.196 80.5739 11.34C80.3819 11.484 80.1419 11.556 79.8539 11.556C79.6139 11.556 79.3499 11.52 79.0619 11.448C78.7979 11.376 78.6299 11.268 78.5579 11.124H78.0899V11.052C77.2019 11.052 76.4579 11.244 75.8579 11.628C75.4259 11.94 75.0899 12.456 74.8499 13.176C74.7539 13.44 74.6819 13.776 74.6339 14.184C74.5859 14.592 74.5619 14.964 74.5619 15.3C74.5379 15.492 74.5259 15.876 74.5259 16.452L74.5979 17.712L74.6339 18.936C74.6339 19.296 74.5859 19.716 74.4899 20.196C74.3699 20.796 74.3099 21.216 74.3099 21.456V22.32C74.3099 23.256 74.3459 24.54 74.4179 26.172C74.4419 27.54 74.5979 28.908 74.8859 30.276C75.1019 31.548 75.5099 32.628 76.1099 33.516C76.6859 34.428 77.4659 34.884 78.4499 34.884C78.8579 34.884 79.3619 34.668 79.9619 34.236C80.6099 33.804 81.0659 33.588 81.3299 33.588C81.6659 33.588 82.0139 33.768 82.3739 34.128C82.3739 35.016 82.0379 35.7 81.3659 36.18C80.7419 36.612 79.9979 36.888 79.1339 37.008C78.6539 37.056 78.2699 37.08 77.9819 37.08ZM89.9308 36.468C87.8668 36.468 86.8348 36.108 86.8348 35.388C86.8348 34.812 87.1948 34.524 87.9148 34.524H88.3468C88.4428 34.548 88.5508 34.56 88.6708 34.56C88.8628 34.56 88.9948 34.5 89.0668 34.38C89.1628 34.26 89.2108 34.044 89.2108 33.732C89.2108 31.692 89.0908 28.908 88.8508 25.38C88.6348 21.708 88.5268 18.936 88.5268 17.064C88.5268 16.392 88.5388 15.78 88.5628 15.228L88.5988 13.392C88.5988 12.6 88.5628 11.94 88.4908 11.412C88.2268 11.508 87.9508 11.556 87.6628 11.556C87.1108 11.556 86.8348 11.268 86.8348 10.692C86.8348 10.404 87.0028 10.152 87.3388 9.936C87.6988 9.72 88.1548 9.564 88.7068 9.468C89.7148 9.3 90.5668 9.216 91.2628 9.216C91.5508 9.216 91.7908 9.312 91.9828 9.504C92.1988 9.696 92.3068 9.924 92.3068 10.188C92.3068 10.452 92.2228 10.68 92.0548 10.872C91.9108 11.064 91.7188 11.16 91.4788 11.16C91.3348 11.16 91.2148 11.148 91.1188 11.124H90.8308C90.5908 11.124 90.4108 11.184 90.2908 11.304C90.1948 11.4 90.1468 11.592 90.1468 11.88C90.1468 14.424 90.3028 17.928 90.6148 22.392C90.9028 27.072 91.0468 30.588 91.0468 32.94V34.308C91.2148 34.284 91.4548 34.272 91.7668 34.272C92.7748 34.272 93.2788 34.692 93.2788 35.532V35.748L92.3788 36.36C92.3548 36.36 92.2828 36.372 92.1628 36.396C92.0428 36.396 91.8028 36.396 91.4428 36.396C90.6268 36.444 90.1228 36.468 89.9308 36.468ZM117.415 37.044C116.935 37.044 115.951 34.572 114.463 29.628C112.783 23.844 111.331 18.528 110.107 13.68V25.488C110.107 26.496 110.203 28.212 110.395 30.636C110.563 33.276 110.647 34.98 110.647 35.748C110.647 35.964 110.515 36.156 110.251 36.324C109.987 36.468 109.687 36.54 109.351 36.54C108.847 36.54 108.595 36.348 108.595 35.964L108.667 34.92C108.715 34.152 108.739 33.648 108.739 33.408C108.739 32.136 108.667 30.12 108.523 27.36C108.379 24.552 108.307 22.848 108.307 22.248V17.64C108.307 16.896 108.343 15.792 108.415 14.328C108.511 13.056 108.559 11.952 108.559 11.016V10.8C108.559 9.6 108.823 9 109.351 9C109.663 9 110.059 9.528 110.539 10.584C111.331 12.312 112.339 15.408 113.563 19.872C114.259 22.464 115.075 25.8 116.011 29.88C115.987 29.784 116.179 30.612 116.587 32.364L116.623 32.544C116.623 30.216 116.647 28.128 116.695 26.28L116.767 20.016V9.36C116.863 8.76 117.247 8.46 117.919 8.46C118.567 8.46 118.891 8.928 118.891 9.864V10.08C118.747 10.368 118.675 10.716 118.675 11.124C118.675 12.588 118.639 14.796 118.567 17.748C118.495 20.724 118.459 22.956 118.459 24.444V35.424C118.459 35.808 118.351 36.168 118.135 36.504C117.943 36.864 117.703 37.044 117.415 37.044ZM133.007 36.504C132.623 36.504 132.335 36.432 132.143 36.288C131.975 36.144 131.891 35.904 131.891 35.568V30.852C131.579 30.636 130.991 30.444 130.127 30.276C129.263 30.108 128.447 30 127.679 29.952C127.415 30.456 127.223 31.068 127.103 31.788L126.959 32.508C126.935 32.676 126.863 33.048 126.743 33.624C126.623 34.2 126.491 34.704 126.347 35.136C126.203 35.544 126.059 35.868 125.915 36.108C125.003 36.108 124.475 35.868 124.331 35.388C124.595 35.004 124.895 33.876 125.231 32.004L126.419 25.416C126.947 22.296 127.427 19.632 127.859 17.424C128.315 15.216 128.795 13.368 129.299 11.88C129.851 10.224 130.379 9.396 130.883 9.396C131.387 9.396 131.771 9.492 132.035 9.684C132.035 10.644 132.263 12.96 132.719 16.632C133.199 20.232 133.439 22.692 133.439 24.012C133.439 25.284 133.571 27.108 133.835 29.484C134.075 31.908 134.195 33.84 134.195 35.28C134.195 36.096 133.799 36.504 133.007 36.504ZM131.135 28.764C131.327 28.764 131.567 28.728 131.855 28.656C131.783 27.6 131.663 26.292 131.495 24.732C130.943 19.308 130.667 15.984 130.667 14.76V14.472C130.427 14.712 130.091 15.804 129.659 17.748C129.251 19.668 128.867 21.732 128.507 23.94C128.147 26.148 127.955 27.612 127.931 28.332C128.939 28.62 130.007 28.764 131.135 28.764ZM155.047 37.08C154.375 37.08 153.751 36.924 153.175 36.612C152.623 36.3 152.143 35.88 151.735 35.352C151.375 34.848 151.051 34.212 150.763 33.444C150.475 32.652 150.259 31.836 150.115 30.996C149.827 29.58 149.635 27.72 149.539 25.416C149.515 24.864 149.503 23.916 149.503 22.572V20.304C149.527 19.656 149.539 18.984 149.539 18.288C149.539 16.872 149.623 15.756 149.791 14.94C149.719 14.58 149.683 14.208 149.683 13.824C149.683 12.384 150.223 11.22 151.303 10.332C152.383 9.444 153.751 9 155.407 9C156.031 9 156.607 9.168 157.135 9.504C157.663 9.84 157.927 10.26 157.927 10.764C157.927 11.004 157.831 11.196 157.639 11.34C157.447 11.484 157.207 11.556 156.919 11.556C156.679 11.556 156.415 11.52 156.127 11.448C155.863 11.376 155.695 11.268 155.623 11.124H155.155V11.052C154.267 11.052 153.523 11.244 152.923 11.628C152.491 11.94 152.155 12.456 151.915 13.176C151.819 13.44 151.747 13.776 151.699 14.184C151.651 14.592 151.627 14.964 151.627 15.3C151.603 15.492 151.591 15.876 151.591 16.452L151.663 17.712L151.699 18.936C151.699 19.296 151.651 19.716 151.555 20.196C151.435 20.796 151.375 21.216 151.375 21.456V22.32C151.375 23.256 151.411 24.54 151.483 26.172C151.507 27.54 151.663 28.908 151.951 30.276C152.167 31.548 152.575 32.628 153.175 33.516C153.751 34.428 154.531 34.884 155.515 34.884C155.923 34.884 156.427 34.668 157.027 34.236C157.675 33.804 158.131 33.588 158.395 33.588C158.731 33.588 159.079 33.768 159.439 34.128C159.439 35.016 159.103 35.7 158.431 36.18C157.807 36.612 157.063 36.888 156.199 37.008C155.719 37.056 155.335 37.08 155.047 37.08ZM166.78 36.72C166.324 36.72 165.928 36.66 165.592 36.54C165.184 36.42 164.98 36.084 164.98 35.532V14.616C164.98 14.208 164.908 13.596 164.764 12.78C164.596 12.036 164.512 11.424 164.512 10.944V10.836C164.92 10.164 165.22 9.732 165.412 9.54C165.748 9.54 166.192 9.492 166.744 9.396C167.248 9.3 167.692 9.252 168.076 9.252C168.46 9.252 168.832 9.372 169.192 9.612C169.552 9.828 169.732 10.092 169.732 10.404C169.732 11.124 169.18 11.484 168.076 11.484H167.572C167.428 11.46 167.26 11.448 167.068 11.448C166.852 11.448 166.72 11.46 166.672 11.484C166.672 12.3 166.72 13.284 166.816 14.436L166.888 15.444L166.96 17.424C166.96 17.88 166.924 18.576 166.852 19.512L166.78 21.528L167.284 21.42C167.764 21.276 168.16 21.204 168.472 21.204C168.736 21.204 168.976 21.312 169.192 21.528C169.408 21.72 169.516 21.948 169.516 22.212C169.516 22.5 169.42 22.764 169.228 23.004C169.06 23.22 168.844 23.328 168.58 23.328L168.148 23.292H167.68C167.32 23.292 167.068 23.376 166.924 23.544V34.668L168.94 34.56C170.308 34.56 170.992 34.872 170.992 35.496V35.64C170.848 35.928 170.584 36.168 170.2 36.36C169.816 36.528 169.444 36.636 169.084 36.684L167.896 36.72H166.78ZM179.32 37.296C178.456 37.296 177.712 37.14 177.088 36.828C176.704 36.612 176.512 36.36 176.512 36.072C176.512 35.784 176.584 35.556 176.728 35.388C176.872 35.196 177.076 35.1 177.34 35.1C177.58 35.1 177.928 35.196 178.384 35.388C178.888 35.58 179.2 35.676 179.32 35.676C179.776 35.676 180.184 35.484 180.544 35.1C180.928 34.692 181.228 34.164 181.444 33.516C181.876 32.316 182.092 31.236 182.092 30.276C182.092 29.244 181.924 28.164 181.588 27.036C181.276 25.884 180.844 24.768 180.292 23.688L179.716 22.536C179.116 21.336 178.648 20.388 178.312 19.692C178 18.996 177.724 18.24 177.484 17.424C177.124 16.272 176.944 15.156 176.944 14.076C176.944 13.212 177.088 12.396 177.376 11.628C177.688 10.86 178.144 10.212 178.744 9.684C179.344 9.108 180.088 8.82 180.976 8.82C181.408 8.82 181.828 8.952 182.236 9.216C182.644 9.456 182.932 9.768 183.1 10.152L182.488 10.908C181.864 10.908 181.396 10.788 181.084 10.548C180.652 10.596 180.268 10.812 179.932 11.196C179.62 11.556 179.38 11.976 179.212 12.456C179.068 12.912 178.996 13.368 178.996 13.824C178.996 14.736 179.116 15.672 179.356 16.632C179.62 17.568 179.956 18.456 180.364 19.296L182.884 24.336C183.292 25.2 183.616 26.172 183.856 27.252C184.096 28.332 184.216 29.412 184.216 30.492C184.216 32.076 183.832 33.564 183.064 34.956C182.656 35.676 182.128 36.24 181.48 36.648C180.832 37.08 180.112 37.296 179.32 37.296ZM193.527 36.756C193.167 36.756 192.879 36.588 192.663 36.252C192.471 35.892 192.375 35.46 192.375 34.956C192.375 34.164 192.423 33.192 192.519 32.04L192.591 31.104L192.663 29.196C192.663 28.356 192.579 26.484 192.411 23.58C192.243 20.676 192.159 18.804 192.159 17.964C192.159 17.892 192.159 17.76 192.159 17.568C192.183 17.352 192.195 17.028 192.195 16.596C192.219 16.116 192.231 15.528 192.231 14.832C192.231 13.08 192.111 11.964 191.871 11.484C191.727 11.484 191.415 11.52 190.935 11.592L189.927 11.664C189.615 11.664 189.339 11.58 189.099 11.412C188.859 11.22 188.739 10.98 188.739 10.692C188.739 10.404 189.027 10.152 189.603 9.936C190.443 9.648 191.871 9.444 193.887 9.324C194.703 9.276 195.195 9.252 195.363 9.252C195.651 9.252 195.915 9.348 196.155 9.54C196.395 9.732 196.515 9.972 196.515 10.26C196.515 10.548 196.407 10.788 196.191 10.98C195.999 11.148 195.747 11.232 195.435 11.232L194.787 11.196C194.595 11.172 194.379 11.16 194.139 11.16H193.779C193.947 12.792 194.031 14.268 194.031 15.588L193.995 17.892C193.971 18.588 193.959 19.368 193.959 20.232C193.959 21.384 194.007 22.764 194.103 24.372C194.223 26.364 194.283 27.744 194.283 28.512C194.283 29.424 194.331 30.504 194.427 31.752C194.523 33.024 194.571 34.104 194.571 34.992C194.571 36.168 194.223 36.756 193.527 36.756ZM205.325 36.936C205.085 36.936 204.869 36.852 204.677 36.684C204.509 36.516 204.425 36.312 204.425 36.072L204.497 32.58C204.569 31.02 204.605 29.856 204.605 29.088C204.605 28.392 204.497 27.36 204.281 25.992C204.041 24.648 203.921 23.604 203.921 22.86C203.921 21.948 203.789 20.904 203.525 19.728C203.261 18.552 202.925 17.424 202.517 16.344C202.133 15.312 201.809 14.208 201.545 13.032C201.281 11.832 201.149 10.788 201.149 9.9C201.149 9.732 201.245 9.588 201.437 9.468C201.629 9.348 201.833 9.288 202.049 9.288C202.313 9.288 202.565 9.564 202.805 10.116C203.093 10.74 203.369 11.616 203.633 12.744C203.897 13.872 204.053 14.544 204.101 14.76L204.569 17.244L204.929 18.828C205.001 18.444 205.061 17.94 205.109 17.316C205.253 15.324 205.433 13.668 205.649 12.348C205.817 11.436 206.009 10.74 206.225 10.26C206.465 9.732 206.753 9.468 207.089 9.468C207.737 9.468 208.061 9.588 208.061 9.828C208.061 11.196 207.773 13.212 207.197 15.876C206.621 18.54 206.333 20.568 206.333 21.96L206.261 22.536C206.213 22.896 206.201 23.112 206.225 23.184V23.76C206.225 24.792 206.261 26.376 206.333 28.512L206.405 33.3L206.477 34.128L206.549 34.992V35.892C206.549 36.18 206.429 36.42 206.189 36.612C205.949 36.828 205.661 36.936 205.325 36.936Z" fill="#FFFBF4"/>
<path d="M7.26 49.728C7.356 49.792 7.412 49.876 7.428 49.98C7.444 50.076 7.42 50.172 7.356 50.268C7.3 50.34 7.228 50.38 7.14 50.388C7.052 50.396 6.968 50.38 6.888 50.34C6.584 50.14 6.256 49.984 5.904 49.872C5.56 49.76 5.188 49.704 4.788 49.704C4.3 49.704 3.844 49.792 3.42 49.968C3.004 50.136 2.64 50.384 2.328 50.712C2.016 51.032 1.772 51.412 1.596 51.852C1.428 52.292 1.344 52.776 1.344 53.304C1.344 53.848 1.432 54.344 1.608 54.792C1.784 55.232 2.028 55.612 2.34 55.932C2.66 56.252 3.028 56.496 3.444 56.664C3.86 56.832 4.308 56.916 4.788 56.916C5.18 56.916 5.548 56.86 5.892 56.748C6.244 56.636 6.572 56.484 6.876 56.292C6.956 56.244 7.04 56.228 7.128 56.244C7.224 56.252 7.3 56.296 7.356 56.376C7.428 56.464 7.452 56.56 7.428 56.664C7.412 56.76 7.36 56.836 7.272 56.892C7.072 57.02 6.836 57.14 6.564 57.252C6.292 57.364 6.004 57.452 5.7 57.516C5.396 57.588 5.092 57.624 4.788 57.624C4.212 57.624 3.672 57.52 3.168 57.312C2.664 57.104 2.216 56.812 1.824 56.436C1.432 56.052 1.124 55.596 0.9 55.068C0.684 54.54 0.576 53.952 0.576 53.304C0.576 52.68 0.684 52.108 0.9 51.588C1.116 51.06 1.416 50.604 1.8 50.22C2.184 49.836 2.632 49.536 3.144 49.32C3.656 49.104 4.204 48.996 4.788 48.996C5.244 48.996 5.684 49.06 6.108 49.188C6.532 49.316 6.916 49.496 7.26 49.728ZM10.1678 49.104H14.5718C14.6678 49.104 14.7518 49.14 14.8238 49.212C14.8958 49.276 14.9318 49.36 14.9318 49.464C14.9318 49.568 14.8958 49.652 14.8238 49.716C14.7518 49.78 14.6678 49.812 14.5718 49.812H10.4438L10.5638 49.608V52.98L10.4318 52.824H14.0318C14.1278 52.824 14.2118 52.86 14.2838 52.932C14.3558 53.004 14.3918 53.088 14.3918 53.184C14.3918 53.288 14.3558 53.372 14.2838 53.436C14.2118 53.5 14.1278 53.532 14.0318 53.532H10.4558L10.5638 53.412V56.868L10.5038 56.796H14.5718C14.6678 56.796 14.7518 56.832 14.8238 56.904C14.8958 56.976 14.9318 57.06 14.9318 57.156C14.9318 57.26 14.8958 57.344 14.8238 57.408C14.7518 57.472 14.6678 57.504 14.5718 57.504H10.1678C10.0718 57.504 9.98784 57.468 9.91584 57.396C9.84384 57.324 9.80784 57.24 9.80784 57.144V49.464C9.80784 49.368 9.84384 49.284 9.91584 49.212C9.98784 49.14 10.0718 49.104 10.1678 49.104ZM19.7842 57.624C19.1762 57.632 18.6482 57.536 18.2002 57.336C17.7522 57.136 17.3242 56.836 16.9162 56.436C16.8762 56.404 16.8402 56.364 16.8082 56.316C16.7842 56.268 16.7722 56.212 16.7722 56.148C16.7722 56.052 16.8082 55.964 16.8802 55.884C16.9602 55.804 17.0482 55.764 17.1442 55.764C17.2402 55.764 17.3282 55.804 17.4082 55.884C17.7202 56.22 18.0722 56.476 18.4642 56.652C18.8642 56.828 19.2922 56.916 19.7482 56.916C20.1322 56.916 20.4722 56.856 20.7682 56.736C21.0722 56.616 21.3122 56.444 21.4882 56.22C21.6642 55.996 21.7522 55.736 21.7522 55.44C21.7522 55.072 21.6522 54.776 21.4522 54.552C21.2522 54.32 20.9882 54.132 20.6602 53.988C20.3322 53.836 19.9682 53.7 19.5682 53.58C19.2402 53.484 18.9282 53.376 18.6322 53.256C18.3362 53.128 18.0722 52.976 17.8402 52.8C17.6082 52.616 17.4282 52.392 17.3002 52.128C17.1722 51.864 17.1082 51.544 17.1082 51.168C17.1082 50.744 17.2202 50.368 17.4442 50.04C17.6682 49.712 17.9842 49.456 18.3922 49.272C18.8082 49.08 19.2882 48.984 19.8322 48.984C20.3042 48.984 20.7562 49.064 21.1882 49.224C21.6282 49.384 21.9762 49.62 22.2322 49.932C22.3522 50.06 22.4122 50.176 22.4122 50.28C22.4122 50.36 22.3722 50.44 22.2922 50.52C22.2122 50.6 22.1242 50.64 22.0282 50.64C21.9482 50.64 21.8802 50.612 21.8242 50.556C21.6882 50.388 21.5162 50.24 21.3082 50.112C21.1002 49.976 20.8682 49.872 20.6122 49.8C20.3642 49.728 20.1042 49.692 19.8322 49.692C19.4562 49.692 19.1162 49.752 18.8122 49.872C18.5162 49.984 18.2802 50.148 18.1042 50.364C17.9362 50.58 17.8522 50.84 17.8522 51.144C17.8522 51.48 17.9482 51.756 18.1402 51.972C18.3322 52.188 18.5842 52.368 18.8962 52.512C19.2082 52.648 19.5402 52.776 19.8922 52.896C20.2362 52.992 20.5642 53.104 20.8762 53.232C21.1962 53.352 21.4762 53.504 21.7162 53.688C21.9642 53.872 22.1562 54.104 22.2922 54.384C22.4362 54.664 22.5082 55.016 22.5082 55.44C22.5082 55.848 22.3922 56.216 22.1602 56.544C21.9282 56.872 21.6082 57.132 21.2002 57.324C20.8002 57.516 20.3282 57.616 19.7842 57.624ZM27.5424 57.504C27.4304 57.504 27.3384 57.468 27.2664 57.396C27.2024 57.324 27.1704 57.24 27.1704 57.144V49.5H27.9144V57.144C27.9144 57.24 27.8784 57.324 27.8064 57.396C27.7344 57.468 27.6464 57.504 27.5424 57.504ZM24.6864 49.788C24.5904 49.788 24.5064 49.756 24.4344 49.692C24.3624 49.628 24.3264 49.544 24.3264 49.44C24.3264 49.344 24.3624 49.264 24.4344 49.2C24.5064 49.136 24.5904 49.104 24.6864 49.104H30.3984C30.4944 49.104 30.5784 49.136 30.6504 49.2C30.7224 49.264 30.7584 49.348 30.7584 49.452C30.7584 49.556 30.7224 49.64 30.6504 49.704C30.5784 49.76 30.4944 49.788 30.3984 49.788H24.6864ZM40.3823 53.304C40.3823 53.936 40.2823 54.516 40.0823 55.044C39.8903 55.564 39.6143 56.02 39.2543 56.412C38.8943 56.796 38.4663 57.096 37.9703 57.312C37.4823 57.52 36.9463 57.624 36.3623 57.624C35.7783 57.624 35.2383 57.52 34.7423 57.312C34.2543 57.096 33.8303 56.796 33.4703 56.412C33.1103 56.02 32.8303 55.564 32.6303 55.044C32.4383 54.516 32.3423 53.936 32.3423 53.304C32.3423 52.672 32.4383 52.096 32.6303 51.576C32.8303 51.048 33.1103 50.592 33.4703 50.208C33.8303 49.816 34.2543 49.516 34.7423 49.308C35.2383 49.092 35.7783 48.984 36.3623 48.984C36.9463 48.984 37.4823 49.092 37.9703 49.308C38.4663 49.516 38.8943 49.816 39.2543 50.208C39.6143 50.592 39.8903 51.048 40.0823 51.576C40.2823 52.096 40.3823 52.672 40.3823 53.304ZM39.6143 53.304C39.6143 52.592 39.4743 51.968 39.1943 51.432C38.9223 50.888 38.5423 50.464 38.0543 50.16C37.5663 49.856 37.0023 49.704 36.3623 49.704C35.7303 49.704 35.1663 49.856 34.6703 50.16C34.1823 50.464 33.7983 50.888 33.5183 51.432C33.2463 51.968 33.1103 52.592 33.1103 53.304C33.1103 54.016 33.2463 54.644 33.5183 55.188C33.7983 55.724 34.1823 56.144 34.6703 56.448C35.1663 56.752 35.7303 56.904 36.3623 56.904C37.0023 56.904 37.5663 56.752 38.0543 56.448C38.5423 56.144 38.9223 55.724 39.1943 55.188C39.4743 54.644 39.6143 54.016 39.6143 53.304ZM48.8648 49.092C48.9768 49.092 49.0648 49.124 49.1288 49.188C49.2008 49.252 49.2368 49.332 49.2368 49.428C49.2368 49.484 49.2248 49.544 49.2008 49.608L45.9968 57.264C45.9568 57.344 45.9048 57.404 45.8408 57.444C45.7768 57.484 45.7128 57.504 45.6488 57.504C45.5768 57.504 45.5088 57.484 45.4448 57.444C45.3808 57.404 45.3368 57.348 45.3128 57.276L42.1208 49.632C42.1128 49.608 42.1048 49.58 42.0968 49.548C42.0888 49.516 42.0848 49.48 42.0848 49.44C42.0848 49.336 42.1208 49.252 42.1928 49.188C42.2728 49.124 42.3528 49.092 42.4328 49.092C42.6008 49.092 42.7208 49.18 42.7928 49.356L45.7928 56.532H45.5768L48.5288 49.332C48.6088 49.172 48.7208 49.092 48.8648 49.092ZM57.7573 49.104C57.8613 49.104 57.9413 49.136 57.9973 49.2C58.0613 49.264 58.0933 49.344 58.0933 49.44V57.12C58.0933 57.24 58.0533 57.336 57.9733 57.408C57.9013 57.472 57.8173 57.504 57.7213 57.504C57.6733 57.504 57.6213 57.496 57.5653 57.48C57.5093 57.456 57.4653 57.424 57.4333 57.384L52.0813 50.172L52.2853 50.064V57.18C52.2853 57.268 52.2533 57.344 52.1893 57.408C52.1253 57.472 52.0453 57.504 51.9493 57.504C51.8453 57.504 51.7613 57.472 51.6973 57.408C51.6413 57.344 51.6133 57.268 51.6133 57.18V49.464C51.6133 49.344 51.6493 49.256 51.7213 49.2C51.7933 49.136 51.8733 49.104 51.9613 49.104C52.0093 49.104 52.0613 49.116 52.1173 49.14C52.1733 49.156 52.2173 49.188 52.2493 49.236L57.5413 56.364L57.4213 56.58V49.44C57.4213 49.344 57.4533 49.264 57.5173 49.2C57.5893 49.136 57.6693 49.104 57.7573 49.104ZM63.9918 50.028L61.0758 57.276C61.0438 57.356 60.9998 57.416 60.9438 57.456C60.8878 57.496 60.8238 57.516 60.7518 57.516C60.6398 57.516 60.5558 57.488 60.4998 57.432C60.4438 57.368 60.4118 57.292 60.4038 57.204C60.3958 57.164 60.3998 57.116 60.4158 57.06L63.5838 49.308C63.6238 49.22 63.6718 49.16 63.7278 49.128C63.7918 49.088 63.8638 49.068 63.9438 49.068C64.0238 49.068 64.0918 49.092 64.1478 49.14C64.2118 49.18 64.2598 49.236 64.2918 49.308L67.4478 57.024C67.4638 57.072 67.4718 57.12 67.4718 57.168C67.4718 57.28 67.4358 57.368 67.3638 57.432C67.2918 57.488 67.2078 57.516 67.1118 57.516C67.0318 57.516 66.9598 57.496 66.8958 57.456C66.8398 57.408 66.7958 57.348 66.7638 57.276L63.7758 49.98L63.9918 50.028ZM61.7718 55.08L62.0718 54.372H65.7918L65.9358 55.08H61.7718ZM63.9798 48.552C63.8998 48.552 63.8398 48.532 63.7998 48.492C63.7678 48.444 63.7518 48.392 63.7518 48.336C63.7518 48.296 63.7598 48.26 63.7758 48.228C63.7998 48.188 63.8318 48.152 63.8718 48.12L64.9398 47.292C64.9878 47.26 65.0398 47.232 65.0958 47.208C65.1518 47.176 65.2158 47.16 65.2878 47.16C65.3918 47.16 65.4758 47.196 65.5398 47.268C65.6118 47.332 65.6478 47.416 65.6478 47.52C65.6478 47.6 65.6278 47.672 65.5878 47.736C65.5478 47.8 65.4918 47.852 65.4198 47.892L64.2438 48.48C64.2038 48.496 64.1598 48.512 64.1118 48.528C64.0718 48.544 64.0278 48.552 63.9798 48.552ZM79.9146 57.552C79.8106 57.552 79.7226 57.508 79.6506 57.42L76.2426 53.136L76.8066 52.572L80.2386 56.916C80.2946 56.996 80.3226 57.08 80.3226 57.168C80.3226 57.296 80.2746 57.392 80.1786 57.456C80.0906 57.52 80.0026 57.552 79.9146 57.552ZM79.7826 49.128C79.8786 49.128 79.9586 49.164 80.0226 49.236C80.0946 49.308 80.1306 49.388 80.1306 49.476C80.1306 49.572 80.0946 49.656 80.0226 49.728L74.5746 54.828L74.4786 54.012L79.5186 49.248C79.5986 49.168 79.6866 49.128 79.7826 49.128ZM74.2866 57.504C74.1746 57.504 74.0826 57.468 74.0106 57.396C73.9466 57.324 73.9146 57.236 73.9146 57.132V49.476C73.9146 49.372 73.9506 49.284 74.0226 49.212C74.0946 49.14 74.1866 49.104 74.2986 49.104C74.4026 49.104 74.4906 49.14 74.5626 49.212C74.6346 49.284 74.6706 49.372 74.6706 49.476V57.132C74.6626 57.236 74.6226 57.324 74.5506 57.396C74.4786 57.468 74.3906 57.504 74.2866 57.504ZM85.6602 50.028L82.7442 57.276C82.7122 57.356 82.6682 57.416 82.6122 57.456C82.5562 57.496 82.4922 57.516 82.4202 57.516C82.3082 57.516 82.2242 57.488 82.1682 57.432C82.1122 57.368 82.0802 57.292 82.0722 57.204C82.0642 57.164 82.0682 57.116 82.0842 57.06L85.2522 49.308C85.2922 49.22 85.3402 49.16 85.3962 49.128C85.4602 49.088 85.5322 49.068 85.6122 49.068C85.6922 49.068 85.7602 49.092 85.8162 49.14C85.8802 49.18 85.9282 49.236 85.9602 49.308L89.1162 57.024C89.1322 57.072 89.1402 57.12 89.1402 57.168C89.1402 57.28 89.1042 57.368 89.0322 57.432C88.9602 57.488 88.8762 57.516 88.7802 57.516C88.7002 57.516 88.6282 57.496 88.5642 57.456C88.5082 57.408 88.4642 57.348 88.4322 57.276L85.4442 49.98L85.6602 50.028ZM83.4402 55.08L83.7402 54.372H87.4602L87.6042 55.08H83.4402ZM97.6057 49.104C97.7097 49.104 97.7897 49.136 97.8457 49.2C97.9097 49.264 97.9417 49.344 97.9417 49.44V57.12C97.9417 57.24 97.9017 57.336 97.8217 57.408C97.7497 57.472 97.6657 57.504 97.5697 57.504C97.5217 57.504 97.4697 57.496 97.4137 57.48C97.3577 57.456 97.3137 57.424 97.2817 57.384L91.9297 50.172L92.1337 50.064V57.18C92.1337 57.268 92.1017 57.344 92.0377 57.408C91.9737 57.472 91.8937 57.504 91.7977 57.504C91.6937 57.504 91.6097 57.472 91.5457 57.408C91.4897 57.344 91.4617 57.268 91.4617 57.18V49.464C91.4617 49.344 91.4977 49.256 91.5697 49.2C91.6417 49.136 91.7217 49.104 91.8097 49.104C91.8577 49.104 91.9097 49.116 91.9657 49.14C92.0217 49.156 92.0657 49.188 92.0977 49.236L97.3897 56.364L97.2697 56.58V49.44C97.2697 49.344 97.3017 49.264 97.3657 49.2C97.4377 49.136 97.5177 49.104 97.6057 49.104ZM107.164 49.728C107.26 49.792 107.316 49.876 107.332 49.98C107.348 50.076 107.324 50.172 107.26 50.268C107.204 50.34 107.132 50.38 107.044 50.388C106.956 50.396 106.872 50.38 106.792 50.34C106.488 50.14 106.16 49.984 105.808 49.872C105.464 49.76 105.092 49.704 104.692 49.704C104.204 49.704 103.748 49.792 103.324 49.968C102.908 50.136 102.544 50.384 102.232 50.712C101.92 51.032 101.676 51.412 101.5 51.852C101.332 52.292 101.248 52.776 101.248 53.304C101.248 53.848 101.336 54.344 101.512 54.792C101.688 55.232 101.932 55.612 102.244 55.932C102.564 56.252 102.932 56.496 103.348 56.664C103.764 56.832 104.212 56.916 104.692 56.916C105.084 56.916 105.452 56.86 105.796 56.748C106.148 56.636 106.476 56.484 106.78 56.292C106.86 56.244 106.944 56.228 107.032 56.244C107.128 56.252 107.204 56.296 107.26 56.376C107.332 56.464 107.356 56.56 107.332 56.664C107.316 56.76 107.264 56.836 107.176 56.892C106.976 57.02 106.74 57.14 106.468 57.252C106.196 57.364 105.908 57.452 105.604 57.516C105.3 57.588 104.996 57.624 104.692 57.624C104.116 57.624 103.576 57.52 103.072 57.312C102.568 57.104 102.12 56.812 101.728 56.436C101.336 56.052 101.028 55.596 100.804 55.068C100.588 54.54 100.48 53.952 100.48 53.304C100.48 52.68 100.588 52.108 100.804 51.588C101.02 51.06 101.32 50.604 101.704 50.22C102.088 49.836 102.536 49.536 103.048 49.32C103.56 49.104 104.108 48.996 104.692 48.996C105.148 48.996 105.588 49.06 106.012 49.188C106.436 49.316 106.82 49.496 107.164 49.728ZM110.072 49.104H114.476C114.572 49.104 114.656 49.14 114.728 49.212C114.8 49.276 114.836 49.36 114.836 49.464C114.836 49.568 114.8 49.652 114.728 49.716C114.656 49.78 114.572 49.812 114.476 49.812H110.348L110.468 49.608V52.98L110.336 52.824H113.936C114.032 52.824 114.116 52.86 114.188 52.932C114.26 53.004 114.296 53.088 114.296 53.184C114.296 53.288 114.26 53.372 114.188 53.436C114.116 53.5 114.032 53.532 113.936 53.532H110.36L110.468 53.412V56.868L110.408 56.796H114.476C114.572 56.796 114.656 56.832 114.728 56.904C114.8 56.976 114.836 57.06 114.836 57.156C114.836 57.26 114.8 57.344 114.728 57.408C114.656 57.472 114.572 57.504 114.476 57.504H110.072C109.976 57.504 109.892 57.468 109.82 57.396C109.748 57.324 109.712 57.24 109.712 57.144V49.464C109.712 49.368 109.748 49.284 109.82 49.212C109.892 49.14 109.976 49.104 110.072 49.104ZM122.016 56.796C122.112 56.796 122.196 56.832 122.268 56.904C122.34 56.968 122.376 57.048 122.376 57.144C122.376 57.248 122.34 57.336 122.268 57.408C122.196 57.472 122.112 57.504 122.016 57.504H117.732C117.628 57.504 117.54 57.468 117.468 57.396C117.404 57.324 117.372 57.24 117.372 57.144V49.464C117.372 49.368 117.408 49.284 117.48 49.212C117.552 49.14 117.644 49.104 117.756 49.104C117.852 49.104 117.936 49.14 118.008 49.212C118.088 49.284 118.128 49.368 118.128 49.464V57L117.9 56.796H122.016ZM127.407 50.028L124.491 57.276C124.459 57.356 124.415 57.416 124.359 57.456C124.303 57.496 124.239 57.516 124.167 57.516C124.055 57.516 123.971 57.488 123.915 57.432C123.859 57.368 123.827 57.292 123.819 57.204C123.811 57.164 123.815 57.116 123.831 57.06L126.999 49.308C127.039 49.22 127.087 49.16 127.143 49.128C127.207 49.088 127.279 49.068 127.359 49.068C127.439 49.068 127.507 49.092 127.563 49.14C127.627 49.18 127.675 49.236 127.707 49.308L130.863 57.024C130.879 57.072 130.887 57.12 130.887 57.168C130.887 57.28 130.851 57.368 130.779 57.432C130.707 57.488 130.623 57.516 130.527 57.516C130.447 57.516 130.375 57.496 130.311 57.456C130.255 57.408 130.211 57.348 130.179 57.276L127.191 49.98L127.407 50.028ZM125.187 55.08L125.487 54.372H129.207L129.351 55.08H125.187ZM127.395 48.552C127.315 48.552 127.255 48.532 127.215 48.492C127.183 48.444 127.167 48.392 127.167 48.336C127.167 48.296 127.175 48.26 127.191 48.228C127.215 48.188 127.247 48.152 127.287 48.12L128.355 47.292C128.403 47.26 128.455 47.232 128.511 47.208C128.567 47.176 128.631 47.16 128.703 47.16C128.807 47.16 128.891 47.196 128.955 47.268C129.027 47.332 129.063 47.416 129.063 47.52C129.063 47.6 129.043 47.672 129.003 47.736C128.963 47.8 128.907 47.852 128.835 47.892L127.659 48.48C127.619 48.496 127.575 48.512 127.527 48.528C127.487 48.544 127.443 48.552 127.395 48.552ZM133.617 57.504C133.497 57.504 133.397 57.468 133.317 57.396C133.245 57.324 133.209 57.24 133.209 57.144V49.464C133.209 49.368 133.245 49.284 133.317 49.212C133.389 49.14 133.473 49.104 133.569 49.104H136.809C137.265 49.104 137.673 49.204 138.033 49.404C138.393 49.596 138.673 49.864 138.873 50.208C139.081 50.552 139.185 50.94 139.185 51.372C139.185 51.724 139.121 52.048 138.993 52.344C138.865 52.64 138.685 52.892 138.453 53.1C138.221 53.3 137.961 53.448 137.673 53.544L137.253 53.412C137.549 53.436 137.825 53.532 138.081 53.7C138.337 53.86 138.541 54.084 138.693 54.372C138.853 54.652 138.937 54.992 138.945 55.392C138.953 55.736 138.969 56.004 138.993 56.196C139.025 56.388 139.069 56.532 139.125 56.628C139.181 56.724 139.253 56.8 139.341 56.856C139.421 56.904 139.473 56.972 139.497 57.06C139.529 57.148 139.521 57.232 139.473 57.312C139.441 57.376 139.393 57.424 139.329 57.456C139.273 57.48 139.213 57.492 139.149 57.492C139.085 57.492 139.021 57.476 138.957 57.444C138.845 57.38 138.729 57.28 138.609 57.144C138.497 57.008 138.401 56.808 138.321 56.544C138.249 56.28 138.213 55.912 138.213 55.44C138.213 55.128 138.161 54.872 138.057 54.672C137.961 54.472 137.833 54.32 137.673 54.216C137.521 54.104 137.349 54.028 137.157 53.988C136.973 53.94 136.797 53.916 136.629 53.916H133.833L133.965 53.748V57.144C133.965 57.24 133.933 57.324 133.869 57.396C133.805 57.468 133.721 57.504 133.617 57.504ZM133.833 53.256H136.845C137.117 53.232 137.373 53.144 137.613 52.992C137.853 52.832 138.045 52.616 138.189 52.344C138.341 52.072 138.417 51.756 138.417 51.396C138.417 50.94 138.261 50.564 137.949 50.268C137.645 49.964 137.245 49.812 136.749 49.812H133.881L133.965 49.644V53.424L133.833 53.256ZM142.844 57.132C142.836 57.236 142.792 57.324 142.712 57.396C142.64 57.468 142.556 57.504 142.46 57.504C142.348 57.504 142.256 57.468 142.184 57.396C142.12 57.324 142.088 57.236 142.088 57.132V49.476C142.088 49.372 142.124 49.284 142.196 49.212C142.268 49.14 142.36 49.104 142.472 49.104C142.568 49.104 142.652 49.14 142.724 49.212C142.804 49.284 142.844 49.372 142.844 49.476V57.132ZM148.736 50.028L145.82 57.276C145.788 57.356 145.744 57.416 145.688 57.456C145.632 57.496 145.568 57.516 145.496 57.516C145.384 57.516 145.3 57.488 145.244 57.432C145.188 57.368 145.156 57.292 145.148 57.204C145.14 57.164 145.144 57.116 145.16 57.06L148.328 49.308C148.368 49.22 148.416 49.16 148.472 49.128C148.536 49.088 148.608 49.068 148.688 49.068C148.768 49.068 148.836 49.092 148.892 49.14C148.956 49.18 149.004 49.236 149.036 49.308L152.192 57.024C152.208 57.072 152.216 57.12 152.216 57.168C152.216 57.28 152.18 57.368 152.108 57.432C152.036 57.488 151.952 57.516 151.856 57.516C151.776 57.516 151.704 57.496 151.64 57.456C151.584 57.408 151.54 57.348 151.508 57.276L148.52 49.98L148.736 50.028ZM146.516 55.08L146.816 54.372H150.536L150.68 55.08H146.516Z" fill="#BDD4CE"/>
</svg>
